<svg width="28" height="30" viewBox="0 0 28 30" fill="none" xmlns="http://www.w3.org/2000/svg">
<path d="M4.00047 4C-0.97007 8.97059 1.00007 19 3.00083 21.5C4.20234 23.0013 7.5 24 7.5 24C7.5 24 7.50028 28 8.00028 28.5C8.30161 28.8013 11.5 24.5 11.5 24.5C11.5 24.5 20.3858 25.3799 23.5003 22C25.9722 19.3174 26.4508 17.1475 26.5005 13.5C26.5527 9.66406 25.5003 6.42822 23.5003 4.50003C20.9071 2 17.9831 2 14.0006 2H14.0005H14.0002C10.0177 2 6.00044 2 4.00047 4Z" fill="white"/>
<path d="M13.3998 0.737305C11.2293 0.737305 5.86038 0.965082 3.00455 3.69841C0.948359 5.63452 0.148728 8.59563 0.0344946 12.1262C-0.193972 17.7067 1.06259 21.2373 3.11879 23.0595C3.57572 23.4012 4.71805 24.3123 6.88848 24.9956V27.8428C6.88848 27.8428 6.88848 28.9817 7.57388 29.2095C7.68811 29.2095 7.80234 29.3234 7.91658 29.3234C8.60198 29.3234 9.17314 28.5261 9.97277 27.7289C10.6582 26.9317 11.2293 26.3623 11.572 25.7928H14.0852C16.2556 25.7928 21.6245 25.565 24.4804 22.8317C26.5366 20.7817 27.3362 17.8206 27.3362 14.0623C27.4504 13.4928 27.4504 12.8095 27.4504 12.1262C27.3362 7.91229 26.0796 5.06508 24.3661 3.47063C23.6807 2.90119 20.7107 0.737305 14.3136 0.737305H13.3998ZM13.1713 2.90119H14.1994C20.2538 2.90119 22.5384 4.8373 22.7669 5.06508C24.1377 6.20396 24.9373 8.70951 25.0515 12.0123V12.4678C25.1658 13.1512 25.1658 13.7206 25.1658 14.0623C25.0515 17.4789 24.3661 19.7567 22.9953 21.2373C20.5965 23.4012 15.5702 23.515 14.1994 23.515H12.029L10.2012 25.565L9.05891 26.8178L8.83044 27.1595C8.60198 27.3873 8.25928 27.8428 8.03081 27.9567V22.8317C5.74615 22.2623 4.83228 21.465 4.60382 21.2373C3.00455 19.8706 2.09069 16.5678 2.31916 12.1262V10.9873C2.54762 8.25396 3.23302 6.43174 4.37535 5.17896C6.77425 3.01508 11.8005 2.90119 13.1713 2.90119ZM13.0571 5.40674C12.4859 5.40674 12.4859 6.20396 13.0571 6.20396C17.2837 6.20396 20.9391 9.05118 20.9391 14.4039C20.9391 14.9734 21.7388 14.9734 21.7388 14.4039C21.7388 8.59563 17.8549 5.29285 13.0571 5.40674ZM8.53001 6.46021C8.27118 6.42929 8.01048 6.5004 7.80349 6.65838C6.66116 7.22782 5.51768 8.36899 5.86038 9.62176C5.86038 9.62176 6.08885 10.6456 7.34541 12.8095C8.03081 13.8345 8.60198 14.7456 9.17314 15.4289C9.74431 16.2262 10.6582 17.1373 11.572 17.8206C13.3998 19.3012 16.2556 20.7817 17.5122 21.1234C18.6545 21.465 19.9111 20.3262 20.4822 19.1873C20.7107 18.7317 20.5965 18.1623 20.1395 17.8206C19.4541 17.1373 18.3118 16.3401 17.5122 15.8845C16.941 15.5428 16.2556 15.7706 16.0271 16.1123L15.456 16.7956C15.2275 17.1373 14.6563 17.1373 14.6563 17.1373C10.8866 16.1123 9.85854 12.2401 9.85854 12.2401C9.85854 12.2401 9.85854 11.7845 10.2012 11.4428L10.8866 10.8734C11.2293 10.6456 11.4578 9.96229 11.1151 9.39285C10.8866 9.05118 10.5439 8.36785 10.2012 8.02618C9.85854 7.57063 9.17314 6.77341 9.17314 6.77341C8.99983 6.60038 8.77344 6.49013 8.53001 6.46021ZM13.8567 7.68452C13.2855 7.57063 13.1713 8.48174 13.7425 8.48174C16.941 8.70951 18.7687 10.8734 18.6545 13.6067C18.5403 14.1762 19.4541 14.1762 19.4541 13.6067C19.5684 10.4178 17.5122 7.7984 13.8567 7.68452ZM14.1994 9.8484C13.6282 9.73451 13.6282 10.6456 14.1994 10.6456C15.5702 10.6456 16.2556 11.4428 16.2556 12.8095C16.3698 13.379 17.1695 13.379 17.1695 12.8095C17.0552 10.9873 16.0271 9.8484 14.1994 9.8484Z" fill="#8900FA"/>
</svg>
