<svg width="40" height="36" viewBox="0 0 40 36" fill="none" xmlns="http://www.w3.org/2000/svg">
<g filter="url(#filter0_f_507_0)">
<path d="M32 13.48V23.6667C32.0001 24.7735 31.5766 25.8384 30.8164 26.643C30.0563 27.4475 29.0171 27.9307 27.912 27.9933L27.6667 28H12.3333C11.2265 28.0001 10.1616 27.5766 9.35703 26.8164C8.55249 26.0563 8.06933 25.0171 8.00667 23.912L8 23.6667V13.48L19.5333 19.552C19.6772 19.6279 19.8374 19.6676 20 19.6676C20.1626 19.6676 20.3228 19.6279 20.4667 19.552L32 13.48ZM12.3333 8H27.6667C28.6342 7.99994 29.574 8.3236 30.3363 8.91945C31.0986 9.5153 31.6397 10.3491 31.8733 11.288L20 17.536L8.12667 11.288C8.3502 10.3912 8.85445 9.58923 9.56587 8.99918C10.2773 8.40913 11.1586 8.06185 12.0813 8.008L12.3333 8Z" fill="#00D1FF"/>
</g>
<path d="M31.5 14.3083V23.6667V23.6667C31.5001 24.6458 31.1254 25.5879 30.453 26.2996C29.7822 27.0096 28.8657 27.4366 27.8908 27.4937L27.6599 27.5H12.3333H12.3333C11.3542 27.5001 10.4121 27.1254 9.70041 26.453C8.99044 25.7822 8.56338 24.8657 8.50628 23.8908L8.5 23.6599V14.3083L19.3 19.9942L31.5 14.3083ZM31.5 14.3083L20.7 19.9942L31.5 14.3083ZM20 20.1676C19.7562 20.1676 19.5161 20.1081 19.3004 19.9944L20 20.1676ZM20 20.1676C20.2438 20.1676 20.4839 20.1081 20.6996 19.9944L20 20.1676ZM27.6667 8.5H27.6667C28.5227 8.49995 29.354 8.78628 30.0284 9.31339L30.3363 8.91945L30.0284 9.31339C30.6005 9.76055 31.0317 10.3592 31.2756 11.0376L20 16.971L8.72459 11.0376C8.95591 10.3949 9.35565 9.82313 9.88507 9.38403C10.5128 8.8634 11.2901 8.5564 12.104 8.50753L12.3413 8.5H27.6667Z" fill="#00111C" stroke="white"/>
<defs>
<filter id="filter0_f_507_0" x="0" y="0" width="40" height="36" filterUnits="userSpaceOnUse" color-interpolation-filters="sRGB">
<feFlood flood-opacity="0" result="BackgroundImageFix"/>
<feBlend mode="normal" in="SourceGraphic" in2="BackgroundImageFix" result="shape"/>
<feGaussianBlur stdDeviation="4" result="effect1_foregroundBlur_507_0"/>
</filter>
</defs>
</svg>
