<svg width="487" height="701" viewBox="0 0 487 701" fill="none" xmlns="http://www.w3.org/2000/svg">
<path d="M104.622 664.836C104.622 664.836 103.95 605.004 119.819 561.73C135.689 518.456 142.701 466.52 135.016 410.076C127.331 353.631 123.792 338.268 125.876 315.22C126.933 303.533 127.461 296.159 125.985 289.169C124.537 282.381 135.059 267.749 126.028 260.39C106.801 244.723 74.1932 209.061 74.8879 151.119C75.5826 93.1767 81.1764 68.0155 101.431 40.0755C121.686 12.1356 161.494 6.55625 178.253 0.998643C195.013 -4.55896 215.268 15.6597 232.028 33.1213C248.787 50.5829 254.374 56.8641 261.364 69.4411C268.355 82.0181 278.124 96.6719 291.388 109.965C304.653 123.259 313.742 146.98 317.23 161.648C320.718 176.316 333.997 176.316 352.153 176.316C370.309 176.316 422.245 171.721 442.37 243.507C462.494 315.293 528.875 422.971 455.178 513.68C401.042 579.286 409.639 568.88 409.639 568.88C409.639 568.88 430.531 626.12 421.037 666.572C421.037 666.572 271.93 743.481 104.622 664.836Z" fill="#232323"/>
<path d="M382.893 651.882C343.093 660.963 238.888 683.31 194.253 651.882C149.619 620.454 156.443 590.647 161.769 546.186C167.095 501.725 152.267 404.395 194.253 377.62C236.239 350.845 322.744 326.704 337.455 289.19C352.167 251.676 296.316 223.78 290.368 183.256C284.419 142.731 254.547 100.63 227.23 80.8234C199.912 61.0172 168.976 37.7665 126.831 54.6275C84.6858 71.4884 80.4018 114.212 86.0318 157.436C91.6617 200.659 96.8503 216.97 127.468 248.999C139.987 262.104 132.171 280.593 126.071 289.523C127.453 296.405 126.932 303.728 125.89 315.22C123.792 338.268 127.287 353.631 134.986 410.075C142.686 466.52 135.667 518.456 119.79 561.73C103.913 605.004 104.593 664.835 104.593 664.835C271.9 743.481 421.008 666.572 421.008 666.572C425.169 648.864 423.504 627.922 420.284 609.975C416.557 625.541 406.998 646.346 382.893 651.882Z" fill="#161616"/>
<path d="M423.49 640.462C396.477 671.145 293.835 697.681 237.361 689.547C174.238 680.458 168.492 663.72 146.276 622.545C124.06 581.37 155.922 516.357 153.375 465.181C150.828 414.005 171.264 344.578 227.187 335.149C283.11 325.72 316.55 283.792 308.865 256.554C305.087 243.152 293.401 220.219 282.502 200.384C284.55 211.138 285.245 221.102 283.689 229.062C278.421 255.888 270.143 262.669 268.637 276.222C267.132 289.776 173.767 310.104 154.945 292.787C154.945 292.787 150.936 271.758 135.986 249.303C141.348 282.627 126.072 289.523 126.072 289.523C127.454 296.405 126.933 303.728 125.891 315.22C123.792 338.268 127.288 353.631 134.987 410.075C142.687 466.52 135.667 518.456 119.791 561.73C103.914 605.004 104.594 664.835 104.594 664.835C271.901 743.481 421.008 666.572 421.008 666.572C422.898 658.002 423.732 649.234 423.49 640.462V640.462Z" fill="#111111"/>
<path d="M442.383 243.435C422.259 171.649 370.323 176.244 352.166 176.244C334.01 176.244 320.738 176.244 317.243 161.576C313.748 146.907 304.673 123.165 291.402 109.871C278.13 96.5777 268.361 81.9384 261.378 69.3469C254.394 56.7555 248.801 50.5321 232.041 33.0706C215.281 15.609 195.026 -4.64589 178.267 0.947897C161.507 6.54168 121.699 12.121 101.445 40.0248C98.1006 44.5939 95.041 49.3645 92.2832 54.3096C110.172 38.3098 138.105 25.0381 177.92 25.0381C223.053 25.0381 233.785 69.0358 282.002 120.603C313.972 154.795 291.409 196.492 327.027 195.095C344.481 201.383 330.515 232.811 340.291 255.158C350.068 277.504 364.041 352.937 372.421 383.663C380.801 414.389 373.195 447.908 348.367 470.956C323.539 494.004 287.972 560.934 321.817 582.991C355.662 605.048 398.342 629.739 366.523 655.457C352.253 666.992 346.392 680.416 344.257 691.719C391.619 681.74 421.036 666.572 421.036 666.572C430.544 626.12 409.653 568.808 409.653 568.808C409.653 568.808 401.056 579.214 455.192 513.608C528.888 422.863 462.508 315.22 442.383 243.435Z" fill="#161616"/>
<path d="M442.385 243.434C422.26 171.649 370.324 176.244 352.168 176.244C334.011 176.244 320.74 176.244 317.244 161.576C313.749 146.907 304.675 123.165 291.403 109.871C278.131 96.5777 268.362 81.9384 261.379 69.3469C254.396 56.7555 248.802 50.5321 232.042 33.0706C215.283 15.609 195.028 -4.64589 178.268 0.947897C163.6 5.83251 131.282 10.7244 109.869 30.6174C130.435 23.2651 168.398 11.4552 187.249 16.3543C213.886 23.2941 241.124 49.8302 256.487 74.246C271.85 98.6618 301.187 128.02 306.773 148.275C312.36 168.53 315.848 184.595 328.425 187.388C341.002 190.181 359.846 179.008 357.052 185.29C354.259 191.571 341.349 209.553 344.663 225.358C347.978 241.162 352.247 293.308 366.525 327.993C380.802 362.677 395.471 403.889 386.389 425.54C377.307 447.192 330.516 514.237 332.615 533.088C334.713 551.939 363.362 572.636 389.189 586.385C415.016 600.134 412.831 645.659 401.006 657.121C394.986 662.954 390.68 672.18 387.894 679.844C408.988 672.759 421.037 666.543 421.037 666.543C430.546 626.091 409.654 568.779 409.654 568.779C409.654 568.779 401.057 579.185 455.193 513.579C528.889 422.863 462.509 315.22 442.385 243.434Z" fill="#111111"/>
<path d="M154.944 292.787C154.944 292.787 148.916 261.164 124.073 234.056C99.2302 206.948 91.8635 181.86 91.3859 148.854C90.9083 115.849 87.0802 89.2763 110.092 73.1969C133.104 57.1175 165.48 49.5843 187.32 67.6538C209.159 85.7232 245.551 99.7475 257.094 126.269C268.636 152.791 288.934 202.252 283.688 229.092C278.441 255.932 270.141 262.698 268.636 276.252C267.131 289.806 173.766 310.104 154.944 292.787Z" fill="url(#paint0_linear_1802_18088)"/>
<path d="M165.212 152.14C162.23 151.576 159.28 150.851 156.376 149.969L155.435 149.672L155.009 149.535L154.82 149.469C154.097 149.223 153.373 148.963 152.613 148.695C151.658 148.348 150.717 147.971 149.777 147.588C151.604 144.133 152.976 140.455 153.858 136.646C154.648 133.154 154.964 129.571 154.799 125.994C154.739 125.272 154.399 124.601 153.852 124.126C153.304 123.652 152.592 123.41 151.868 123.454C151.148 123.522 150.481 123.866 150.008 124.413C149.535 124.961 149.291 125.67 149.328 126.392C149.328 127.116 149.379 127.84 149.328 128.563C149.328 128.932 149.328 129.287 149.328 129.656V129.757C149.328 129.917 149.328 130.083 149.292 130.249C149.175 131.695 148.974 133.133 148.691 134.555C148.405 135.98 148.043 137.388 147.606 138.774V138.832C147.541 139.006 147.49 139.179 147.425 139.346C147.302 139.693 147.179 140.069 147.048 140.38C146.788 141.061 146.513 141.741 146.216 142.414C145.775 143.413 145.283 144.397 144.769 145.366C143.242 144.607 141.795 143.883 140.347 143.036C139.059 142.313 137.791 141.558 136.541 140.771L136.215 140.561L135.89 140.351C135.615 140.171 135.34 139.99 135.072 139.802C134.421 139.367 133.784 138.926 133.147 138.477C130.37 136.496 127.712 134.353 125.187 132.059C124.63 131.595 123.914 131.37 123.192 131.431C122.47 131.492 121.801 131.834 121.33 132.384C120.873 132.945 120.652 133.661 120.713 134.382C120.774 135.103 121.112 135.772 121.656 136.248C127.73 141.761 134.551 146.39 141.918 149.998C140.245 152.326 138.373 154.505 136.324 156.51L135.427 157.372L135.195 157.581L134.862 157.878C134.24 158.428 133.603 158.956 132.952 159.477C131.594 160.561 130.181 161.573 128.718 162.51C128.126 162.928 127.723 163.564 127.597 164.278C127.471 164.992 127.632 165.727 128.045 166.323C128.47 166.908 129.104 167.305 129.815 167.432C130.526 167.559 131.259 167.405 131.859 167.003C137.84 163.157 142.984 158.143 146.983 152.263C149.347 153.257 151.759 154.147 154.22 154.933C157.5 156.002 160.842 156.869 164.228 157.531C164.943 157.666 165.682 157.512 166.283 157.102C166.884 156.692 167.298 156.06 167.434 155.345C167.569 154.631 167.415 153.891 167.005 153.29C166.595 152.689 165.963 152.275 165.248 152.14H165.212Z" fill="#FF007A"/>
<path d="M225.015 130.9C223.495 130.476 221.983 130.022 220.477 129.54L219.949 129.409L219.812 129.359H219.739L218.618 128.982C217.865 128.727 217.12 128.466 216.382 128.201C213.405 127.14 210.469 125.977 207.575 124.713C207.141 124.525 206.714 124.315 206.28 124.119C208.036 120.501 209.578 116.782 210.896 112.983C212.045 109.715 213.012 106.386 213.791 103.011C213.919 102.299 213.764 101.565 213.358 100.966C212.952 100.367 212.329 99.9503 211.62 99.805C210.909 99.6862 210.18 99.8454 209.583 100.25C208.986 100.654 208.568 101.272 208.414 101.976C208.096 103.38 207.749 104.776 207.358 106.159C207.177 106.788 206.996 107.41 206.808 108.026C206.706 108.358 206.598 108.691 206.497 109.024C206.497 109.06 206.439 109.212 206.403 109.314L206.258 109.741C205.293 112.534 204.224 115.286 203.052 117.997C202.492 119.266 201.909 120.518 201.301 121.753C197.755 119.995 194.274 118.135 190.888 116.065C187.848 114.234 185.424 112.635 182.356 110.443C181.793 109.99 181.077 109.773 180.357 109.835C179.637 109.897 178.969 110.234 178.492 110.775C177.645 111.875 177.572 113.75 178.817 114.64C185.141 119.146 191.809 123.148 198.761 126.609C198.117 127.767 197.458 128.91 196.764 130.039L196.199 130.951C196.105 131.103 196.011 131.255 195.91 131.407L195.837 131.515C195.432 132.137 195.02 132.76 194.6 133.375C192.787 136.031 190.813 138.574 188.688 140.988C188.227 141.547 188.003 142.265 188.066 142.988C188.128 143.71 188.471 144.379 189.021 144.852C189.583 145.306 190.299 145.525 191.02 145.463C191.74 145.401 192.408 145.063 192.885 144.519C197.066 139.737 200.72 134.518 203.783 128.953C206.866 130.343 210.001 131.624 213.19 132.796C216.741 134.099 220.342 135.266 223.994 136.298C224.706 136.43 225.441 136.276 226.039 135.87C226.638 135.463 227.053 134.837 227.193 134.128C227.316 133.413 227.158 132.678 226.752 132.076C226.346 131.475 225.724 131.054 225.015 130.9V130.9Z" fill="#FF007A"/>
<path d="M165.212 152.14C162.23 151.576 159.28 150.851 156.376 149.969L155.435 149.672L155.009 149.535L154.82 149.469C154.097 149.223 153.373 148.963 152.613 148.695C151.658 148.348 150.717 147.971 149.777 147.588C151.604 144.133 152.976 140.455 153.858 136.646C154.648 133.154 154.964 129.571 154.799 125.994C154.739 125.272 154.399 124.601 153.852 124.126C153.304 123.652 152.592 123.41 151.868 123.454C151.148 123.522 150.481 123.866 150.008 124.413C149.535 124.961 149.291 125.67 149.328 126.392C149.328 127.116 149.379 127.84 149.328 128.563C149.328 128.932 149.328 129.287 149.328 129.656V129.757C149.328 129.917 149.328 130.083 149.292 130.249C149.175 131.695 148.974 133.133 148.691 134.555C148.405 135.98 148.043 137.388 147.606 138.774V138.832C147.541 139.006 147.49 139.179 147.425 139.346C147.302 139.693 147.179 140.069 147.048 140.38C146.788 141.061 146.513 141.741 146.216 142.414C145.775 143.413 145.283 144.397 144.769 145.366C143.242 144.607 141.795 143.883 140.347 143.036C139.059 142.313 137.791 141.558 136.541 140.771L136.215 140.561L135.89 140.351C135.615 140.171 135.34 139.99 135.072 139.802C134.421 139.367 133.784 138.926 133.147 138.477C130.37 136.496 127.712 134.353 125.187 132.059C124.63 131.595 123.914 131.37 123.192 131.431C122.47 131.492 121.801 131.834 121.33 132.384C120.873 132.945 120.652 133.661 120.713 134.382C120.774 135.103 121.112 135.772 121.656 136.248C127.73 141.761 134.551 146.39 141.918 149.998C140.245 152.326 138.373 154.505 136.324 156.51L135.427 157.372L135.195 157.581L134.862 157.878C134.24 158.428 133.603 158.956 132.952 159.477C131.594 160.561 130.181 161.573 128.718 162.51C128.126 162.928 127.723 163.564 127.597 164.278C127.471 164.992 127.632 165.727 128.045 166.323C128.47 166.908 129.104 167.305 129.815 167.432C130.526 167.559 131.259 167.405 131.859 167.003C137.84 163.157 142.984 158.143 146.983 152.263C149.347 153.257 151.759 154.147 154.22 154.933C157.5 156.002 160.842 156.869 164.228 157.531C164.943 157.666 165.682 157.512 166.283 157.102C166.884 156.692 167.298 156.06 167.434 155.345C167.569 154.631 167.415 153.891 167.005 153.29C166.595 152.689 165.963 152.275 165.248 152.14H165.212Z" fill="#FF007A"/>
<path d="M225.015 130.9C223.495 130.476 221.983 130.022 220.477 129.54L219.949 129.409L219.812 129.359H219.739L218.618 128.982C217.865 128.727 217.12 128.466 216.382 128.201C213.405 127.14 210.469 125.977 207.575 124.713C207.141 124.525 206.714 124.315 206.28 124.119C208.036 120.501 209.578 116.782 210.896 112.983C212.045 109.715 213.012 106.386 213.791 103.011C213.919 102.299 213.764 101.565 213.358 100.966C212.952 100.367 212.329 99.9503 211.62 99.805C210.909 99.6862 210.18 99.8454 209.583 100.25C208.986 100.654 208.568 101.272 208.414 101.976C208.096 103.38 207.749 104.776 207.358 106.159C207.177 106.788 206.996 107.41 206.808 108.026C206.706 108.358 206.598 108.691 206.497 109.024C206.497 109.06 206.439 109.212 206.403 109.314L206.258 109.741C205.293 112.534 204.224 115.286 203.052 117.997C202.492 119.266 201.909 120.518 201.301 121.753C197.755 119.995 194.274 118.135 190.888 116.065C187.848 114.234 185.424 112.635 182.356 110.443C181.793 109.99 181.077 109.773 180.357 109.835C179.637 109.897 178.969 110.234 178.492 110.775C177.645 111.875 177.572 113.75 178.817 114.64C185.141 119.146 191.809 123.148 198.761 126.609C198.117 127.767 197.458 128.91 196.764 130.039L196.199 130.951C196.105 131.103 196.011 131.255 195.91 131.407L195.837 131.515C195.432 132.137 195.02 132.76 194.6 133.375C192.787 136.031 190.813 138.574 188.688 140.988C188.227 141.547 188.003 142.265 188.066 142.988C188.128 143.71 188.471 144.379 189.021 144.852C189.583 145.306 190.299 145.525 191.02 145.463C191.74 145.401 192.408 145.063 192.885 144.519C197.066 139.737 200.72 134.518 203.783 128.953C206.866 130.343 210.001 131.624 213.19 132.796C216.741 134.099 220.342 135.266 223.994 136.298C224.706 136.43 225.441 136.276 226.039 135.87C226.638 135.463 227.053 134.837 227.193 134.128C227.316 133.413 227.158 132.678 226.752 132.076C226.346 131.475 225.724 131.054 225.015 130.9V130.9Z" fill="#FF007A"/>
<path d="M183.189 172.445C184.032 171.23 185.238 170.313 186.635 169.826C188.031 169.338 189.545 169.305 190.961 169.731C191.069 169.757 191.168 169.81 191.249 169.885C191.33 169.96 191.391 170.054 191.426 170.159C191.461 170.264 191.468 170.376 191.448 170.485C191.427 170.594 191.379 170.695 191.309 170.78C190.413 171.916 189.213 172.772 187.847 173.249C186.482 173.726 185.009 173.803 183.602 173.472C183.492 173.453 183.39 173.406 183.304 173.337C183.218 173.267 183.151 173.176 183.109 173.073C183.068 172.97 183.054 172.859 183.068 172.749C183.082 172.639 183.124 172.534 183.189 172.445Z" fill="#FF007A"/>
<g filter="url(#filter0_d_1802_18088)">
<path d="M180.51 173.046C182.167 170.788 186.299 166.685 193.435 168.538C193.612 168.581 193.776 168.669 193.91 168.793C194.044 168.918 194.144 169.074 194.202 169.248C194.259 169.421 194.271 169.607 194.237 169.786C194.202 169.966 194.123 170.134 194.006 170.274C192.356 172.358 188.318 176.063 181.183 174.754C181.002 174.721 180.832 174.643 180.69 174.526C180.548 174.41 180.437 174.259 180.37 174.088C180.303 173.916 180.28 173.731 180.305 173.548C180.329 173.366 180.4 173.193 180.51 173.046Z" fill="#FF6FF1"/>
</g>
<path d="M227.187 180.578C226.726 180.38 226.207 180.362 225.734 180.527C225.26 180.691 224.864 181.027 224.625 181.468C223.549 183.435 222.34 185.325 221.007 187.127C220.515 185.173 220.008 183.227 219.473 181.287C219.406 181.058 219.295 180.844 219.145 180.657C218.996 180.471 218.811 180.316 218.601 180.201C218.391 180.087 218.16 180.015 217.922 179.991C217.684 179.966 217.444 179.989 217.215 180.057C216.745 180.183 216.343 180.487 216.093 180.905C215.844 181.322 215.766 181.82 215.876 182.293C216.26 183.842 216.636 185.398 216.991 186.954C215.061 186.346 213.153 185.702 211.267 185.021C210.806 184.855 210.299 184.872 209.851 185.069C209.403 185.265 209.047 185.627 208.857 186.078C208.76 186.297 208.709 186.533 208.707 186.772C208.704 187.011 208.751 187.248 208.844 187.468C208.937 187.689 209.074 187.888 209.247 188.053C209.419 188.218 209.624 188.347 209.848 188.43C212.41 189.395 215.025 190.287 217.693 191.107C213.381 195.756 208.179 199.489 202.395 202.085L200.18 196.296C199.96 195.878 199.594 195.555 199.153 195.386C198.711 195.218 198.223 195.216 197.78 195.381C197.338 195.545 196.97 195.866 196.745 196.282C196.521 196.698 196.456 197.181 196.562 197.642L198.668 203.561C197.763 203.88 196.844 204.169 195.918 204.437L193.899 198.575C193.709 198.129 193.359 197.77 192.917 197.568C192.476 197.367 191.975 197.337 191.513 197.486C191.051 197.635 190.661 197.95 190.42 198.371C190.178 198.792 190.103 199.288 190.209 199.762L191.945 205.414C189.771 205.844 187.572 206.132 185.36 206.275C181.734 206.508 178.092 206.331 174.506 205.747C176.083 203.614 177.581 201.455 178.999 199.27C179.131 199.071 179.22 198.847 179.262 198.611C179.304 198.376 179.297 198.135 179.242 197.902C179.188 197.67 179.086 197.451 178.943 197.259C178.8 197.068 178.62 196.907 178.413 196.788C177.99 196.54 177.488 196.463 177.009 196.572C176.531 196.681 176.112 196.968 175.837 197.374C174.484 199.4 173.073 201.405 171.582 203.395C170.46 201.086 169.36 198.764 168.304 196.433C168.1 195.995 167.734 195.654 167.283 195.481C166.832 195.308 166.331 195.317 165.887 195.507C165.666 195.598 165.466 195.732 165.297 195.901C165.128 196.069 164.994 196.27 164.903 196.49C164.812 196.71 164.765 196.947 164.764 197.185C164.764 197.424 164.811 197.66 164.903 197.881C165.795 199.95 166.709 202.018 167.645 204.082C166.605 203.747 165.585 203.351 164.592 202.896C164.139 202.68 163.623 202.639 163.142 202.78C162.661 202.922 162.25 203.236 161.986 203.663C161.863 203.873 161.785 204.107 161.758 204.349C161.732 204.591 161.757 204.837 161.832 205.068C161.907 205.3 162.031 205.514 162.195 205.694C162.359 205.875 162.559 206.018 162.782 206.116C164.462 206.904 166.205 207.55 167.993 208.048C166.497 209.896 164.936 211.717 163.311 213.511C163.141 213.687 163.012 213.898 162.934 214.13C162.856 214.361 162.83 214.608 162.859 214.85C162.889 215.093 162.971 215.326 163.102 215.533C163.233 215.739 163.408 215.914 163.615 216.044C164.065 216.334 164.603 216.457 165.134 216.392C165.677 216.329 166.178 216.072 166.545 215.668C167.993 214.008 169.401 212.334 170.771 210.646C171.625 212.397 172.501 214.148 173.391 215.885C173.614 216.261 173.951 216.557 174.353 216.729C174.755 216.901 175.201 216.94 175.627 216.84C175.809 216.807 175.986 216.754 176.155 216.681C176.394 216.6 176.612 216.47 176.796 216.299C176.98 216.127 177.126 215.919 177.224 215.687C177.322 215.455 177.369 215.205 177.364 214.954C177.358 214.702 177.299 214.455 177.19 214.228C176.336 212.65 175.497 211.068 174.672 209.481C178.167 209.983 181.705 210.131 185.23 209.922C187.843 209.761 190.44 209.411 193.002 208.873C193.595 210.812 194.196 212.752 194.789 214.662C195.026 215.115 195.415 215.47 195.888 215.664C196.361 215.858 196.887 215.879 197.374 215.723C197.861 215.568 198.277 215.245 198.549 214.813C198.822 214.38 198.933 213.866 198.863 213.359C198.248 211.514 197.626 209.676 197.011 207.831C197.937 207.556 198.871 207.266 199.819 206.926L201.751 212.361C202.009 212.801 202.413 213.135 202.893 213.307C203.373 213.478 203.899 213.475 204.377 213.298C204.855 213.121 205.255 212.782 205.508 212.339C205.761 211.897 205.85 211.379 205.76 210.877L203.647 205.392C209.243 202.902 214.354 199.44 218.742 195.167C219.104 196.971 219.451 198.78 219.784 200.594C219.843 200.839 219.953 201.069 220.107 201.268C220.261 201.467 220.456 201.632 220.678 201.751C220.9 201.87 221.145 201.94 221.396 201.958C221.647 201.976 221.899 201.94 222.136 201.853C222.31 201.81 222.478 201.744 222.635 201.658C223.039 201.471 223.371 201.158 223.582 200.767C223.793 200.376 223.872 199.927 223.808 199.487C223.323 197.121 222.802 194.762 222.259 192.41C224.401 192.998 226.572 193.539 228.772 194.031C229.332 194.145 229.916 194.039 230.4 193.734C230.835 193.473 231.169 193.073 231.348 192.598C231.44 192.372 231.481 192.127 231.466 191.883C231.452 191.639 231.384 191.401 231.266 191.187C231.148 190.973 230.984 190.787 230.785 190.645C230.586 190.502 230.358 190.405 230.118 190.362C228.099 189.935 226.109 189.465 224.133 188.958C225.547 187.06 226.826 185.065 227.961 182.988C228.077 182.781 228.149 182.552 228.173 182.316C228.196 182.079 228.171 181.841 228.098 181.615C228.026 181.389 227.907 181.18 227.751 181.002C227.594 180.823 227.402 180.679 227.187 180.578V180.578Z" fill="#FF007A"/>
<g filter="url(#filter1_d_1802_18088)">
<path d="M165.212 152.14C162.23 151.576 159.28 150.851 156.376 149.969L155.435 149.672L155.009 149.535L154.82 149.469C154.097 149.223 153.373 148.963 152.613 148.695C151.658 148.348 150.717 147.971 149.777 147.588C151.604 144.133 152.976 140.455 153.858 136.646C154.648 133.154 154.964 129.571 154.799 125.994C154.739 125.272 154.399 124.601 153.852 124.126C153.304 123.652 152.592 123.41 151.868 123.454C151.148 123.522 150.481 123.866 150.008 124.413C149.535 124.961 149.291 125.67 149.328 126.392C149.328 127.116 149.379 127.84 149.328 128.563C149.328 128.932 149.328 129.287 149.328 129.656V129.757C149.328 129.917 149.328 130.083 149.292 130.249C149.175 131.695 148.974 133.133 148.691 134.555C148.405 135.98 148.043 137.388 147.606 138.774V138.832C147.541 139.006 147.49 139.179 147.425 139.346C147.302 139.693 147.179 140.069 147.048 140.38C146.788 141.061 146.513 141.741 146.216 142.414C145.775 143.413 145.283 144.397 144.769 145.366C143.242 144.607 141.795 143.883 140.347 143.036C139.059 142.313 137.791 141.558 136.541 140.771L136.215 140.561L135.89 140.351C135.615 140.171 135.34 139.99 135.072 139.802C134.421 139.367 133.784 138.926 133.147 138.477C130.37 136.496 127.712 134.353 125.187 132.059C124.63 131.595 123.914 131.37 123.192 131.431C122.47 131.492 121.801 131.834 121.33 132.384C120.873 132.945 120.652 133.661 120.713 134.382C120.774 135.103 121.112 135.772 121.656 136.248C127.73 141.761 134.551 146.39 141.918 149.998C140.245 152.326 138.373 154.505 136.324 156.51L135.427 157.372L135.195 157.581L134.862 157.878C134.24 158.428 133.603 158.956 132.952 159.477C131.594 160.561 130.181 161.573 128.718 162.51C128.126 162.928 127.723 163.564 127.597 164.278C127.471 164.992 127.632 165.727 128.045 166.323C128.47 166.908 129.104 167.305 129.815 167.432C130.526 167.559 131.259 167.405 131.859 167.003C137.84 163.157 142.984 158.143 146.983 152.263C149.347 153.257 151.759 154.147 154.22 154.933C157.5 156.002 160.842 156.869 164.228 157.531C164.943 157.666 165.682 157.512 166.283 157.102C166.884 156.692 167.298 156.06 167.434 155.345C167.569 154.631 167.415 153.891 167.005 153.29C166.595 152.689 165.963 152.275 165.248 152.14H165.212Z" fill="#FF6FF1"/>
</g>
<g filter="url(#filter2_d_1802_18088)">
<path d="M225.015 130.9C223.495 130.476 221.983 130.022 220.477 129.54L219.949 129.409L219.812 129.359H219.739L218.618 128.982C217.865 128.727 217.12 128.466 216.382 128.201C213.405 127.14 210.469 125.977 207.575 124.713C207.141 124.525 206.714 124.315 206.28 124.119C208.036 120.501 209.578 116.782 210.896 112.983C212.045 109.715 213.012 106.386 213.791 103.011C213.919 102.299 213.764 101.565 213.358 100.966C212.952 100.367 212.329 99.9503 211.62 99.805C210.909 99.6862 210.18 99.8454 209.583 100.25C208.986 100.654 208.568 101.272 208.414 101.976C208.096 103.38 207.749 104.776 207.358 106.159C207.177 106.788 206.996 107.41 206.808 108.026C206.706 108.358 206.598 108.691 206.497 109.024C206.497 109.06 206.439 109.212 206.403 109.314L206.258 109.741C205.293 112.534 204.224 115.286 203.052 117.997C202.492 119.266 201.909 120.518 201.301 121.753C197.755 119.995 194.274 118.135 190.888 116.065C187.848 114.234 185.424 112.635 182.356 110.443C181.793 109.99 181.077 109.773 180.357 109.835C179.637 109.897 178.969 110.234 178.492 110.775C177.645 111.875 177.572 113.75 178.817 114.64C185.141 119.146 191.809 123.148 198.761 126.609C198.117 127.767 197.458 128.91 196.764 130.039L196.199 130.951C196.105 131.103 196.011 131.255 195.91 131.407L195.837 131.515C195.432 132.137 195.02 132.76 194.6 133.375C192.787 136.031 190.813 138.574 188.688 140.988C188.227 141.547 188.003 142.265 188.066 142.988C188.128 143.71 188.471 144.379 189.021 144.852C189.583 145.306 190.299 145.525 191.02 145.463C191.74 145.401 192.408 145.063 192.885 144.519C197.066 139.737 200.72 134.518 203.783 128.953C206.866 130.343 210.001 131.624 213.19 132.796C216.741 134.099 220.342 135.266 223.994 136.298C224.706 136.43 225.441 136.276 226.039 135.87C226.638 135.463 227.053 134.837 227.193 134.128C227.316 133.413 227.158 132.678 226.752 132.076C226.346 131.475 225.724 131.054 225.015 130.9V130.9Z" fill="#FF6FF1"/>
</g>
<path d="M227.187 180.578C226.726 180.38 226.207 180.362 225.734 180.527C225.26 180.691 224.864 181.027 224.625 181.468C223.549 183.435 222.34 185.325 221.007 187.127C220.515 185.173 220.008 183.227 219.473 181.287C219.406 181.058 219.295 180.844 219.145 180.657C218.996 180.471 218.811 180.316 218.601 180.201C218.391 180.087 218.16 180.015 217.922 179.991C217.684 179.966 217.444 179.989 217.215 180.057C216.745 180.183 216.343 180.487 216.093 180.905C215.844 181.322 215.766 181.82 215.876 182.293C216.26 183.842 216.636 185.398 216.991 186.954C215.061 186.346 213.153 185.702 211.267 185.021C210.806 184.855 210.299 184.872 209.851 185.069C209.403 185.265 209.047 185.627 208.857 186.078C208.76 186.297 208.709 186.533 208.707 186.772C208.704 187.011 208.751 187.248 208.844 187.468C208.937 187.689 209.074 187.888 209.247 188.053C209.419 188.218 209.624 188.347 209.848 188.43C212.41 189.395 215.025 190.287 217.693 191.107C213.381 195.756 208.179 199.489 202.395 202.085L200.18 196.296C199.96 195.878 199.594 195.555 199.153 195.386C198.711 195.218 198.223 195.216 197.78 195.381C197.338 195.545 196.97 195.866 196.745 196.282C196.521 196.698 196.456 197.181 196.562 197.642L198.668 203.561C197.763 203.88 196.844 204.169 195.918 204.437L193.899 198.575C193.709 198.129 193.359 197.77 192.917 197.568C192.476 197.367 191.975 197.337 191.513 197.486C191.051 197.635 190.661 197.95 190.42 198.371C190.178 198.792 190.103 199.288 190.209 199.762L191.945 205.414C189.771 205.844 187.572 206.132 185.36 206.275C181.734 206.508 178.092 206.331 174.506 205.747C176.083 203.614 177.581 201.455 178.999 199.27C179.131 199.071 179.22 198.847 179.262 198.611C179.304 198.376 179.297 198.135 179.242 197.902C179.188 197.67 179.086 197.451 178.943 197.259C178.8 197.068 178.62 196.907 178.413 196.788C177.99 196.54 177.488 196.463 177.009 196.572C176.531 196.681 176.112 196.968 175.837 197.374C174.484 199.4 173.073 201.405 171.582 203.395C170.46 201.086 169.36 198.764 168.304 196.433C168.1 195.995 167.734 195.654 167.283 195.481C166.832 195.308 166.331 195.317 165.887 195.507C165.666 195.598 165.466 195.732 165.297 195.901C165.128 196.069 164.994 196.27 164.903 196.49C164.812 196.71 164.765 196.947 164.764 197.185C164.764 197.424 164.811 197.66 164.903 197.881C165.795 199.95 166.709 202.018 167.645 204.082C166.605 203.747 165.585 203.351 164.592 202.896C164.139 202.68 163.623 202.639 163.142 202.78C162.661 202.922 162.25 203.236 161.986 203.663C161.863 203.873 161.785 204.107 161.758 204.349C161.732 204.591 161.757 204.837 161.832 205.068C161.907 205.3 162.031 205.514 162.195 205.694C162.359 205.875 162.559 206.018 162.782 206.116C164.462 206.904 166.205 207.55 167.993 208.048C166.497 209.896 164.936 211.717 163.311 213.511C163.141 213.687 163.012 213.898 162.934 214.13C162.856 214.361 162.83 214.608 162.859 214.85C162.889 215.093 162.971 215.326 163.102 215.533C163.233 215.739 163.408 215.914 163.615 216.044C164.065 216.334 164.603 216.457 165.134 216.392C165.677 216.329 166.178 216.072 166.545 215.668C167.993 214.008 169.401 212.334 170.771 210.646C171.625 212.397 172.501 214.148 173.391 215.885C173.614 216.261 173.951 216.557 174.353 216.729C174.755 216.901 175.201 216.94 175.627 216.84C175.809 216.807 175.986 216.754 176.155 216.681C176.394 216.6 176.612 216.47 176.796 216.299C176.98 216.127 177.126 215.919 177.224 215.687C177.322 215.455 177.369 215.205 177.364 214.954C177.358 214.702 177.299 214.455 177.19 214.228C176.336 212.65 175.497 211.068 174.672 209.481C178.167 209.983 181.705 210.131 185.23 209.922C187.843 209.761 190.44 209.411 193.002 208.873C193.595 210.812 194.196 212.752 194.789 214.662C195.026 215.115 195.415 215.47 195.888 215.664C196.361 215.858 196.887 215.879 197.374 215.723C197.861 215.568 198.277 215.245 198.549 214.813C198.822 214.38 198.933 213.866 198.863 213.359C198.248 211.514 197.626 209.676 197.011 207.831C197.937 207.556 198.871 207.266 199.819 206.926L201.751 212.361C202.009 212.801 202.413 213.135 202.893 213.307C203.373 213.478 203.899 213.475 204.377 213.298C204.855 213.121 205.255 212.782 205.508 212.339C205.761 211.897 205.85 211.379 205.76 210.877L203.647 205.392C209.243 202.902 214.354 199.44 218.742 195.167C219.104 196.971 219.451 198.78 219.784 200.594C219.843 200.839 219.953 201.069 220.107 201.268C220.261 201.467 220.456 201.632 220.678 201.751C220.9 201.87 221.145 201.94 221.396 201.958C221.647 201.976 221.899 201.94 222.136 201.853C222.31 201.81 222.478 201.744 222.635 201.658C223.039 201.471 223.371 201.158 223.582 200.767C223.793 200.376 223.872 199.927 223.808 199.487C223.323 197.121 222.802 194.762 222.259 192.41C224.401 192.998 226.572 193.539 228.772 194.031C229.332 194.145 229.916 194.039 230.4 193.734C230.835 193.473 231.169 193.073 231.348 192.598C231.44 192.372 231.481 192.127 231.466 191.883C231.452 191.639 231.384 191.401 231.266 191.187C231.148 190.973 230.984 190.787 230.785 190.645C230.586 190.502 230.358 190.405 230.118 190.362C228.099 189.935 226.109 189.465 224.133 188.958C225.547 187.06 226.826 185.065 227.961 182.988C228.077 182.781 228.149 182.552 228.173 182.316C228.196 182.079 228.171 181.841 228.098 181.615C228.026 181.389 227.907 181.18 227.751 181.002C227.594 180.823 227.402 180.679 227.187 180.578V180.578Z" fill="#FF007A"/>
<g filter="url(#filter3_d_1802_18088)">
<path d="M227.187 180.578C226.726 180.38 226.207 180.362 225.734 180.527C225.26 180.691 224.864 181.027 224.625 181.468C223.549 183.435 222.34 185.325 221.007 187.127C220.515 185.173 220.008 183.227 219.473 181.287C219.406 181.058 219.295 180.844 219.145 180.657C218.996 180.471 218.811 180.316 218.601 180.201C218.391 180.087 218.16 180.015 217.922 179.991C217.684 179.966 217.444 179.989 217.215 180.057C216.745 180.183 216.343 180.487 216.093 180.905C215.844 181.322 215.766 181.82 215.876 182.293C216.26 183.842 216.636 185.398 216.991 186.954C215.061 186.346 213.153 185.702 211.267 185.021C210.806 184.855 210.299 184.872 209.851 185.069C209.403 185.265 209.047 185.627 208.857 186.078C208.76 186.297 208.709 186.533 208.707 186.772C208.704 187.011 208.751 187.248 208.844 187.468C208.937 187.689 209.074 187.888 209.247 188.053C209.419 188.218 209.624 188.347 209.848 188.43C212.41 189.395 215.025 190.287 217.693 191.107C213.381 195.756 208.179 199.489 202.395 202.085L200.18 196.296C199.96 195.878 199.594 195.555 199.153 195.386C198.711 195.218 198.223 195.216 197.78 195.381C197.338 195.545 196.97 195.866 196.745 196.282C196.521 196.698 196.456 197.181 196.562 197.642L198.668 203.561C197.763 203.88 196.844 204.169 195.918 204.437L193.899 198.575C193.709 198.129 193.359 197.77 192.917 197.568C192.476 197.367 191.975 197.337 191.513 197.486C191.051 197.635 190.661 197.95 190.42 198.371C190.178 198.792 190.103 199.288 190.209 199.762L191.945 205.414C189.771 205.844 187.572 206.132 185.36 206.275C181.734 206.508 178.092 206.331 174.506 205.747C176.083 203.614 177.581 201.455 178.999 199.27C179.131 199.071 179.22 198.847 179.262 198.611C179.304 198.376 179.297 198.135 179.242 197.902C179.188 197.67 179.086 197.451 178.943 197.259C178.8 197.068 178.62 196.907 178.413 196.788C177.99 196.54 177.488 196.463 177.009 196.572C176.531 196.681 176.112 196.968 175.837 197.374C174.484 199.4 173.073 201.405 171.582 203.395C170.46 201.086 169.36 198.764 168.304 196.433C168.1 195.995 167.734 195.654 167.283 195.481C166.832 195.308 166.331 195.317 165.887 195.507C165.666 195.598 165.466 195.732 165.297 195.901C165.128 196.069 164.994 196.27 164.903 196.49C164.812 196.71 164.765 196.947 164.764 197.185C164.764 197.424 164.811 197.66 164.903 197.881C165.795 199.95 166.709 202.018 167.645 204.082C166.605 203.747 165.585 203.351 164.592 202.896C164.139 202.68 163.623 202.639 163.142 202.78C162.661 202.922 162.25 203.236 161.986 203.663C161.863 203.873 161.785 204.107 161.758 204.349C161.732 204.591 161.757 204.837 161.832 205.068C161.907 205.3 162.031 205.514 162.195 205.694C162.359 205.875 162.559 206.018 162.782 206.116C164.462 206.904 166.205 207.55 167.993 208.048C166.497 209.896 164.936 211.717 163.311 213.511C163.141 213.687 163.012 213.898 162.934 214.13C162.856 214.361 162.83 214.608 162.859 214.85C162.889 215.093 162.971 215.326 163.102 215.533C163.233 215.739 163.408 215.914 163.615 216.044C164.065 216.334 164.603 216.457 165.134 216.392C165.677 216.329 166.178 216.072 166.545 215.668C167.993 214.008 169.401 212.334 170.771 210.646C171.625 212.397 172.501 214.148 173.391 215.885C173.614 216.261 173.951 216.557 174.353 216.729C174.755 216.901 175.201 216.94 175.627 216.84C175.809 216.807 175.986 216.754 176.155 216.681C176.394 216.6 176.612 216.47 176.796 216.299C176.98 216.127 177.126 215.919 177.224 215.687C177.322 215.455 177.369 215.205 177.364 214.954C177.358 214.702 177.299 214.455 177.19 214.228C176.336 212.65 175.497 211.068 174.672 209.481C178.167 209.983 181.705 210.131 185.23 209.922C187.843 209.761 190.44 209.411 193.002 208.873C193.595 210.812 194.196 212.752 194.789 214.662C195.026 215.115 195.415 215.47 195.888 215.664C196.361 215.858 196.887 215.879 197.374 215.723C197.861 215.568 198.277 215.245 198.549 214.813C198.822 214.38 198.933 213.866 198.863 213.359C198.248 211.514 197.626 209.676 197.011 207.831C197.937 207.556 198.871 207.266 199.819 206.926L201.751 212.361C202.009 212.801 202.413 213.135 202.893 213.307C203.373 213.478 203.899 213.475 204.377 213.298C204.855 213.121 205.255 212.782 205.508 212.339C205.761 211.897 205.85 211.379 205.76 210.877L203.647 205.392C209.243 202.902 214.354 199.44 218.742 195.167C219.104 196.971 219.451 198.78 219.784 200.594C219.843 200.839 219.953 201.069 220.107 201.268C220.261 201.467 220.456 201.632 220.678 201.751C220.9 201.87 221.145 201.94 221.396 201.958C221.647 201.976 221.899 201.94 222.136 201.853C222.31 201.81 222.478 201.744 222.635 201.658C223.039 201.471 223.371 201.158 223.582 200.767C223.793 200.376 223.872 199.927 223.808 199.487C223.323 197.121 222.802 194.762 222.259 192.41C224.401 192.998 226.572 193.539 228.772 194.031C229.332 194.145 229.916 194.039 230.4 193.734C230.835 193.473 231.169 193.073 231.348 192.598C231.44 192.372 231.481 192.127 231.466 191.883C231.452 191.639 231.384 191.401 231.266 191.187C231.148 190.973 230.984 190.787 230.785 190.645C230.586 190.502 230.358 190.405 230.118 190.362C228.099 189.935 226.109 189.465 224.133 188.958C225.547 187.06 226.826 185.065 227.961 182.988C228.077 182.781 228.149 182.552 228.173 182.316C228.196 182.079 228.171 181.841 228.098 181.615C228.026 181.389 227.907 181.18 227.751 181.002C227.594 180.823 227.402 180.679 227.187 180.578V180.578Z" fill="#FF6FF1"/>
</g>
<path d="M157.035 284.544C155.43 279.257 153.497 274.076 151.246 269.029C149.026 264.004 146.546 259.099 143.814 254.332L141.701 250.808C141.014 249.628 140.254 248.514 139.48 247.363L138.351 245.648C137.975 245.084 137.562 244.534 137.171 243.977L134.791 240.648C133.068 238.52 131.454 236.306 129.624 234.302L126.953 231.19C126.027 230.126 125.13 229.019 124.218 227.977C123.306 226.935 122.416 225.806 121.584 224.677C120.752 223.548 119.869 222.441 119.058 221.29C117.474 218.96 115.874 216.645 114.463 214.206C111.55 209.401 108.991 204.389 106.807 199.212C106.532 198.575 106.221 197.946 105.968 197.287L105.244 195.326C104.745 194.023 104.216 192.721 103.797 191.389C103.377 190.058 102.87 188.741 102.48 187.402L101.344 183.357C99.9911 177.925 98.9784 172.415 98.3115 166.858C97.624 161.307 97.3201 155.714 97.1175 150.141C96.9149 144.569 96.6543 139.062 96.4445 133.498C96.2346 127.933 96.1116 122.332 96.3721 116.687C96.5788 110.968 97.52 105.299 99.1726 99.8191C100.925 94.2083 103.917 89.0639 107.929 84.7673C109.942 82.6489 112.165 80.7408 114.565 79.0722C116.895 77.444 119.312 75.9388 121.801 74.5494C126.756 71.7528 131.981 69.4641 137.396 67.7181C142.813 65.9589 148.419 64.8464 154.097 64.4038C159.826 63.9689 165.587 64.4576 171.161 65.8511C176.739 67.305 181.978 69.8372 186.582 73.3047L188.268 74.6362L189.86 75.9315C190.938 76.7854 192.031 77.6176 193.131 78.4281C195.345 80.0587 197.605 81.6363 199.911 83.1608C204.507 86.229 209.239 89.1236 213.994 92.0182C218.748 94.9128 223.531 97.8074 228.177 100.955C232.907 104.079 237.372 107.586 241.528 111.441C243.613 113.425 245.568 115.54 247.383 117.773C249.198 120.042 250.815 122.463 252.217 125.009C252.557 125.653 252.94 126.29 253.215 126.956L254.113 128.96C254.648 130.263 255.176 131.537 255.683 132.839C256.703 135.43 257.709 138.028 258.679 140.647C259.648 143.267 260.618 145.872 261.573 148.492L264.374 156.372C266.226 161.626 268.086 166.879 269.866 172.162C271.646 177.445 273.485 182.727 275.069 188.082C276.71 193.473 277.963 198.975 278.818 204.545C279.23 207.358 279.486 210.192 279.585 213.034C279.706 215.909 279.614 218.79 279.31 221.652C279.158 223.111 278.928 224.56 278.622 225.994L277.66 230.104L276.567 234.186C276.169 235.539 275.764 236.885 275.33 238.224C274.411 240.894 273.463 243.55 272.363 246.133C271.263 248.717 270.069 251.264 268.868 253.768C267.666 256.271 266.422 258.739 265.401 261.279C264.346 263.813 263.563 266.453 263.064 269.152L262.492 269.087C262.646 266.268 263.132 263.477 263.94 260.772C264.75 258.073 265.763 255.454 266.762 252.863C268.819 247.757 270.585 242.538 272.052 237.232L273.065 233.252L273.955 229.243L274.722 225.205C274.917 223.881 275.134 222.6 275.221 221.269C275.431 218.598 275.446 215.916 275.265 213.243C275.084 210.551 274.845 207.852 274.454 205.16C273.731 199.755 272.739 194.363 271.56 188.972C270.38 183.581 269.005 178.233 267.37 172.951C265.734 167.668 263.824 162.465 261.74 157.334C259.656 152.204 257.398 147.146 255.089 142.138L251.587 134.598L249.908 130.856L249.033 129.098C248.736 128.512 248.381 127.954 248.077 127.368C246.74 125.098 245.248 122.921 243.612 120.855C241.925 118.775 240.133 116.783 238.243 114.885C230.623 107.236 221.599 100.81 212.373 94.6233L198.413 85.4837C196.083 83.9447 193.787 82.3479 191.524 80.6931C190.381 79.8682 189.274 79.007 188.159 78.1459L186.51 76.8289L184.91 75.5987C180.593 72.4038 175.668 70.1259 170.437 68.9049C165.175 67.7144 159.756 67.3748 154.387 67.8991C149.001 68.4423 143.699 69.6204 138.59 71.4087C136.028 72.3012 133.514 73.3168 131.049 74.4553C128.576 75.5758 126.161 76.8196 123.813 78.1821C121.463 79.5377 119.174 80.985 116.945 82.524C114.784 84.0328 112.779 85.754 110.961 87.6618C109.164 89.5679 107.584 91.6673 106.25 93.9214C104.916 96.1961 103.825 98.6046 102.993 101.107C101.346 106.246 100.34 111.569 99.9976 116.955C99.5489 122.397 99.4766 127.918 99.491 133.454C99.5055 138.99 99.5996 144.555 99.5851 150.098C99.5706 155.641 99.6937 161.148 100.236 166.641C100.758 172.138 101.672 177.592 102.972 182.959C104.296 188.307 106.116 193.521 108.406 198.532C108.696 199.161 109.007 199.776 109.304 200.391C109.6 201.007 109.89 201.636 110.237 202.23C110.91 203.431 111.569 204.639 112.256 205.848C112.944 207.056 113.703 208.171 114.463 209.328C115.223 210.486 116.005 211.601 116.815 212.708L118.031 214.372L118.631 215.204L119.276 216.008L121.852 219.221C122.706 220.284 123.632 221.298 124.522 222.34C124.971 222.853 125.419 223.374 125.853 223.903C126.288 224.431 126.78 224.916 127.236 225.422C128.162 226.435 129.103 227.441 130.007 228.462L132.8 231.646L134.19 233.252C134.646 233.788 135.051 234.367 135.485 234.924L138.047 238.296C141.326 242.889 144.283 247.703 146.897 252.704C149.458 257.71 151.666 262.89 153.504 268.204C155.381 273.487 156.75 278.937 157.593 284.479L157.035 284.544Z" fill="#282828"/>
<path d="M370.323 477.947C357.753 496.103 344.662 531.895 344.662 531.895C361.574 575.313 409.479 568.8 409.646 568.8L455.192 513.601C528.888 422.855 462.508 315.213 442.383 243.427C431.16 203.388 410.036 187.113 390.397 180.55C324.545 189.747 359.149 282.389 365.438 301.941C371.726 321.494 381.496 333.369 389.014 359.052C393.197 373.336 398.132 388.251 402.127 399.88C404.214 405.945 404.872 412.41 404.05 418.772C403.228 425.133 400.948 431.219 397.387 436.554C391.981 444.666 376.821 468.561 370.323 477.947Z" fill="#2B2B2B"/>
<path d="M417.012 196.847C434.228 245.729 431.362 286.68 445.401 322.551C464.259 370.746 476.12 421.763 466.35 446.172C456.581 470.58 433.931 535.376 403.495 544.646C382.885 550.92 365.141 528.262 345.9 528.602C345.104 530.686 344.662 531.895 344.662 531.895C361.574 575.314 409.479 568.801 409.646 568.801L455.192 513.601C528.888 422.856 462.508 315.213 442.383 243.428C436.254 221.588 427.179 206.84 417.012 196.847Z" fill="#161616"/>
<path d="M442.384 243.435C440.782 237.647 438.807 231.969 436.472 226.437C436.349 244.984 442.464 277.092 450.293 305.097C464.86 357.199 483.813 395.886 478.921 424.499C474.029 453.111 468.139 489.106 441.581 516.691C416.977 542.229 414.676 571.862 351.32 544.537C371.582 573.91 409.502 568.808 409.646 568.786L455.193 513.587C528.889 422.863 462.509 315.221 442.384 243.435Z" fill="#111111"/>
<path d="M409.429 566.375H409.392C408.669 566.462 407.844 566.52 407.055 566.57C406.266 566.621 405.441 566.643 404.631 566.657C403.017 566.701 401.389 566.657 399.761 566.607C396.504 566.464 393.258 566.126 390.042 565.594C383.601 564.572 377.346 562.604 371.481 559.754C365.605 556.899 360.313 552.972 355.879 548.175C353.658 545.767 351.676 543.15 349.959 540.36C348.227 537.559 346.721 534.624 345.458 531.582V531.517C344.612 529.797 343.445 528.255 342.021 526.973C341.653 526.654 341.264 526.362 340.856 526.097C340.435 525.846 340 525.619 339.553 525.417C338.634 525.036 337.653 524.823 336.659 524.787C334.729 524.726 332.822 525.229 331.174 526.234C329.559 527.183 328.124 528.408 326.933 529.853C324.601 532.681 323 536.039 322.269 539.631C321.539 543.224 321.702 546.94 322.743 550.455C321.839 546.955 321.816 543.285 322.678 539.774C323.511 536.298 325.195 533.082 327.577 530.417C328.749 529.11 330.14 528.018 331.687 527.19C333.173 526.354 334.87 525.966 336.572 526.075C337.396 526.142 338.202 526.352 338.953 526.698C339.32 526.887 339.678 527.094 340.024 527.32C340.366 527.556 340.69 527.817 340.993 528.101C342.212 529.291 343.194 530.7 343.888 532.255C345.059 535.43 346.487 538.503 348.157 541.446C349.83 544.429 351.788 547.243 354.005 549.847C358.465 555.082 363.865 559.439 369.925 562.692C376 565.943 382.523 568.277 389.282 569.617C392.646 570.309 396.048 570.792 399.471 571.064C401.186 571.202 402.901 571.303 404.631 571.325C405.492 571.325 406.353 571.325 407.221 571.325C408.09 571.325 408.937 571.281 409.899 571.209H409.993C410.147 571.187 410.3 571.153 410.449 571.108C409.942 569.61 409.646 568.785 409.646 568.785C409.646 568.785 407.793 571.021 411.223 566.86C410.712 566.469 410.067 566.295 409.429 566.375V566.375Z" fill="#0C0A09"/>
<path d="M390.433 180.788C386.384 181.471 382.415 182.562 378.586 184.045C374.821 185.512 371.298 187.54 368.137 190.058C365.038 192.582 362.375 195.599 360.257 198.988C358.169 202.395 356.543 206.065 355.423 209.901C354.295 213.762 353.534 217.721 353.15 221.725C352.742 225.757 352.595 229.81 352.709 233.861C352.995 242.011 353.851 250.13 355.271 258.161C358.122 274.377 362.235 290.346 367.573 305.921C368.955 309.786 370.547 313.585 372.291 317.319C374.035 321.053 375.909 324.743 377.689 328.463C381.307 335.909 384.832 343.435 387.574 351.287L388.631 354.218L389.615 357.177C390.288 359.16 390.874 361.114 391.525 363.082C392.794 367.004 394.104 370.914 395.455 374.812C398.183 382.606 400.868 390.407 403.965 398.063C404.363 398.997 404.754 400.039 405.137 401.059C405.521 402.079 405.825 403.143 406.136 404.2C406.447 405.256 406.707 406.371 406.859 407.427L407.156 409.063L407.373 410.713C407.885 415.16 407.64 419.662 406.65 424.028C405.618 428.4 403.891 432.578 401.533 436.402L400.614 437.806L400.151 438.493L399.71 439.116L397.966 441.648L394.348 446.678C391.931 450.028 389.492 453.371 387.111 456.751C384.73 460.13 382.378 463.531 380.034 466.947C377.689 470.363 375.33 473.757 372.913 477.136C371.683 478.844 370.503 480.458 369.382 482.158C368.26 483.859 367.167 485.588 366.125 487.354C361.935 494.402 358.209 501.769 354.684 509.23C351.16 516.691 347.926 524.289 344.879 531.967L344.488 531.822C347.209 524.007 350.22 516.3 353.353 508.665C356.486 501.031 359.866 493.425 363.773 486.059C364.736 484.213 365.771 482.397 366.827 480.588C367.884 478.779 369.063 476.97 370.163 475.298C372.385 471.839 374.563 468.329 376.734 464.82C378.905 461.31 381.076 457.778 383.145 454.218C385.215 450.658 387.285 447.054 389.362 443.472L392.502 438.11L394.123 435.44L394.536 434.767L394.89 434.144L395.614 432.921C397.444 429.609 398.847 426.079 399.789 422.414C401.802 414.933 401.742 407.046 399.616 399.597C397.358 391.637 394.84 383.742 392.56 375.782C391.412 371.802 390.281 367.82 389.166 363.835C388.602 361.845 388.088 359.826 387.516 357.857L386.67 354.898L385.751 351.96C385.143 349.991 384.412 348.074 383.732 346.134C383.051 344.195 382.284 342.285 381.481 340.389C380.678 338.493 379.889 336.597 379.057 334.708C378.225 332.819 377.327 330.967 376.437 329.107C374.657 325.38 372.819 321.668 371.111 317.905C369.403 314.142 367.688 310.343 366.27 306.442C364.852 302.542 363.527 298.627 362.153 294.719C360.778 290.812 359.446 286.889 358.187 282.938C355.629 275.024 353.492 266.981 351.783 258.841C350.979 254.745 350.263 250.635 349.8 246.474C349.293 242.312 349.01 238.125 348.953 233.933C348.882 229.72 349.09 225.506 349.576 221.32C350.076 217.105 350.985 212.949 352.289 208.909C353.599 204.833 355.482 200.963 357.883 197.418C360.291 193.869 363.301 190.768 366.777 188.256C370.23 185.796 374.053 183.901 378.102 182.641C382.102 181.415 386.23 180.655 390.404 180.376L390.433 180.788Z" fill="#0C0A09"/>
<path d="M110.222 375.797C115.288 380.32 116.424 380.906 116.475 380.928C116.573 380.979 116.659 381.051 116.728 381.138C118.715 379.746 120.971 378.785 123.351 378.314C125.73 377.843 128.182 377.873 130.549 378.402C126.019 346.562 124.247 333.225 125.889 315.221C125.954 314.497 126.012 313.773 126.077 313.1C126.077 312.811 126.128 312.543 126.15 312.261C126.186 311.87 126.222 311.465 126.251 311.081C126.28 310.698 126.316 310.358 126.345 309.967C126.374 309.576 126.389 309.41 126.41 309.142C126.432 308.874 126.468 308.418 126.49 308.1L126.555 307.282C126.555 306.928 126.598 306.559 126.627 306.233L126.671 305.509C126.671 305.162 126.714 304.786 126.729 304.482L126.772 303.794L126.815 302.825C126.815 302.6 126.815 302.376 126.815 302.152C126.815 301.927 126.815 301.515 126.815 301.196C126.815 300.986 126.815 300.777 126.815 300.574C126.815 300.256 126.815 299.944 126.815 299.633C126.815 299.438 126.815 299.235 126.815 299.04C126.815 298.736 126.815 298.439 126.815 298.143C126.815 297.846 126.815 297.752 126.815 297.564C126.815 297.267 126.815 296.985 126.815 296.695V296.124L126.772 295.284C126.772 295.096 126.772 294.908 126.772 294.72C126.772 294.532 126.729 294.177 126.7 293.902C126.671 293.627 126.7 293.54 126.649 293.352C126.598 293.164 126.591 292.824 126.562 292.556C126.533 292.288 126.519 292.194 126.49 292.013C126.461 291.832 126.417 291.492 126.374 291.232C126.331 290.971 126.323 290.87 126.294 290.689C126.266 290.508 126.2 290.182 126.15 289.929C126.15 289.792 126.099 289.661 126.077 289.524C125.933 289.589 103.29 299.539 103.369 373.054C105.613 372.374 107.205 373.112 110.222 375.797Z" fill="#232323"/>
<path d="M110.224 375.797C115.289 380.32 116.425 380.906 116.476 380.928C116.574 380.979 116.66 381.051 116.729 381.137C118.717 379.746 120.972 378.785 123.352 378.314C125.732 377.843 128.183 377.873 130.551 378.402C126.021 346.562 124.248 333.225 125.89 315.221C125.956 314.497 126.013 313.773 126.079 313.1C126.079 312.811 126.129 312.543 126.151 312.261C126.187 311.87 126.223 311.465 126.252 311.081C126.281 310.698 126.317 310.358 126.346 309.967C126.375 309.576 126.39 309.41 126.411 309.142C126.433 308.874 126.469 308.418 126.491 308.1L126.556 307.282C126.556 306.928 126.6 306.559 126.629 306.233L126.672 305.509C126.672 305.162 126.715 304.786 126.73 304.482L126.773 303.794L126.817 302.825C126.817 302.6 126.817 302.376 126.817 302.152C126.817 301.927 126.817 301.515 126.817 301.196C126.817 300.986 126.817 300.777 126.817 300.574C126.817 300.256 126.817 299.944 126.817 299.633C126.817 299.438 126.817 299.235 126.817 299.04C126.817 298.736 126.817 298.439 126.817 298.143C126.817 297.846 126.817 297.752 126.817 297.564C126.817 297.375 126.817 297.412 126.817 297.332C117.909 320.445 123.806 346.453 123.539 364.161C123.329 378.105 110.781 369.458 103.429 363.177C103.337 366.332 103.291 369.624 103.291 373.054C105.614 372.374 107.206 373.112 110.224 375.797Z" fill="#161616"/>
<path d="M130.44 378.416C129.586 375.117 128.928 371.781 128.32 368.437C127.712 365.094 127.191 361.736 126.8 358.357C126.409 354.978 126.228 351.584 125.946 348.19C125.664 344.796 125.389 341.416 125.222 338.015C125.056 334.614 124.911 331.22 124.853 327.819C124.796 324.418 124.767 320.995 124.94 317.587C125.411 310.785 126.388 304.113 126.793 297.325H127.01C127.331 300.721 127.398 304.136 127.213 307.543C127.075 310.944 126.778 314.345 126.489 317.674C126.199 321.002 125.845 324.404 125.765 327.805C125.686 331.206 125.845 334.571 126.084 337.936C126.322 341.301 126.699 344.68 127.155 348.067C127.611 351.453 128.247 354.761 128.739 358.111C129.231 361.461 129.615 364.834 129.955 368.242C130.295 371.65 130.577 375.008 130.679 378.416H130.44Z" fill="#0C0A09"/>
<path d="M152.649 390.862C159.41 388.951 166.596 389.179 173.223 391.513C176.641 392.747 179.814 394.577 182.594 396.919C185.384 399.301 187.806 402.083 189.78 405.176C193.76 411.341 196.104 418.317 197.588 425.3C198.319 428.789 198.872 432.313 199.245 435.858C199.607 439.385 199.829 442.914 199.911 446.445C200.068 460.446 198.971 474.432 196.633 488.236L194.961 498.367C194.425 501.696 193.854 505.017 193.354 508.346L191.842 518.325L190.445 528.283C189.57 534.918 188.774 541.547 188.13 548.154C187.761 551.461 187.58 554.761 187.247 558.053L186.523 567.902C185.691 581.022 184.946 594.019 184.692 607.283L184.577 617.277L184.533 622.299L184.461 627.364C184.417 630.722 184.316 634.13 184.237 637.495L184.193 638.942C184.193 639.492 184.157 640.057 184.121 640.621C184.056 641.75 183.925 642.93 183.759 644.124C183.376 646.813 182.628 649.437 181.537 651.925C180.869 653.416 180.042 654.83 179.07 656.144C177.978 657.609 176.687 658.914 175.234 660.022C173.745 661.151 172.096 662.054 170.343 662.7C168.737 663.284 167.064 663.661 165.364 663.821C162.559 664.05 159.736 663.806 157.013 663.098C154.77 662.528 152.589 661.741 150.5 660.746C146.804 658.999 143.311 656.849 140.087 654.334C137.036 652.037 134.154 649.524 131.461 646.816C126.247 641.534 121.582 635.737 117.538 629.513C113.479 623.319 110.084 616.714 107.407 609.808C106.051 606.32 104.915 602.751 104.006 599.12C103.061 595.453 102.372 591.724 101.943 587.962C101.026 580.288 101.363 572.515 102.942 564.95C103.746 561.143 104.881 557.414 106.336 553.806C107.806 550.223 109.57 546.77 111.611 543.479C113.652 540.248 115.93 537.173 118.428 534.282C119.029 533.558 119.695 532.834 120.302 532.176L121.945 530.396C123.031 529.202 124.116 527.986 125.187 526.777C133.84 516.838 141.74 506.268 148.821 495.154C156.037 483.958 162.611 472.361 168.512 460.419C174.359 448.443 179.699 436.155 183.636 423.513C185.666 417.246 187.179 410.822 188.159 404.307C188.622 401.131 188.797 397.92 188.68 394.712C188.535 391.586 187.956 388.489 186.632 386.028C185.983 384.814 185.064 383.764 183.947 382.96C182.778 382.151 181.438 381.621 180.032 381.411C177.08 380.926 173.787 381.411 170.625 382.301C167.422 383.251 164.302 384.461 161.297 385.92C158.25 387.367 155.276 389.024 152.353 390.761C157.737 386.614 163.359 382.663 169.836 379.978C173.071 378.683 176.573 377.641 180.408 377.808C182.426 377.892 184.394 378.451 186.155 379.439C187.915 380.427 189.417 381.817 190.539 383.495C191.631 385.098 192.485 386.85 193.072 388.698C193.641 390.462 194.059 392.27 194.324 394.104C194.799 397.663 194.945 401.258 194.758 404.843C194.382 411.842 193.414 418.797 191.864 425.633C190.359 432.428 188.484 439.108 186.371 445.7C184.258 452.292 181.899 458.805 179.301 465.238C176.703 471.672 173.925 477.982 170.95 484.234C167.976 490.487 164.821 496.659 161.434 502.716C154.675 514.975 146.987 526.699 138.437 537.784C137.337 539.166 136.23 540.548 135.072 541.902L131.873 545.664C129.973 547.951 128.237 550.369 126.678 552.901C125.118 555.366 123.76 557.953 122.618 560.637C121.459 563.293 120.527 566.043 119.832 568.857C118.43 574.565 117.987 580.466 118.522 586.319C118.797 589.311 119.292 592.279 120.006 595.198C120.744 598.148 121.668 601.048 122.77 603.882C127.354 615.395 134.51 625.707 143.691 634.029C145.906 636.014 148.259 637.84 150.732 639.492C152.997 641.001 155.425 642.251 157.968 643.219C158.983 643.582 160.033 643.839 161.102 643.986C161.688 644.11 162.297 644.078 162.867 643.892C162.961 643.834 162.932 643.776 162.809 643.776C162.636 643.785 162.466 643.83 162.31 643.907C162.19 643.974 162.067 644.034 161.941 644.088C161.876 644.088 161.869 644.008 161.89 643.834C161.995 643.144 162.05 642.448 162.057 641.75C162.057 641.258 162.057 640.744 162.013 640.173C162.013 639.89 162.013 639.608 161.948 639.304L161.847 638.212L161.42 633.146C161.27 631.453 161.143 629.75 161.036 628.037L160.689 622.914L160.45 617.754C160.262 614.324 160.211 610.851 160.11 607.384C159.663 593.361 160.35 579.325 162.165 565.413C163.135 558.473 164.336 551.591 165.784 544.782C167.231 537.972 168.729 531.221 170.343 524.52L172.854 514.49L175.524 504.54L181.074 484.907C182.811 478.503 184.388 472.062 185.72 465.586C187.047 459.142 188.047 452.636 188.716 446.091C189.005 442.834 189.23 439.578 189.317 436.314C189.39 433.077 189.301 429.838 189.049 426.61C188.801 423.414 188.317 420.241 187.601 417.116C186.919 414.024 185.91 411.014 184.591 408.136C182.014 402.299 177.593 397.469 172.007 394.386C169.104 392.848 165.979 391.774 162.744 391.202C159.415 390.585 156.012 390.47 152.649 390.862V390.862Z" fill="#333333"/>
<path d="M161.942 644.023C161.857 644.035 161.776 644.065 161.703 644.11C161.629 644.154 161.566 644.213 161.515 644.283C161.465 644.37 161.472 644.479 161.515 644.515C161.559 644.551 161.732 644.406 161.783 644.312C161.834 644.218 161.827 644.204 161.841 644.269L162.087 643.907C162.145 643.907 162.282 643.856 162.304 643.719C162.303 643.669 162.29 643.62 162.266 643.576C162.242 643.532 162.208 643.494 162.167 643.465C162.062 643.391 161.94 643.346 161.812 643.335H161.863C161.828 643.312 161.788 643.3 161.747 643.3C161.706 643.3 161.666 643.312 161.631 643.335C161.572 643.366 161.521 643.41 161.48 643.462C161.439 643.514 161.409 643.575 161.392 643.639C161.372 643.702 161.372 643.77 161.391 643.833C161.411 643.897 161.449 643.953 161.501 643.994C161.567 644.033 161.641 644.056 161.718 644.061C161.795 644.066 161.872 644.053 161.942 644.023V644.023ZM162.08 644.023C162.141 644.005 162.207 644.002 162.27 644.014C162.333 644.027 162.392 644.055 162.442 644.095C162.486 644.147 162.515 644.211 162.525 644.279C162.535 644.346 162.526 644.416 162.5 644.479C162.475 644.548 162.437 644.612 162.387 644.667C162.338 644.722 162.277 644.766 162.21 644.797C162.167 644.82 162.118 644.833 162.069 644.833C162.02 644.833 161.971 644.82 161.928 644.797H161.979C161.842 644.782 161.71 644.735 161.595 644.659C161.55 644.628 161.511 644.587 161.483 644.539C161.454 644.492 161.436 644.439 161.429 644.384C161.438 644.329 161.461 644.278 161.495 644.233C161.529 644.189 161.573 644.154 161.624 644.131L161.87 643.769C161.906 643.842 161.921 643.842 162 643.769C162.08 643.697 162.239 643.531 162.34 643.567C162.362 643.575 162.382 643.588 162.398 643.605C162.415 643.621 162.428 643.641 162.437 643.663C162.445 643.684 162.45 643.707 162.449 643.731C162.449 643.754 162.444 643.777 162.434 643.798C162.398 643.834 162.311 643.921 162.058 643.986L162.08 644.023Z" fill="black"/>
<path d="M131.463 646.817C134.145 649.539 137.018 652.066 140.06 654.379C143.286 656.896 146.781 659.048 150.48 660.797C152.569 661.792 154.75 662.58 156.993 663.149C159.716 663.857 162.539 664.102 165.344 663.873C167.044 663.712 168.717 663.335 170.322 662.751C172.076 662.105 173.725 661.203 175.214 660.074C176.667 658.966 177.958 657.66 179.05 656.195C180.022 654.882 180.849 653.467 181.517 651.976C182.621 649.481 183.378 646.847 183.768 644.146C183.934 642.952 184.064 641.773 184.13 640.644C184.13 640.079 184.195 639.515 184.202 638.965L184.245 637.518C184.325 634.131 184.426 630.723 184.47 627.387L184.542 622.321L184.585 617.299L184.701 607.306C184.955 594.041 185.7 581.044 186.532 567.925L187.256 558.076C187.589 554.783 187.77 551.483 188.139 548.176C188.783 541.569 189.586 534.941 190.454 528.305L191.851 518.348L193.363 508.369C193.863 505.04 194.434 501.718 194.97 498.39L196.641 488.258C198.548 476.786 199.638 465.193 199.905 453.567C194.347 470.138 186.344 496.986 183.811 520.75C179.802 558.438 180.917 632.915 177.523 643.77C174.129 654.625 161.602 661.919 143.294 650.059C124.986 638.198 106.736 603.079 106.236 580.408C105.874 563.814 120.405 539.739 126.498 525.295C126.064 525.794 125.644 526.301 125.21 526.793C124.132 528.016 123.039 529.231 121.968 530.411L120.326 532.191C119.718 532.864 119.052 533.573 118.451 534.297C115.953 537.189 113.675 540.263 111.635 543.494C109.587 546.779 107.815 550.229 106.338 553.806C104.873 557.416 103.727 561.148 102.915 564.958C101.336 572.523 100.998 580.296 101.916 587.97C102.344 591.732 103.033 595.461 103.978 599.128C104.888 602.759 106.024 606.328 107.38 609.817C110.056 616.722 113.452 623.327 117.511 629.521C121.564 635.744 126.239 641.538 131.463 646.817V646.817Z" fill="#282828"/>
<path d="M173.636 511.371L172.811 514.468L170.3 524.52C168.687 531.228 167.138 537.972 165.741 544.782C164.345 551.591 163.107 558.473 162.123 565.413C160.308 579.325 159.621 593.361 160.068 607.384C160.169 610.851 160.22 614.324 160.408 617.754L160.647 622.914L160.994 628.037C161.095 629.755 161.223 631.458 161.378 633.146L161.805 638.212L161.906 639.304C161.906 639.608 161.957 639.891 161.971 640.173C162.014 640.745 162.014 641.258 162.014 641.75C162.007 642.441 161.951 643.13 161.848 643.813C161.831 643.882 161.831 643.954 161.848 644.023C161.582 644.019 161.316 644 161.052 643.965C159.984 643.818 158.934 643.561 157.919 643.198C155.375 642.229 152.948 640.979 150.682 639.471C148.209 637.818 145.856 635.992 143.641 634.007C134.46 625.685 127.304 615.373 122.721 603.86C121.618 601.026 120.695 598.126 119.956 595.177C119.775 594.453 119.609 593.729 119.457 592.969C118.299 598.274 120.861 606.9 121.483 609.215C123.365 616.206 136.318 638.205 149.43 644.081C162.543 649.957 165.517 648.886 167.145 639.174C168.773 629.463 163.382 597.608 167.145 563.235C169.019 546.569 171.53 527.074 173.636 511.371ZM162.839 643.856C162.579 643.968 162.297 644.02 162.014 644.008C162.101 643.958 162.191 643.912 162.282 643.871C162.438 643.794 162.608 643.749 162.782 643.74C162.905 643.74 162.934 643.798 162.839 643.856Z" fill="#4C4C4C"/>
<path d="M198.963 430.36C198.132 424.587 196.654 418.926 194.556 413.485C194.613 413.065 194.679 412.652 194.729 412.233C195.282 408.183 195.524 404.097 195.453 400.01C195.402 395.887 194.668 391.801 193.282 387.918C192.569 385.972 191.542 384.156 190.243 382.542C188.937 380.926 187.275 379.636 185.387 378.771C183.495 377.931 181.443 377.514 179.373 377.548C177.322 377.566 175.283 377.87 173.317 378.453C169.4 379.625 165.642 381.275 162.129 383.366C158.613 385.436 155.229 387.722 151.998 390.212C151.859 390.308 151.763 390.455 151.733 390.622C151.702 390.788 151.739 390.959 151.835 391.099C151.931 391.238 152.078 391.333 152.245 391.364C152.411 391.394 152.582 391.357 152.722 391.261V391.261L153.083 391.059C156.606 390.75 160.155 391.034 163.583 391.898C167.118 392.706 170.481 394.132 173.519 396.11C176.499 398.14 179.089 400.69 181.168 403.636C183.236 406.624 184.869 409.892 186.017 413.34V413.34C186.072 413.47 186.175 413.574 186.306 413.629C183.387 424.876 179.514 435.852 174.728 446.439C169.964 457.208 164.651 467.724 158.807 477.947C152.972 488.172 146.61 498.088 139.747 507.653C136.288 512.443 132.674 517.101 128.906 521.626C127.025 523.891 125.107 526.113 123.117 528.291C122.152 529.391 121.161 530.481 120.143 531.562C119.159 532.662 118.146 533.733 117.205 534.898C115.295 537.171 113.519 539.553 111.886 542.033C110.268 544.526 108.805 547.117 107.508 549.791C104.927 555.15 103.073 560.83 101.994 566.681C99.823 578.396 100.836 590.561 104.1 601.951C107.456 613.354 112.73 624.102 119.694 633.734C123.128 638.57 126.955 643.116 131.135 647.324C135.316 651.55 139.968 655.282 145 658.446C147.527 660.009 150.192 661.339 152.96 662.419C155.761 663.502 158.707 664.161 161.702 664.373C164.718 664.581 167.744 664.149 170.581 663.106C173.417 662.024 175.958 660.289 177.999 658.041C180.016 655.807 181.571 653.195 182.572 650.356C183.572 647.542 184.173 644.602 184.359 641.621C184.446 640.898 184.482 640.174 184.511 639.392C184.54 638.611 184.548 637.945 184.569 637.222L184.649 632.8L184.794 623.957L184.953 606.278C185.069 600.388 185.286 594.497 185.561 588.614C186.132 576.841 186.813 565.074 187.891 553.337L188.289 548.937C188.419 547.489 188.622 546.042 188.788 544.551L189.823 535.774C190.185 532.879 190.481 529.919 190.887 527.003L192.131 518.247L193.47 509.513L194.881 500.785C195.807 494.996 196.864 489.171 197.718 483.331C199.488 471.651 200.362 459.852 200.33 448.039C200.298 442.121 199.841 436.213 198.963 430.36V430.36ZM159.278 604.477C159.35 608.891 159.553 613.291 159.676 617.705C159.799 622.119 160.139 626.497 160.486 630.897C160.645 633.068 160.841 635.297 161.022 637.489C161.101 638.589 161.253 639.66 161.275 640.746C161.315 641.273 161.315 641.803 161.275 642.331L161.21 643.112V643.199C160.25 643.069 159.305 642.846 158.388 642.533C157.223 642.128 156.087 641.644 154.987 641.086C152.755 639.931 150.624 638.59 148.618 637.077C144.588 634.028 140.892 630.562 137.59 626.736C130.906 619.096 125.734 610.255 122.35 600.685C119 591.161 117.936 580.763 119.977 570.863C120.471 568.395 121.148 565.966 122.003 563.598C122.873 561.225 123.898 558.911 125.071 556.673C126.267 554.444 127.586 552.285 129.022 550.203C130.475 548.125 132.041 546.127 133.711 544.219C135.369 542.294 136.968 540.289 138.582 538.299C140.195 536.309 141.708 534.247 143.206 532.184C146.211 528.045 149.086 523.821 151.831 519.513C154.589 515.171 157.215 510.83 159.748 506.394C162.281 501.958 164.72 497.471 167.035 492.919C171.659 483.809 175.828 474.481 179.612 465.001C181.503 460.264 183.262 455.473 184.888 450.629C186.255 446.657 187.399 442.619 188.578 438.595C188.491 439.905 188.405 441.208 188.325 442.517L188.115 445.795C188.021 446.888 187.898 447.966 187.768 449.066C187.247 453.408 186.552 457.75 185.734 462.092C184.917 466.434 183.954 470.689 182.919 474.958C181.884 479.228 180.785 483.468 179.554 487.702C177.159 496.168 174.699 504.621 172.455 513.145C171.884 515.273 171.377 517.415 170.827 519.549C170.277 521.684 169.72 523.797 169.293 525.968L166.398 538.864C165.921 541.035 165.414 543.162 164.951 545.319C164.488 547.475 164.083 549.66 163.678 551.831C162.867 556.173 162.143 560.515 161.507 564.857C160.292 573.606 159.582 582.418 159.379 591.248C159.22 595.655 159.213 600.07 159.278 604.477ZM188.014 402.5C186.263 399.849 184.113 397.486 181.638 395.495C178.961 393.36 175.925 391.718 172.672 390.646C169.423 389.598 166.02 389.109 162.607 389.199C159.912 389.268 157.23 389.591 154.596 390.162C158.687 387.816 162.957 385.801 167.368 384.134C169.872 383.165 172.477 382.481 175.133 382.093C177.745 381.76 180.495 381.818 182.746 382.983C184.996 384.148 186.465 386.456 187.218 388.975C187.933 391.567 188.284 394.246 188.26 396.935C188.267 398.773 188.18 400.64 188.014 402.5ZM174.264 394.916C172.665 393.904 170.968 393.056 169.199 392.383C167.437 391.724 165.621 391.221 163.772 390.878C161.145 390.416 158.476 390.244 155.812 390.364C158.034 389.972 160.295 389.838 162.549 389.966C165.845 390.158 169.099 390.796 172.224 391.862C175.35 392.892 178.303 394.39 180.98 396.305C183.546 398.2 185.885 400.386 187.949 402.818C187.833 404.128 187.674 405.438 187.493 406.747C187.391 407.203 187.297 407.667 187.189 408.115C186.957 409.186 186.69 410.25 186.422 411.314C185.461 408.304 184.083 405.444 182.326 402.818C180.224 399.652 177.483 396.96 174.279 394.916H174.264ZM197.052 483.201C196.213 488.99 195.178 494.837 194.273 500.662L192.891 509.397L191.581 518.138L190.366 526.902C189.968 529.796 189.678 532.756 189.331 535.68L188.318 544.465C188.159 545.912 187.963 547.359 187.833 548.864L187.449 553.271C185.416 576.761 184.215 600.308 184.178 623.921L183.976 632.757L183.867 637.171C183.867 637.895 183.831 638.618 183.795 639.342C183.759 640.065 183.723 640.789 183.628 641.513C183.433 644.424 182.829 647.294 181.834 650.037C180.852 652.767 179.34 655.276 177.383 657.419C175.417 659.539 172.98 661.17 170.27 662.18C167.548 663.158 164.651 663.55 161.767 663.331C155.978 662.947 150.486 660.494 145.536 657.455C140.595 654.31 136.035 650.604 131.946 646.412C127.827 642.281 124.056 637.818 120.671 633.068C113.812 623.534 108.622 612.905 105.323 601.633C102.095 590.394 101.053 578.476 103.152 566.898C105.301 555.34 110.441 544.547 118.059 535.593C118.985 534.457 119.977 533.422 120.953 532.293C121.93 531.164 122.944 530.122 123.92 529.015C125.903 526.82 127.833 524.581 129.71 522.299C133.487 517.755 137.069 513.058 140.499 508.253C147.329 498.622 153.653 488.641 159.444 478.352C162.339 473.214 165.106 468.004 167.744 462.722C170.383 457.439 172.856 452.084 175.162 446.657C179.846 436.012 183.613 424.987 186.422 413.702C186.549 413.717 186.677 413.684 186.78 413.608C186.883 413.533 186.954 413.422 186.979 413.296C187.312 411.61 187.616 409.91 187.869 408.231C187.927 407.818 187.97 407.399 188.021 406.979C188.137 406.378 188.253 405.778 188.361 405.177C188.823 402.453 189.109 399.703 189.215 396.942C189.351 394.141 189.065 391.336 188.368 388.62C188.003 387.227 187.414 385.902 186.624 384.698C185.811 383.451 184.699 382.426 183.39 381.717C182.085 381.037 180.658 380.626 179.193 380.508C177.771 380.373 176.339 380.397 174.923 380.58C172.147 380.989 169.427 381.717 166.818 382.751C164.712 383.562 162.664 384.481 160.645 385.472C161.29 385.045 161.926 384.618 162.578 384.206C164.279 383.128 166.038 382.142 167.846 381.253C169.643 380.349 171.515 379.598 173.44 379.01C175.358 378.415 177.351 378.094 179.359 378.055C181.355 378.004 183.335 378.413 185.148 379.249C186.948 380.108 188.511 381.395 189.7 382.997C190.884 384.599 191.798 386.383 192.406 388.28C193.579 392.095 194.177 396.063 194.179 400.054C194.24 404.081 194.037 408.109 193.571 412.11C193.304 414.527 192.964 416.944 192.58 419.346C192.262 421.121 191.914 422.89 191.538 424.65C191.125 426.525 190.612 428.377 190.156 430.244L188.752 435.824C188.745 435.867 188.745 435.911 188.752 435.954C188.716 436.634 188.672 437.322 188.636 438.002C183.122 456.911 175.386 475.096 166.449 492.608C161.782 501.668 156.658 510.497 151.151 519.065C148.387 523.344 145.492 527.536 142.467 531.642C140.962 533.697 139.414 535.716 137.843 537.713C136.273 539.71 134.638 541.65 132.952 543.582C131.251 545.503 129.659 547.518 128.183 549.617C126.708 551.724 125.355 553.913 124.13 556.173C122.92 558.448 121.861 560.8 120.961 563.214C120.072 565.637 119.361 568.12 118.833 570.646C117.791 575.704 117.481 580.885 117.914 586.031C118.354 591.171 119.428 596.236 121.113 601.112C122.788 605.981 124.943 610.671 127.546 615.114C130.131 619.567 133.13 623.766 136.505 627.655C139.87 631.562 143.639 635.101 147.75 638.213C149.82 639.775 152.018 641.16 154.321 642.352C155.489 642.958 156.698 643.483 157.939 643.923C159.14 644.35 160.394 644.613 161.666 644.704C161.765 644.744 161.871 644.761 161.977 644.755L162.194 644.711H162.57L162.86 644.653C163.016 644.62 163.163 644.556 163.294 644.465C163.386 644.404 163.465 644.326 163.526 644.234C163.585 644.147 163.625 644.049 163.645 643.945C163.665 643.842 163.664 643.736 163.641 643.633C163.59 643.432 163.463 643.258 163.287 643.148C163.174 643.083 163.048 643.044 162.918 643.032H162.693L162.744 642.41C162.787 641.842 162.787 641.271 162.744 640.702C162.744 640.138 162.686 639.559 162.635 639.009L162.498 637.374C162.31 635.203 162.122 632.988 161.963 630.803C161.622 626.461 161.347 622.032 161.166 617.64C160.986 613.247 160.855 608.855 160.783 604.469C160.711 600.084 160.732 595.684 160.848 591.299C161.058 582.516 161.756 573.751 162.939 565.045C163.547 560.703 164.252 556.361 165.052 552.019C165.453 549.863 165.873 547.709 166.312 545.557C166.768 543.386 167.26 541.266 167.759 539.117L170.654 526.25C171.109 524.08 171.696 521.974 172.209 519.839C172.723 517.704 173.251 515.562 173.816 513.442C176.037 504.939 178.483 496.472 180.857 487.999C183.23 479.525 185.344 470.942 186.972 462.266C187.775 457.924 188.419 453.582 188.947 449.168C189.078 448.075 189.201 446.997 189.287 445.875L189.483 442.561C189.606 440.39 189.758 438.219 189.852 436.048L191.227 430.49C191.683 428.609 192.182 426.749 192.587 424.86C192.992 422.972 193.362 420.989 193.694 419.071C193.926 417.877 194.136 416.676 194.324 415.453C196.091 420.329 197.368 425.369 198.138 430.498C199.04 436.302 199.523 442.165 199.585 448.039C199.651 459.816 198.809 471.582 197.067 483.23L197.052 483.201Z" fill="black"/>
<path d="M25.9541 439.767C21.5471 446.953 14.6724 455.615 9.38258 450.701C0.915919 442.843 5.14924 415.026 15.425 405.351C20.7221 400.365 24.5213 401.269 26.9599 403.303C25.7659 401.067 24.3186 399.446 22.6832 398.7C19.065 397.05 14.9908 398.527 12.0384 400.205C9.5056 403.766 6.87876 407.587 5.14924 411.4C-0.900437 424.701 -1.50106 442.843 2.72504 450.701C2.85529 450.933 2.97108 451.157 3.08686 451.425C13.8258 462.403 21.0622 452.113 25.9541 439.767Z" fill="black"/>
<path d="M15.4251 405.351C5.14931 415.026 0.915983 442.843 9.38264 450.702C14.6725 455.615 21.5471 446.953 25.9541 439.767C26.2364 439.044 26.5186 438.32 26.7863 437.596C22.1333 445.679 16.5323 452.742 12.4002 449.5C3.94082 442.85 9.38264 414.425 18.4499 406.566C22.7412 402.847 25.9541 403.867 28.1396 405.98C27.8038 405.066 27.4099 404.174 26.96 403.31C24.5213 401.269 20.7222 400.365 15.4251 405.351Z" fill="#191919"/>
<path d="M26.3087 389.632C22.8714 389.632 19.6367 391.622 16.6408 394.633C19.9045 393.772 23.9207 394.112 28.7257 396.883C34.0445 399.952 36.0345 408.939 35.3688 419.258L35.3254 419.939C33.9287 438.413 24.145 460.788 9.65039 461.244C11.1471 462.294 12.7593 463.168 14.4554 463.849C28.5954 458.864 32.3584 453.718 39.0087 422.283C45.659 390.848 26.3087 389.632 26.3087 389.632Z" fill="black"/>
<path d="M28.7259 396.884C23.9209 394.113 19.9046 393.773 16.641 394.634C14.9596 396.364 13.4205 398.228 12.0386 400.206C14.9911 398.527 19.058 397.051 22.6834 398.701C24.3189 399.424 25.7662 401.067 26.9602 403.303C27.41 404.167 27.804 405.059 28.1397 405.973C30.81 413.137 31.3382 424.122 28.1397 433.769C27.7128 435.042 27.2713 436.323 26.801 437.589C26.5332 438.313 26.251 439.037 25.9688 439.76C21.0769 452.106 13.8405 462.396 3.10156 451.382C5.14948 455.391 5.79353 458.445 9.66504 461.238C24.138 460.782 33.9434 438.407 35.34 419.932L35.3834 419.252C36.0347 408.94 34.0447 399.953 28.7259 396.884Z" fill="#282828"/>
<path d="M28.1391 405.972C25.9682 403.859 22.7407 402.839 18.4495 406.558C9.38222 414.417 3.9404 442.842 12.3998 449.492C16.5318 452.734 22.1329 445.672 26.7859 437.588C27.2563 436.322 27.6977 435.041 28.1246 433.768C31.3376 424.121 30.8094 413.136 28.1391 405.972Z" fill="#181821"/>
<path d="M58.3589 404.75L55.3341 398.092C50.4929 389.025 34.7753 389.633 26.3086 389.633C26.3086 389.633 45.6589 390.841 39.0086 422.284C32.3583 453.726 28.5953 458.864 14.4336 463.85C17.8275 465.297 22.5529 466.745 29.3118 468.235C49.4581 472.765 54.0749 467.657 55.0591 465.818C55.1459 465.616 55.2328 465.42 55.3124 465.211C70.451 425.909 58.3589 404.75 58.3589 404.75Z" fill="#333333"/>
<path d="M145.522 463.85C157.52 434.976 158.128 418.651 149.054 409.576C142.91 403.432 128.792 396.985 120.253 393.461C120.32 395.747 119.7 398 118.472 399.93C113.407 407.76 105.555 399.93 101.004 391.442C101.004 391.442 89.1937 390.834 94.6356 401.717C98.2538 407.76 96.4519 410.785 96.4519 410.785C96.4519 410.785 112.676 413.925 118.472 421.422C124.269 428.919 126.548 450.245 117.85 458.936C109.152 467.627 102.494 473.069 78.918 469.436C83.6072 476.296 93.6876 484.633 106.243 491.645C106.337 491.652 133.539 492.68 145.522 463.85Z" fill="#333333"/>
<path d="M178.702 447.091C184.144 434.391 175.084 419.274 169.627 415.04C164.171 410.807 171.444 405.365 165.944 400.502C160.444 395.639 150.885 389.648 138.091 381.586C125.297 373.525 116.186 381.586 116.186 381.586C116.186 381.586 120.202 387.325 120.268 393.483C128.77 397.007 142.925 403.455 149.069 409.599C158.143 418.666 157.535 434.991 145.537 463.872C133.539 492.753 106.316 491.675 106.258 491.675C115.058 496.611 124.439 500.433 134.183 503.05C158.585 509.397 173.246 459.769 178.702 447.091Z" fill="black"/>
<path d="M28.1394 405.973C26.0988 404.005 23.1752 402.991 19.311 405.872L8.41284 431.894C8.14802 434.43 8.11654 436.986 8.31877 439.528L29.9486 413.535C29.624 410.956 29.0174 408.42 28.1394 405.973V405.973Z" fill="#727272"/>
<path d="M30.1521 423.811L9.75977 445.809C10.0878 446.595 10.5055 447.341 11.0044 448.031L26.3096 438.406L26.7872 437.589C27.2575 436.322 27.699 435.042 28.1259 433.768C29.1814 430.538 29.8613 427.196 30.1521 423.811V423.811Z" fill="#727272"/>
<path d="M118.474 421.43C112.685 413.933 96.4535 410.792 96.4535 410.792C96.4535 410.792 85.5988 408.375 75.2869 405.958L58.3608 404.75C58.3608 404.75 70.4529 425.909 55.3359 465.211L78.9196 469.444C102.496 473.062 109.146 467.628 117.852 458.944C126.557 450.26 124.263 428.934 118.474 421.43Z" fill="black"/>
<path d="M122.519 403.997L120.905 406.638C120.821 406.777 120.765 406.931 120.741 407.091C120.716 407.251 120.724 407.415 120.763 407.572C120.802 407.73 120.871 407.878 120.968 408.008C121.064 408.138 121.186 408.248 121.325 408.332L133.062 415.293C133.209 415.382 133.374 415.439 133.545 415.459C133.715 415.48 133.888 415.464 134.053 415.413C134.217 415.361 134.368 415.276 134.497 415.162C134.625 415.047 134.728 414.907 134.799 414.75L136.246 411.595C136.645 410.718 136.703 409.724 136.409 408.806C136.114 407.888 135.489 407.113 134.654 406.631L127.751 402.658C126.876 402.158 125.84 402.018 124.863 402.268C123.887 402.517 123.046 403.138 122.519 403.997V403.997Z" fill="#727272"/>
<path d="M123.023 404.851L121.887 406.71C121.803 406.849 121.747 407.003 121.723 407.163C121.699 407.323 121.706 407.487 121.745 407.644C121.784 407.802 121.854 407.95 121.95 408.08C122.047 408.21 122.168 408.32 122.307 408.404L132.438 414.439C132.586 414.528 132.751 414.584 132.922 414.605C133.093 414.626 133.267 414.61 133.432 414.559C133.597 414.507 133.748 414.422 133.878 414.308C134.007 414.193 134.111 414.053 134.182 413.896L135.282 411.631C135.684 410.754 135.744 409.759 135.449 408.84C135.155 407.922 134.527 407.146 133.69 406.667L128.277 403.555C127.406 403.04 126.368 402.888 125.386 403.13C124.403 403.372 123.555 403.99 123.023 404.851Z" fill="#181821"/>
<path d="M133.111 382.686C133.951 383.409 134.479 384.213 134.146 384.857C133.22 386.709 127.264 383.764 128.473 381.441C128.549 381.318 128.656 381.217 128.782 381.147C128.909 381.077 129.052 381.041 129.197 381.043C128.415 380.956 127.793 381.108 127.532 381.608C125.853 384.842 134.139 388.938 135.427 386.362C136.006 385.219 134.754 383.757 133.111 382.686Z" fill="#727272"/>
<path d="M128.479 381.42C127.271 383.743 133.227 386.688 134.153 384.835C134.486 384.177 133.957 383.388 133.118 382.664C131.943 381.831 130.595 381.274 129.174 381.036C129.036 381.038 128.9 381.074 128.779 381.141C128.657 381.208 128.555 381.303 128.479 381.42Z" fill="#191919"/>
<path d="M91.6327 409.714C87.5079 408.781 81.299 407.37 75.2855 405.959L69.8944 405.568C72.2173 414.758 77.5433 442.626 64.4453 466.846L78.9182 469.444C81.2267 469.799 83.3759 470.066 85.3804 470.255C91.8643 459.277 98.0225 440.035 91.6327 409.714Z" fill="#191919"/>
<path d="M86.6902 413.021H86.56L75.2204 410.734C75.0295 410.688 74.864 410.569 74.7588 410.403C74.6535 410.237 74.6167 410.037 74.656 409.844C74.6709 409.75 74.7043 409.66 74.7543 409.578C74.8043 409.497 74.8698 409.427 74.9472 409.371C75.0245 409.315 75.1121 409.275 75.205 409.253C75.2978 409.231 75.394 409.228 75.4882 409.243L86.7987 411.516C86.8949 411.534 86.9863 411.573 87.0673 411.628C87.1483 411.683 87.2173 411.754 87.2701 411.836C87.3229 411.919 87.3583 412.011 87.3743 412.108C87.3903 412.205 87.3866 412.303 87.3632 412.399C87.3401 412.564 87.2605 412.716 87.1378 412.83C87.0151 412.943 86.857 413.011 86.6902 413.021Z" fill="black"/>
<path d="M87.5213 416.921H87.3911L76.0153 414.649C75.8244 414.603 75.6589 414.484 75.5537 414.318C75.4484 414.152 75.4116 413.952 75.4509 413.759C75.4658 413.665 75.4993 413.575 75.5492 413.493C75.5992 413.412 75.6647 413.342 75.7421 413.286C75.8194 413.23 75.907 413.19 75.9999 413.168C76.0927 413.146 76.189 413.143 76.2831 413.159L87.6516 415.431C87.8429 415.477 88.009 415.596 88.1154 415.762C88.2218 415.927 88.2604 416.127 88.2232 416.321C88.1946 416.487 88.1088 416.638 87.9806 416.748C87.8524 416.857 87.69 416.919 87.5213 416.921Z" fill="black"/>
<path d="M88.1714 420.822C88.1282 420.829 88.0842 420.829 88.0411 420.822L76.6654 418.535C76.5692 418.517 76.4779 418.478 76.3968 418.423C76.3158 418.368 76.2468 418.297 76.194 418.215C76.1413 418.132 76.1058 418.04 76.0898 417.943C76.0738 417.847 76.0776 417.748 76.1009 417.652C76.115 417.558 76.1478 417.467 76.1975 417.384C76.2471 417.302 76.3125 417.231 76.3899 417.174C76.4673 417.118 76.5552 417.077 76.6485 417.055C76.7417 417.033 76.8385 417.029 76.9331 417.045L88.3016 419.324C88.3984 419.342 88.4906 419.379 88.5725 419.434C88.6543 419.489 88.7241 419.56 88.7776 419.642C88.8311 419.725 88.8672 419.818 88.8837 419.915C88.9001 420.012 88.8966 420.111 88.8733 420.207C88.8477 420.376 88.7632 420.53 88.6347 420.643C88.5063 420.755 88.3421 420.819 88.1714 420.822Z" fill="black"/>
<path d="M88.6457 424.722H88.5154L77.1469 422.443C77.0501 422.425 76.958 422.387 76.8761 422.332C76.7943 422.278 76.7244 422.207 76.6709 422.124C76.6174 422.042 76.5813 421.949 76.5649 421.852C76.5484 421.755 76.5519 421.655 76.5752 421.56C76.5893 421.465 76.6221 421.374 76.6717 421.292C76.7214 421.21 76.7868 421.138 76.8642 421.082C76.9416 421.025 77.0295 420.985 77.1228 420.962C77.216 420.94 77.3128 420.936 77.4074 420.952L88.7759 423.21C88.8727 423.227 88.9649 423.265 89.0467 423.32C89.1286 423.374 89.1984 423.445 89.2519 423.528C89.3054 423.61 89.3415 423.703 89.358 423.8C89.3744 423.897 89.3709 423.997 89.3476 424.092C89.3251 424.264 89.242 424.422 89.1132 424.537C88.9845 424.653 88.8186 424.718 88.6457 424.722V424.722Z" fill="black"/>
<path d="M88.9702 428.63H88.8399L77.4642 426.35C77.368 426.332 77.2767 426.293 77.1957 426.238C77.1146 426.183 77.0456 426.112 76.9929 426.03C76.9401 425.947 76.9046 425.855 76.8886 425.758C76.8726 425.661 76.8764 425.563 76.8998 425.467C76.9139 425.373 76.9467 425.281 76.9963 425.199C77.0459 425.117 77.1113 425.046 77.1887 424.989C77.2662 424.933 77.354 424.892 77.4473 424.87C77.5406 424.848 77.6373 424.844 77.732 424.86L89.1004 427.139C89.1973 427.157 89.2894 427.194 89.3713 427.249C89.4531 427.304 89.5229 427.375 89.5765 427.457C89.63 427.54 89.6661 427.633 89.6825 427.73C89.699 427.827 89.6954 427.926 89.6721 428.022C89.645 428.189 89.5598 428.342 89.4315 428.453C89.3032 428.564 89.1399 428.627 88.9702 428.63V428.63Z" fill="black"/>
<path d="M89.0558 432.531H88.9256L77.5571 430.251C77.4603 430.233 77.3681 430.196 77.2862 430.141C77.2044 430.086 77.1346 430.015 77.0811 429.933C77.0275 429.85 76.9915 429.757 76.975 429.66C76.9586 429.563 76.9621 429.464 76.9854 429.368C76.9995 429.273 77.0323 429.182 77.0819 429.1C77.1315 429.018 77.1969 428.947 77.2743 428.89C77.3518 428.834 77.4397 428.793 77.5329 428.771C77.6262 428.749 77.7229 428.745 77.8176 428.76L89.1933 431.04C89.2895 431.059 89.3808 431.097 89.4619 431.152C89.5429 431.207 89.6119 431.278 89.6647 431.36C89.7174 431.443 89.7529 431.535 89.7689 431.632C89.7849 431.729 89.7811 431.828 89.7577 431.923C89.7306 432.09 89.6455 432.243 89.5171 432.354C89.3888 432.465 89.2255 432.528 89.0558 432.531V432.531Z" fill="black"/>
<path d="M89.0064 436.431H88.8689L77.5004 434.151C77.4036 434.134 77.3115 434.096 77.2296 434.041C77.1478 433.987 77.0779 433.916 77.0244 433.833C76.9709 433.751 76.9348 433.658 76.9184 433.561C76.9019 433.464 76.9054 433.364 76.9287 433.269C76.9428 433.174 76.9756 433.083 77.0252 433.001C77.0749 432.919 77.1403 432.847 77.2177 432.791C77.2951 432.734 77.383 432.694 77.4763 432.671C77.5695 432.649 77.6663 432.645 77.761 432.661L89.1367 434.94C89.2328 434.959 89.3242 434.997 89.4052 435.052C89.4863 435.107 89.5553 435.178 89.608 435.261C89.6608 435.343 89.6963 435.436 89.7123 435.532C89.7283 435.629 89.7245 435.728 89.7011 435.823C89.6742 435.989 89.5901 436.141 89.4633 436.252C89.3364 436.363 89.1749 436.426 89.0064 436.431Z" fill="black"/>
<path d="M88.772 440.331H88.6345L77.266 438.052C77.1692 438.034 77.0771 437.997 76.9952 437.942C76.9134 437.887 76.8436 437.816 76.79 437.734C76.7365 437.651 76.7005 437.558 76.684 437.461C76.6675 437.364 76.6711 437.265 76.6944 437.169C76.7085 437.074 76.7413 436.983 76.7909 436.901C76.8405 436.819 76.9059 436.748 76.9833 436.691C77.0608 436.634 77.1486 436.594 77.2419 436.572C77.3352 436.549 77.4319 436.546 77.5266 436.561L88.9023 438.841C88.9985 438.859 89.0898 438.897 89.1709 438.953C89.2519 439.008 89.3209 439.079 89.3736 439.161C89.4264 439.244 89.4619 439.336 89.4779 439.433C89.4939 439.529 89.4901 439.628 89.4667 439.724C89.4398 439.89 89.3557 440.042 89.2289 440.153C89.1021 440.264 88.9405 440.327 88.772 440.331V440.331Z" fill="black"/>
<path d="M88.3692 444.196H88.2462L76.8705 441.916C76.7743 441.897 76.6829 441.859 76.6019 441.804C76.5209 441.749 76.4519 441.678 76.3991 441.596C76.3463 441.513 76.3109 441.421 76.2949 441.324C76.2789 441.227 76.2827 441.128 76.306 441.033C76.3201 440.938 76.3529 440.847 76.4025 440.765C76.4521 440.683 76.5175 440.612 76.595 440.555C76.6724 440.499 76.7603 440.458 76.8536 440.436C76.9468 440.414 77.0436 440.41 77.1382 440.425L88.4995 442.748C88.5963 442.766 88.6884 442.804 88.7703 442.858C88.8521 442.913 88.922 442.984 88.9755 443.067C89.029 443.149 89.0651 443.242 89.0815 443.339C89.098 443.436 89.0945 443.536 89.0712 443.631C89.0352 443.791 88.9462 443.933 88.8187 444.036C88.6912 444.138 88.5328 444.195 88.3692 444.196Z" fill="black"/>
<path d="M87.7964 448.125H87.6661L76.2904 445.845C76.1942 445.827 76.1029 445.788 76.0218 445.733C75.9408 445.678 75.8718 445.607 75.819 445.525C75.7663 445.442 75.7308 445.35 75.7148 445.253C75.6988 445.156 75.7026 445.058 75.726 444.962C75.7401 444.868 75.7727 444.778 75.8218 444.696C75.8709 444.615 75.9357 444.544 76.0123 444.487C76.0889 444.431 76.176 444.39 76.2684 444.367C76.3608 444.344 76.4568 444.34 76.5509 444.354L87.9266 446.634C88.0228 446.653 88.1142 446.691 88.1952 446.746C88.2762 446.801 88.3452 446.872 88.398 446.955C88.4508 447.037 88.4862 447.129 88.5022 447.226C88.5182 447.323 88.5144 447.422 88.4911 447.517C88.4642 447.683 88.38 447.835 88.2532 447.946C88.1264 448.057 87.9648 448.12 87.7964 448.125V448.125Z" fill="black"/>
<path d="M87.0503 452.026C87.0072 452.033 86.9632 452.033 86.92 452.026L75.5443 449.754C75.4481 449.735 75.3568 449.697 75.2757 449.642C75.1947 449.587 75.1257 449.516 75.073 449.433C75.0202 449.351 74.9847 449.258 74.9687 449.161C74.9527 449.065 74.9565 448.966 74.9799 448.871C74.994 448.776 75.0267 448.685 75.0764 448.603C75.126 448.521 75.1914 448.449 75.2688 448.393C75.3462 448.336 75.4341 448.296 75.5274 448.273C75.6207 448.251 75.7174 448.247 75.8121 448.263L87.1805 450.535C87.3728 450.58 87.54 450.698 87.6467 450.864C87.7534 451.03 87.7913 451.232 87.7522 451.425C87.7236 451.591 87.6377 451.742 87.5096 451.852C87.3814 451.962 87.2189 452.023 87.0503 452.026V452.026Z" fill="black"/>
<path d="M86.1401 455.926H86.0099L74.6414 453.654C74.4491 453.609 74.2819 453.491 74.1752 453.324C74.0685 453.158 74.0306 452.957 74.0697 452.764C74.0846 452.669 74.1181 452.579 74.168 452.498C74.218 452.417 74.2836 452.346 74.3609 452.29C74.4382 452.234 74.5258 452.194 74.6187 452.173C74.7115 452.151 74.8078 452.147 74.9019 452.163L86.2704 454.435C86.4626 454.48 86.6298 454.598 86.7366 454.764C86.8433 454.931 86.8811 455.132 86.842 455.325C86.8134 455.491 86.7276 455.642 86.5994 455.752C86.4712 455.862 86.3088 455.923 86.1401 455.926V455.926Z" fill="black"/>
<path d="M85.0597 459.826H84.9295L73.561 457.547C73.4641 457.529 73.372 457.491 73.2902 457.437C73.2083 457.382 73.1385 457.311 73.085 457.229C73.0315 457.146 72.9954 457.053 72.9789 456.956C72.9625 456.859 72.966 456.76 72.9893 456.664C73.0043 456.57 73.0377 456.479 73.0876 456.398C73.1376 456.317 73.2032 456.246 73.2805 456.191C73.3578 456.135 73.4454 456.095 73.5383 456.073C73.6311 456.051 73.7274 456.048 73.8215 456.063L85.19 458.336C85.2868 458.353 85.3789 458.391 85.4608 458.446C85.5426 458.5 85.6124 458.571 85.666 458.654C85.7195 458.736 85.7556 458.829 85.772 458.926C85.7885 459.023 85.785 459.123 85.7617 459.218C85.7345 459.386 85.6493 459.539 85.521 459.65C85.3927 459.761 85.2294 459.823 85.0597 459.826V459.826Z" fill="black"/>
<path d="M83.8234 463.734H83.6859L72.3247 461.433C72.2278 461.415 72.1357 461.377 72.0538 461.323C71.972 461.268 71.9022 461.197 71.8487 461.114C71.7951 461.032 71.759 460.939 71.7426 460.842C71.7261 460.745 71.7297 460.646 71.753 460.55C71.7671 460.455 71.7999 460.364 71.8495 460.282C71.8991 460.2 71.9645 460.128 72.0419 460.072C72.1194 460.015 72.2073 459.975 72.3005 459.952C72.3938 459.93 72.4905 459.927 72.5852 459.942L83.9609 462.222C84.0571 462.24 84.1484 462.278 84.2295 462.333C84.3105 462.389 84.3795 462.459 84.4322 462.542C84.485 462.625 84.5205 462.717 84.5365 462.814C84.5525 462.91 84.5487 463.009 84.5253 463.104C84.5029 463.276 84.4197 463.434 84.291 463.549C84.1622 463.665 83.9963 463.73 83.8234 463.734V463.734Z" fill="black"/>
<path d="M82.4132 467.621C82.3701 467.628 82.3261 467.628 82.283 467.621L70.9145 465.348C70.8177 465.33 70.7255 465.293 70.6437 465.238C70.5618 465.184 70.492 465.113 70.4385 465.03C70.385 464.947 70.3489 464.855 70.3324 464.758C70.316 464.66 70.3195 464.561 70.3428 464.465C70.3569 464.371 70.3897 464.279 70.4393 464.197C70.4889 464.115 70.5543 464.044 70.6318 463.987C70.7092 463.931 70.7971 463.89 70.8903 463.868C70.9836 463.846 71.0804 463.842 71.175 463.858L82.5435 466.13C82.7357 466.175 82.9029 466.293 83.0097 466.459C83.1164 466.625 83.1542 466.826 83.1152 467.02C83.0865 467.186 83.0007 467.337 82.8725 467.447C82.7443 467.556 82.5819 467.618 82.4132 467.621V467.621Z" fill="black"/>
<path d="M46.448 459.927C40.7818 463.039 29.9561 465.072 21.5039 466.266C23.7544 466.911 26.3451 467.562 29.3338 468.235C49.4801 472.765 54.0969 467.656 55.0811 465.818C55.1679 465.615 55.2548 465.42 55.3344 465.21C64.0615 442.531 63.7142 425.901 61.8472 415.886C59.6618 428.651 54.1403 455.708 46.448 459.927Z" fill="#282828"/>
<path d="M149.032 409.584C148.086 408.653 147.077 407.788 146.014 406.993C150.494 421.583 149.522 437.303 143.279 451.23C132.287 475.617 117.314 488.772 86.9141 478.193C92.8458 483.362 99.3191 487.875 106.221 491.653C106.279 491.653 133.517 492.695 145.5 463.85C157.484 435.005 158.128 418.651 149.032 409.584Z" fill="#4C4C4C"/>
<path d="M169.613 415.025C164.171 410.792 171.429 405.35 165.93 400.487C162.782 397.708 158.31 394.553 152.665 390.863C157.007 395.928 162.644 403.027 162.536 405.936C162.362 410.655 163.165 417.204 168.462 422.826C173.76 428.449 175.894 448.393 160.227 473.315C145.631 496.537 143.656 499.721 115.115 496.139C121.255 498.982 127.63 501.287 134.169 503.028C158.585 509.396 173.246 459.768 178.688 447.076C184.129 434.383 175.084 419.259 169.613 415.025Z" fill="#282828"/>
<path d="M115.115 496.139C121.431 498.845 127.968 501.002 134.654 502.587C137.913 503.302 141.314 502.996 144.394 501.711C147.454 500.354 150.215 498.406 152.521 495.98C157.231 491.153 160.85 485.299 164.005 479.271C167.12 473.181 169.902 466.926 172.341 460.535C173.608 457.351 174.816 454.146 176.053 450.925L176.994 448.508C177.291 447.72 177.718 446.873 177.949 446.12C178.548 444.598 178.958 443.009 179.172 441.388C179.571 438.091 179.326 434.749 178.449 431.546C177.577 428.303 176.278 425.191 174.584 422.291C173.727 420.846 172.759 419.469 171.69 418.173C171.435 417.843 171.162 417.526 170.872 417.225C170.583 416.936 170.315 416.61 170.011 416.342L169.085 415.51C168.726 415.196 168.39 414.858 168.079 414.497C167.769 414.12 167.513 413.701 167.319 413.252C167.112 412.807 166.97 412.334 166.899 411.849C166.79 410.927 166.825 409.995 167.001 409.084C167.283 407.347 167.724 405.719 167.514 404.149C167.461 403.764 167.359 403.387 167.211 403.027C167.145 402.842 167.068 402.66 166.979 402.485L166.653 401.985C166.433 401.649 166.175 401.338 165.886 401.059C165.598 400.753 165.294 400.463 164.974 400.191C163.694 399.054 162.362 397.976 161.009 396.927C158.281 394.843 155.48 392.846 152.672 390.863C155.61 392.65 158.52 394.481 161.356 396.471C162.767 397.462 164.164 398.483 165.51 399.576C165.858 399.842 166.189 400.13 166.501 400.437C166.843 400.738 167.151 401.075 167.42 401.442L167.826 402.014C167.943 402.216 168.044 402.427 168.13 402.644C168.332 403.067 168.478 403.514 168.564 403.975C168.904 405.835 168.426 407.593 168.224 409.265C168.108 410.052 168.108 410.852 168.224 411.639C168.29 412.001 168.41 412.353 168.578 412.681C168.733 413.016 168.938 413.326 169.186 413.6C169.446 413.881 169.724 414.144 170.018 414.389L171.039 415.25C171.386 415.546 171.675 415.879 172.001 416.19C172.315 416.503 172.612 416.831 172.891 417.175C174.043 418.508 175.091 419.928 176.025 421.422C177.886 424.419 179.314 427.664 180.265 431.061C181.257 434.494 181.572 438.088 181.191 441.641C180.98 443.434 180.539 445.192 179.882 446.873C179.592 447.756 179.245 448.458 178.941 449.276L177.978 451.671C176.763 454.877 175.569 458.111 174.309 461.324C171.813 467.775 168.962 474.082 165.77 480.219C164.134 483.284 162.332 486.258 160.372 489.127C158.412 492.025 156.162 494.717 153.657 497.159C152.394 498.389 151.031 499.512 149.583 500.517C148.859 501.031 148.07 501.443 147.317 501.914C146.927 502.116 146.514 502.29 146.109 502.485C145.711 502.681 145.303 502.855 144.886 503.006C141.531 504.285 137.863 504.492 134.386 503.6C131.056 502.677 127.776 501.583 124.559 500.322C121.346 499.084 118.198 497.68 115.115 496.139Z" fill="black"/>
<path d="M99.0999 375.956C97.7466 376.73 96.1112 377.663 94.0705 378.749C83.7875 384.191 87.413 390.841 87.413 390.841C90.3941 394.046 92.8378 397.711 94.6494 401.696C89.2076 390.841 101.018 391.42 101.018 391.42C101.018 391.42 94.4179 382.845 99.0999 375.956Z" fill="#B9937E"/>
<path d="M78.3096 392.651C72.2671 395.075 75.2848 405.959 75.2848 405.959C85.5678 408.376 96.4514 410.793 96.4514 410.793C96.4514 410.793 98.2605 407.768 94.635 401.725C92.8234 397.741 90.3797 394.076 87.3986 390.871C87.3986 390.871 84.3593 390.234 78.3096 392.651Z" fill="#D5AD95"/>
<path d="M118.474 399.938C123.539 392.108 116.172 381.571 116.172 381.571C116.172 381.571 115.196 381.166 109.754 376.325C105.412 372.453 104.522 372.851 99.0655 375.956C94.4197 382.845 101.005 391.449 101.005 391.449C105.557 399.923 113.379 407.767 118.474 399.938Z" fill="#D5AD95"/>
<path d="M94.6362 401.725C89.1944 390.87 101.004 391.449 101.004 391.449C100.31 390.496 99.7044 389.481 99.1952 388.417C89.7082 393.533 89.1944 386.246 89.6213 381.861C84.9828 386.434 87.378 390.841 87.378 390.841C90.3695 394.053 92.8206 397.729 94.6362 401.725V401.725Z" fill="#A2816C"/>
<path d="M118.473 399.937C119.513 398.314 120.116 396.449 120.224 394.524C119.11 397.144 116.968 399.054 112.872 397.477C105.1 394.488 99.1228 384.451 97.4078 381.318C97.3209 386.629 101.026 391.449 101.026 391.449C105.556 399.923 113.379 407.767 118.473 399.937Z" fill="#B9937E"/>
<path d="M108.831 378.271C111.921 381.043 116.024 384.118 118.507 385.935C117.867 384.417 117.084 382.963 116.169 381.593C116.169 381.593 115.192 381.188 109.75 376.346C105.409 372.475 104.519 372.873 99.0622 375.977C98.7608 376.425 98.497 376.897 98.2734 377.388C100.589 376.448 105.358 375.16 108.831 378.271Z" fill="#E8C0A8"/>
<path d="M94.3299 401.081C93.6063 402.84 92.3182 405.249 90.2992 406.248C87.6434 407.55 78.7208 406.197 75.1895 405.582L75.2835 405.958C85.5665 408.375 96.4502 410.792 96.4502 410.792C96.4502 410.792 98.2593 407.768 94.6338 401.725L94.3299 401.081Z" fill="#B9937E"/>
<path d="M79.9034 395.762C83.1309 393.164 87.9359 394.076 90.7219 394.945C89.7138 393.494 88.5961 392.122 87.3787 390.842C87.3787 390.842 84.3611 390.234 78.3114 392.651C74.6932 394.098 74.3169 398.642 74.6136 402.015C75.9573 399.609 77.7535 397.486 79.9034 395.762V395.762Z" fill="#E8C0A8"/>
<path d="M116.75 381.165C116.68 381.064 116.585 380.981 116.475 380.927C116.424 380.927 115.317 380.319 110.222 375.796C105.562 371.649 104.354 372.127 98.7092 375.34L98.4849 375.463C97.2113 376.187 95.5903 377.098 93.7016 378.119C89.7216 380.217 87.2684 382.765 86.3928 385.666C85.9528 387.094 85.9302 388.619 86.3277 390.059C84.8804 390.059 82.1233 390.363 78.0491 391.991C71.4857 394.618 74.4309 405.675 74.6046 406.146C74.639 406.268 74.7054 406.38 74.7969 406.469C74.8884 406.558 75.0018 406.621 75.1256 406.652C85.2928 409.04 96.1837 411.464 96.2923 411.486H96.4515C96.5739 411.484 96.6939 411.452 96.8002 411.391C96.9065 411.33 96.9957 411.243 97.0593 411.139C97.1462 411.001 99.0421 407.687 95.2647 401.37L95.2213 401.275C95.1055 401.015 94.9825 400.754 94.8594 400.501C93.7233 397.911 93.6075 395.899 94.5193 394.509C95.916 392.338 99.4039 392.15 100.576 392.136C103.659 397.737 108.536 403.649 113.255 403.844H113.501C115.671 403.844 117.539 402.65 119.065 400.299C124.355 392.186 117.068 381.607 116.75 381.165ZM96.01 409.966C93.6292 409.431 84.5475 407.398 75.871 405.364C75.4223 403.439 73.8086 395.233 78.5774 393.315C83.3462 391.398 86.2915 391.441 87.0368 391.513L87.0803 391.564C87.1319 391.614 87.1802 391.667 87.225 391.723L87.319 391.817C87.3697 391.875 87.4204 391.94 87.4855 392.006L87.6085 392.143L87.7967 392.36L87.9486 392.541L88.1585 392.787L88.3394 393.004L88.571 393.294L88.7663 393.532L89.0196 393.858L89.2295 394.133C89.3235 394.249 89.4104 394.372 89.4972 394.495L89.7288 394.799L90.011 395.197L90.2498 395.522L90.5465 395.964L90.7853 396.304L91.1109 396.811L91.3281 397.151C91.4583 397.339 91.5813 397.549 91.7043 397.751L91.8853 398.048C92.0734 398.352 92.2543 398.67 92.4352 398.996L92.5365 399.177C92.6885 399.445 92.8332 399.72 92.9852 399.995L93.1733 400.371L93.5207 401.044C93.6727 401.362 93.8246 401.681 93.9766 402.014V402.057C96.5745 406.334 96.285 408.961 96.01 409.966V409.966ZM117.871 399.546C116.576 401.543 115.056 402.527 113.312 402.441C109.839 402.296 105.251 397.845 101.633 391.101C101.573 390.994 101.487 390.905 101.384 390.84C101.28 390.776 101.161 390.738 101.039 390.732H100.649C99.3461 390.732 95.1561 390.956 93.3253 393.742C92.8341 394.514 92.55 395.398 92.5004 396.311L92.3918 396.145C92.2037 395.855 92.0227 395.573 91.8346 395.298L91.6826 395.067C91.4511 394.734 91.2267 394.408 91.0024 394.104L90.8287 393.873C90.6623 393.648 90.5031 393.431 90.3439 393.229C90.1847 393.026 90.2064 393.048 90.1413 392.961L89.7143 392.425L89.5551 392.23L89.0485 391.615L88.9907 391.557C88.8532 391.39 88.7229 391.246 88.6071 391.115L88.4986 390.985L88.2453 390.71L88.1729 390.638L87.9703 390.421C87.3883 389.044 87.314 387.505 87.7605 386.079C88.5348 383.561 90.7564 381.317 94.3674 379.407C96.3067 378.372 97.906 377.46 99.1941 376.729L99.4184 376.606C104.679 373.603 105.208 373.292 109.282 376.889C113.566 380.702 115.143 381.817 115.671 382.135C116.468 383.315 122.344 392.664 117.871 399.546V399.546Z" fill="#977763"/>
<defs>
<filter id="filter0_d_1802_18088" x="173.295" y="161.07" width="27.9609" height="20.957" filterUnits="userSpaceOnUse" color-interpolation-filters="sRGB">
<feFlood flood-opacity="0" result="BackgroundImageFix"/>
<feColorMatrix in="SourceAlpha" type="matrix" values="0 0 0 0 0 0 0 0 0 0 0 0 0 0 0 0 0 0 127 0" result="hardAlpha"/>
<feOffset/>
<feGaussianBlur stdDeviation="3.5"/>
<feComposite in2="hardAlpha" operator="out"/>
<feColorMatrix type="matrix" values="0 0 0 0 1 0 0 0 0 0 0 0 0 0 0.898039 0 0 0 1 0"/>
<feBlend mode="normal" in2="BackgroundImageFix" result="effect1_dropShadow_1802_18088"/>
<feBlend mode="normal" in="SourceGraphic" in2="effect1_dropShadow_1802_18088" result="shape"/>
</filter>
<filter id="filter1_d_1802_18088" x="113.703" y="116.449" width="60.7773" height="58.0259" filterUnits="userSpaceOnUse" color-interpolation-filters="sRGB">
<feFlood flood-opacity="0" result="BackgroundImageFix"/>
<feColorMatrix in="SourceAlpha" type="matrix" values="0 0 0 0 0 0 0 0 0 0 0 0 0 0 0 0 0 0 127 0" result="hardAlpha"/>
<feOffset/>
<feGaussianBlur stdDeviation="3.5"/>
<feComposite in2="hardAlpha" operator="out"/>
<feColorMatrix type="matrix" values="0 0 0 0 1 0 0 0 0 0 0 0 0 0 0.898039 0 0 0 1 0"/>
<feBlend mode="normal" in2="BackgroundImageFix" result="effect1_dropShadow_1802_18088"/>
<feBlend mode="normal" in="SourceGraphic" in2="effect1_dropShadow_1802_18088" result="shape"/>
</filter>
<filter id="filter2_d_1802_18088" x="170.867" y="92.7666" width="63.3672" height="59.7065" filterUnits="userSpaceOnUse" color-interpolation-filters="sRGB">
<feFlood flood-opacity="0" result="BackgroundImageFix"/>
<feColorMatrix in="SourceAlpha" type="matrix" values="0 0 0 0 0 0 0 0 0 0 0 0 0 0 0 0 0 0 127 0" result="hardAlpha"/>
<feOffset/>
<feGaussianBlur stdDeviation="3.5"/>
<feComposite in2="hardAlpha" operator="out"/>
<feColorMatrix type="matrix" values="0 0 0 0 1 0 0 0 0 0 0 0 0 0 0.898039 0 0 0 1 0"/>
<feBlend mode="normal" in2="BackgroundImageFix" result="effect1_dropShadow_1802_18088"/>
<feBlend mode="normal" in="SourceGraphic" in2="effect1_dropShadow_1802_18088" result="shape"/>
</filter>
<filter id="filter3_d_1802_18088" x="154.748" y="172.981" width="83.7207" height="50.9131" filterUnits="userSpaceOnUse" color-interpolation-filters="sRGB">
<feFlood flood-opacity="0" result="BackgroundImageFix"/>
<feColorMatrix in="SourceAlpha" type="matrix" values="0 0 0 0 0 0 0 0 0 0 0 0 0 0 0 0 0 0 127 0" result="hardAlpha"/>
<feOffset/>
<feGaussianBlur stdDeviation="3.5"/>
<feComposite in2="hardAlpha" operator="out"/>
<feColorMatrix type="matrix" values="0 0 0 0 1 0 0 0 0 0 0 0 0 0 0.898039 0 0 0 1 0"/>
<feBlend mode="normal" in2="BackgroundImageFix" result="effect1_dropShadow_1802_18088"/>
<feBlend mode="normal" in="SourceGraphic" in2="effect1_dropShadow_1802_18088" result="shape"/>
</filter>
<linearGradient id="paint0_linear_1802_18088" x1="187.71" y1="299.452" x2="187.71" y2="57.1681" gradientUnits="userSpaceOnUse">
<stop stop-color="#111111"/>
<stop offset="0.01" stop-color="#111111"/>
<stop offset="0.51" stop-color="#040404"/>
<stop offset="1"/>
</linearGradient>
</defs>
</svg>
