<svg width="31" height="31" viewBox="0 0 31 31" fill="none" xmlns="http://www.w3.org/2000/svg">
<circle cx="15" cy="16" r="14" fill="white"/>
<path d="M15.2919 0.813477C12.3708 0.813477 9.51528 1.67969 7.08646 3.30258C4.65763 4.92547 2.76459 7.23215 1.64673 9.93091C0.52886 12.6297 0.236376 15.5993 0.806259 18.4643C1.37614 21.3293 2.7828 23.961 4.84834 26.0265C6.91389 28.0921 9.54556 29.4987 12.4106 30.0686C15.2755 30.6385 18.2452 30.346 20.944 29.2282C23.6427 28.1103 25.9494 26.2172 27.5723 23.7884C29.1952 21.3596 30.0614 18.5041 30.0614 15.5829C30.0614 13.6434 29.6794 11.7228 28.9371 9.93091C28.1949 8.139 27.107 6.51083 25.7355 5.13935C24.364 3.76788 22.7359 2.67997 20.944 1.93774C19.152 1.1955 17.2315 0.813477 15.2919 0.813477ZM19.9886 23.1922C19.9335 23.3302 19.8495 23.4547 19.7422 23.5576C19.635 23.6604 19.507 23.7391 19.3668 23.7883C19.2266 23.8376 19.0775 23.8562 18.9295 23.8431C18.7815 23.8299 18.638 23.7853 18.5087 23.7121L14.4988 20.5957L11.926 22.9706C11.8663 23.0147 11.7964 23.0431 11.7229 23.0532C11.6493 23.0632 11.5744 23.0547 11.505 23.0282L11.9983 18.6136L12.0131 18.6269L12.0235 18.5398C12.0235 18.5398 19.2383 11.9703 19.5322 11.6912C19.8306 11.412 19.7316 11.3515 19.7316 11.3515C19.7494 11.0118 19.1985 11.3515 19.1985 11.3515L9.63818 17.5015L5.65781 16.1457C5.65781 16.1457 5.04636 15.9271 4.98875 15.4441C4.9282 14.9656 5.67701 14.7056 5.67701 14.7056L21.5054 8.4168C21.5054 8.4168 22.8066 7.83784 22.8066 8.79785L19.9886 23.1922Z" fill="#273CFD"/>
</svg>
