<svg width="29" height="26" viewBox="0 0 29 26" fill="none" xmlns="http://www.w3.org/2000/svg">
<path d="M17.5643 24.2385C16.098 24.2411 14.6536 23.8987 13.347 23.2414C13.2974 23.2523 13.2478 23.2629 13.1981 23.2731C14.5353 23.9671 16.0306 24.3368 17.5618 24.3344L17.5634 24.3344C18.9553 24.3344 20.2754 24.0348 21.4664 23.4967L21.7756 23.357L22.1059 23.4343C23.5518 23.7726 25.1399 24.1116 26.153 24.3234L26.1537 24.3236C26.2752 24.3491 26.4011 24.3435 26.5199 24.3075C26.5233 24.3064 26.5267 24.3054 26.5301 24.3043L25.6249 24.1136C24.5399 23.8851 23.0722 23.5661 21.772 23.2559C21.7715 23.2557 21.7709 23.2556 21.7704 23.2555L21.7563 23.2522L21.7398 23.2604L21.7395 23.2605C20.4811 23.8866 19.0634 24.2384 17.5643 24.2385ZM17.5643 24.2385C17.564 24.2385 17.5637 24.2385 17.5634 24.2385V23.2385L17.5652 24.2385C17.5649 24.2385 17.5646 24.2385 17.5643 24.2385ZM26.947 14.8554C26.9478 13.2864 26.5549 11.7423 25.8042 10.3646C25.1171 9.10335 24.1503 8.01844 22.9801 7.19185C22.9661 7.14198 22.9519 7.0922 22.9374 7.04251C23.3249 7.30921 23.6931 7.60504 24.0384 7.92798C25.0084 8.83504 25.7772 9.93571 26.2948 11.1587C26.8124 12.3818 27.0674 13.6998 27.0432 15.0277C27.019 16.3555 26.7162 17.6634 26.1545 18.8668L26.0042 19.1887L26.0907 19.5333C26.4419 20.9326 26.7979 22.4512 27.0237 23.4309L27.0243 23.4335C27.0525 23.5543 27.0497 23.6803 27.0163 23.7999C27.0157 23.802 27.0151 23.8042 27.0145 23.8063L25.947 14.8549M26.947 14.8554L25.947 14.8549M26.947 14.8554C26.947 14.8552 26.947 14.8551 26.947 14.8549H25.947M26.947 14.8554C26.9469 16.4042 26.5718 17.8644 25.9066 19.1514L25.9072 19.1502L25.8921 19.1424L25.8054 18.8009L25.4184 18.899L25.0178 18.6932M25.947 14.8549C25.947 16.241 25.6116 17.5446 25.0178 18.6932M25.0178 18.6932L25.4167 18.8995M25.0178 18.6932L25.4167 18.8995M25.4167 18.8995L24.8361 19.0467L25.3703 19.3212M25.4167 18.8995L25.9033 19.1865L25.8864 19.1908M25.3703 19.3212L24.9339 19.4324L25.371 19.3215M25.3703 19.3212L25.887 19.1896L25.8864 19.1908M25.3703 19.3212L25.371 19.3215M25.371 19.3215L25.7256 19.5037L25.8864 19.1908M25.371 19.3215L25.8864 19.1908M21.8981 22.7273L22.0025 22.2828L21.897 22.725L21.8981 22.7273ZM21.8981 22.7273L21.7773 23.2417M21.8981 22.7273L22.0793 23.0913L21.7773 23.2417M21.7773 23.2417L21.7732 23.2438L21.7773 23.2417ZM25.831 23.1351C25.5006 23.0655 25.135 22.9876 24.7498 22.9042C24.7871 23.0628 24.823 23.216 24.8571 23.3623L25.831 23.1351ZM25.831 23.1351L26.0371 22.1566C25.8904 22.1257 25.7368 22.0931 25.5777 22.0592C25.6687 22.4424 25.7543 22.8063 25.831 23.1351ZM2.0475 14.9936L1.9652 15.3343C1.61721 16.7747 1.30327 18.2231 1.02366 19.6783L1.02335 19.6799C1.01125 19.7424 1.01453 19.8068 1.03292 19.8677C1.05131 19.9286 1.08425 19.9841 1.12889 20.0294C1.17354 20.0747 1.22855 20.1084 1.28916 20.1277C1.34976 20.147 1.41415 20.1512 1.47677 20.14L1.4788 20.1397C2.34286 19.9871 4.21661 19.6413 5.9496 19.2418L6.27804 19.1661L6.58531 19.3046C7.87406 19.8858 9.27649 20.1713 10.6899 20.1403C12.1033 20.1093 13.4918 19.7626 14.7539 19.1255C16.0159 18.4885 17.1195 17.5772 17.9838 16.4584C18.8481 15.3396 19.4512 14.0417 19.749 12.6597C20.0467 11.2777 20.0316 9.84656 19.7047 8.47114C19.3778 7.09573 18.7474 5.81084 17.8597 4.71058C16.972 3.61032 15.8494 2.72255 14.5741 2.11229C13.2991 1.50209 11.9037 1.18478 10.4901 1.18359L2.0475 14.9936ZM2.0475 14.9936L1.89914 14.6761M2.0475 14.9936L1.89914 14.6761M1.89914 14.6761C1.22401 13.2313 0.924312 11.6394 1.02779 10.048C1.13127 8.45659 1.63458 6.91699 2.49112 5.57175C3.34767 4.22651 4.52976 3.11911 5.92797 2.35206C7.32604 1.5851 8.89498 1.18321 10.4896 1.18359L1.89914 14.6761ZM25.903 19.1855L25.8984 19.1674L25.9061 19.1525L25.903 19.1855ZM20.9909 4.94828C21.2286 5.38039 21.4388 5.82653 21.6203 6.284L22.4006 5.55524C21.9473 5.31933 21.4762 5.1163 20.9909 4.94828Z" stroke="white" stroke-width="2"/>
</svg>
