<svg width="103" height="34" viewBox="0 0 103 34" fill="none" xmlns="http://www.w3.org/2000/svg">
<g filter="url(#filter0_dddd_1495_12232)">
<path d="M10 16C9.44772 16 9 16.4477 9 17C9 17.5523 9.44772 18 10 18V16ZM92.9471 17.7071C93.3376 17.3166 93.3376 16.6834 92.9471 16.2929L86.5831 9.92893C86.1926 9.53841 85.5594 9.53841 85.1689 9.92893C84.7784 10.3195 84.7784 10.9526 85.1689 11.3431L90.8257 17L85.1689 22.6569C84.7784 23.0474 84.7784 23.6805 85.1689 24.0711C85.5594 24.4616 86.1926 24.4616 86.5831 24.0711L92.9471 17.7071ZM10 18H92.2399V16H10V18Z" fill="#DF9FFE"/>
</g>
<defs>
<filter id="filter0_dddd_1495_12232" x="0" y="0.63623" width="102.24" height="32.7275" filterUnits="userSpaceOnUse" color-interpolation-filters="sRGB">
<feFlood flood-opacity="0" result="BackgroundImageFix"/>
<feColorMatrix in="SourceAlpha" type="matrix" values="0 0 0 0 0 0 0 0 0 0 0 0 0 0 0 0 0 0 127 0" result="hardAlpha"/>
<feOffset dx="-2" dy="2"/>
<feGaussianBlur stdDeviation="3.5"/>
<feComposite in2="hardAlpha" operator="out"/>
<feColorMatrix type="matrix" values="0 0 0 0 0.713726 0 0 0 0 0.105882 0 0 0 0 1 0 0 0 0.5 0"/>
<feBlend mode="normal" in2="BackgroundImageFix" result="effect1_dropShadow_1495_12232"/>
<feColorMatrix in="SourceAlpha" type="matrix" values="0 0 0 0 0 0 0 0 0 0 0 0 0 0 0 0 0 0 127 0" result="hardAlpha"/>
<feOffset dx="-2" dy="-2"/>
<feGaussianBlur stdDeviation="3.5"/>
<feComposite in2="hardAlpha" operator="out"/>
<feColorMatrix type="matrix" values="0 0 0 0 0.713726 0 0 0 0 0.105882 0 0 0 0 1 0 0 0 0.5 0"/>
<feBlend mode="normal" in2="effect1_dropShadow_1495_12232" result="effect2_dropShadow_1495_12232"/>
<feColorMatrix in="SourceAlpha" type="matrix" values="0 0 0 0 0 0 0 0 0 0 0 0 0 0 0 0 0 0 127 0" result="hardAlpha"/>
<feOffset dx="2" dy="-2"/>
<feGaussianBlur stdDeviation="3.5"/>
<feComposite in2="hardAlpha" operator="out"/>
<feColorMatrix type="matrix" values="0 0 0 0 0.713726 0 0 0 0 0.105882 0 0 0 0 1 0 0 0 0.5 0"/>
<feBlend mode="normal" in2="effect2_dropShadow_1495_12232" result="effect3_dropShadow_1495_12232"/>
<feColorMatrix in="SourceAlpha" type="matrix" values="0 0 0 0 0 0 0 0 0 0 0 0 0 0 0 0 0 0 127 0" result="hardAlpha"/>
<feOffset dx="-2" dy="2"/>
<feGaussianBlur stdDeviation="3.5"/>
<feComposite in2="hardAlpha" operator="out"/>
<feColorMatrix type="matrix" values="0 0 0 0 0.713726 0 0 0 0 0.105882 0 0 0 0 1 0 0 0 0.5 0"/>
<feBlend mode="normal" in2="effect3_dropShadow_1495_12232" result="effect4_dropShadow_1495_12232"/>
<feBlend mode="normal" in="SourceGraphic" in2="effect4_dropShadow_1495_12232" result="shape"/>
</filter>
</defs>
</svg>
