<svg width="59" height="58" viewBox="0 0 59 58" fill="none" xmlns="http://www.w3.org/2000/svg">
<circle cx="11.3999" cy="30.9429" r="5.94286" fill="#6E14A0" stroke="#F2D6FF" stroke-width="2"/>
<path d="M1 46.8506C1 42.1677 4.79626 38.3714 9.47918 38.3714H12.578C17.2609 38.3714 21.0571 42.1677 21.0571 46.8506V46.8506C21.0571 49.1423 19.1994 51 16.9078 51H5.14939C2.85775 51 1 49.1423 1 46.8506V46.8506Z" fill="#6E14A0" stroke="#F2D6FF" stroke-width="2"/>
<circle cx="47.3999" cy="30.9429" r="5.94286" fill="#6E14A0" stroke="#F2D6FF" stroke-width="2"/>
<path d="M37 46.8506C37 42.1677 40.7963 38.3714 45.4792 38.3714H48.578C53.2609 38.3714 57.0571 42.1677 57.0571 46.8506V46.8506C57.0571 49.1423 55.1994 51 52.9078 51H41.1494C38.8577 51 37 49.1423 37 46.8506V46.8506Z" fill="#6E14A0" stroke="#F2D6FF" stroke-width="2"/>
<circle cx="28.3999" cy="36.9429" r="5.94286" fill="#6E14A0" stroke="#F2D6FF" stroke-width="2"/>
<path d="M18 52.8506C18 48.1677 21.7963 44.3714 26.4792 44.3714H29.578C34.2609 44.3714 38.0571 48.1677 38.0571 52.8506V52.8506C38.0571 55.1423 36.1994 57 33.9078 57H22.1494C19.8577 57 18 55.1423 18 52.8506V52.8506Z" fill="#6E14A0" stroke="#F2D6FF" stroke-width="2"/>
<path d="M35.5 23.88C41.8513 23.88 47 18.7581 47 12.44C47 6.12186 41.8513 1 35.5 1C29.1487 1 24 6.12186 24 12.44C24 17.0547 26.7467 21.0312 30.7024 22.84L29.75 27L35.5 23.88Z" stroke="#F2D6FF" stroke-width="2" stroke-linejoin="round"/>
<path fill-rule="evenodd" clip-rule="evenodd" d="M36.4369 6.77967C36.202 5.74011 34.7208 5.74012 34.486 6.77967L34.3117 7.55123C34.1595 8.22497 33.3864 8.54522 32.8024 8.17643L32.1335 7.75409C31.2324 7.18505 30.1851 8.23243 30.7541 9.13355L31.1764 9.80236C31.5452 10.3864 31.225 11.1595 30.5512 11.3117L29.7797 11.486C28.7401 11.7208 28.7401 13.202 29.7797 13.4369L30.5512 13.6111C31.225 13.7633 31.5452 14.5365 31.1764 15.1205L30.7541 15.7893C30.1851 16.6904 31.2324 17.7378 32.1335 17.1688L32.8024 16.7464C33.3864 16.3776 34.1595 16.6979 34.3117 17.3716L34.486 18.1432C34.7208 19.1827 36.202 19.1827 36.4369 18.1432L36.6111 17.3716C36.7633 16.6979 37.5365 16.3776 38.1205 16.7464L38.7893 17.1688C39.6904 17.7378 40.7378 16.6904 40.1688 15.7893L39.7464 15.1205C39.3776 14.5365 39.6979 13.7633 40.3716 13.6111L41.1432 13.4369C42.1827 13.202 42.1827 11.7208 41.1432 11.486L40.3716 11.3117C39.6979 11.1595 39.3776 10.3864 39.7464 9.80236L40.1688 9.13355C40.7378 8.23243 39.6904 7.18505 38.7893 7.75409L38.1205 8.17643C37.5365 8.54522 36.7633 8.22497 36.6111 7.55123L36.4369 6.77967ZM35.5 15C36.8807 15 38 13.8807 38 12.5C38 11.1193 36.8807 10 35.5 10C34.1193 10 33 11.1193 33 12.5C33 13.8807 34.1193 15 35.5 15Z" fill="#F2D6FF"/>
</svg>
