<svg width="43" height="51" viewBox="0 0 43 51" fill="none" xmlns="http://www.w3.org/2000/svg">
<circle cx="21.5" cy="17.5" r="5.5" fill="#6E14A0" stroke="#F2D6FF" stroke-width="2"/>
<path d="M12.5 32.3857C12.5 28.3067 15.8067 25 19.8857 25H23.1143C27.1933 25 30.5 28.3067 30.5 32.3857V32.3857C30.5 34.3818 28.8818 36 26.8857 36H16.1143C14.1182 36 12.5 34.3818 12.5 32.3857V32.3857Z" fill="#6E14A0" stroke="#F2D6FF" stroke-width="2"/>
<path d="M33.001 2H10.001C10.001 2 8.95744 6.0309 7.00098 7.5C5.37081 8.7241 2.00098 9 2.00098 9C2.00098 9 1.80373 26.0615 7.00098 35C12.1982 43.9385 21.501 49.5 21.501 49.5C21.501 49.5 31.8788 42.3563 36.001 35C40.9974 26.0835 40.501 9 40.501 9C40.501 9 37.4843 8.60963 36.001 7.5C34.0419 6.03443 33.001 2 33.001 2Z" stroke="#F2D6FF" stroke-width="3" stroke-linecap="round" stroke-linejoin="round"/>
</svg>
