<svg width="44" height="54" viewBox="0 0 44 54" fill="none" xmlns="http://www.w3.org/2000/svg">
<path d="M41 2H2.5V53H41V2Z" fill="#6E14A0"/>
<path fill-rule="evenodd" clip-rule="evenodd" d="M3.87794 0.194959C1.89595 0.713006 0.423019 2.36169 0.121144 4.40005C-0.0395199 5.48523 -0.0408082 48.4143 0.119856 49.4945C0.370051 51.177 1.43118 52.5643 3.03888 53.3106L3.92423 53.7216L21.355 53.7515C38.6588 53.7813 38.7911 53.7798 39.4991 53.548C41.4077 52.923 42.7176 51.4071 43.002 49.4945C43.1627 48.4143 43.1614 5.48523 43.0007 4.40005C42.6949 2.33526 41.2181 0.701843 39.1936 0.189264C38.1827 -0.0666841 4.85821 -0.0613306 3.87794 0.194959ZM38.8461 2.96437C39.3971 3.21234 39.8893 3.69337 40.082 4.17223C40.1577 4.36018 40.2403 5.19318 40.2657 6.02321L40.3119 7.53248H21.5657H2.81962L2.86052 6.02321C2.8829 5.19318 2.96341 4.36018 3.03935 4.17223C3.23294 3.69303 3.72513 3.21212 4.27579 2.96437C4.72521 2.76207 5.43958 2.75341 21.5609 2.75341C37.6823 2.75341 38.3967 2.76207 38.8461 2.96437ZM40.2523 29.8582V49.3931L39.968 49.8756C39.8116 50.141 39.4734 50.4998 39.2163 50.673L38.7489 50.9878H21.5609H4.37294L3.9056 50.673C3.64849 50.4998 3.31028 50.141 3.15384 49.8756L2.86954 49.3931L2.84587 29.9721C2.83274 19.2905 2.84435 10.4868 2.87153 10.4083C2.91103 10.2945 6.71306 10.2714 21.5867 10.2944L40.2523 10.3232V29.8582ZM16.361 12.4051C16.095 12.5601 15.6868 13.2711 14.4174 15.7907C11.587 21.4085 10.8969 22.8497 10.8969 23.1425C10.8969 23.5645 11.193 23.9038 11.8386 24.2218C12.5681 24.5812 13.1179 24.5892 13.4503 24.2454C13.5881 24.1028 13.9405 23.4877 14.2333 22.8785L14.7658 21.7708H17.1504H19.5348L20.0207 22.7875C20.6424 24.088 20.9954 24.5045 21.4757 24.5045C22.3439 24.5045 23.5149 23.6065 23.3965 23.0315C23.3173 22.6475 18.5414 13.0059 18.2946 12.7321C17.814 12.1987 16.962 12.0546 16.361 12.4051ZM27.4213 15.9494C26.99 16.066 26.838 16.476 26.8361 17.5278L26.8344 18.4675L26.0434 18.4682C25.0721 18.4689 24.4146 18.6355 24.2577 18.9206C24.1924 19.0391 24.1391 19.4725 24.1391 19.8838C24.1391 20.9742 24.2878 21.0874 25.7211 21.0874H26.8344V22.1061C26.8344 23.0058 26.866 23.1607 27.1046 23.4303C27.3484 23.7057 27.4528 23.7357 28.1707 23.7357C29.3219 23.7357 29.4587 23.5756 29.5118 22.1665L29.5523 21.0874L30.625 21.0856C31.7724 21.0837 31.8819 21.0525 32.0902 20.6677C32.2566 20.3604 32.2673 19.2128 32.1064 18.9206C31.9495 18.6355 31.292 18.4689 30.3207 18.4682L29.5297 18.4675V17.5616C29.5297 17.0634 29.4697 16.5277 29.3963 16.3713C29.1842 15.9188 28.2622 15.7219 27.4213 15.9494ZM17.7437 19.2424C17.4627 19.2614 16.9753 19.2614 16.6603 19.2424L16.0878 19.2079L16.6077 18.1258L17.1276 17.0437L17.6911 18.1258L18.2544 19.2079L17.7437 19.2424ZM13.2446 30.3703L11.2993 32.2493L10.5415 31.5008C9.52942 30.5012 9.20235 30.2862 8.67348 30.2727C7.7913 30.2502 7.26407 30.7839 7.26407 31.6992C7.26407 32.173 7.30661 32.2262 8.99692 33.8691C10.6179 35.4447 10.7584 35.5535 11.1726 35.5535C11.4161 35.5535 11.7306 35.4968 11.8714 35.4275C12.2367 35.2476 16.7384 30.8879 16.9399 30.5188C17.0322 30.3495 17.1078 29.9985 17.1078 29.7386C17.1078 29.3529 17.0345 29.1945 16.7094 28.8786C16.3673 28.5461 16.2316 28.4913 15.7504 28.4913H15.1898L13.2446 30.3703ZM20.6115 30.916C20.0827 31.2617 19.8711 31.8595 20.0699 32.4453C20.1576 32.7043 20.3677 32.9694 20.6115 33.1288L21.0097 33.3893H27.9123C35.3519 33.3893 35.2406 33.3978 35.6749 32.795C35.7757 32.6552 35.8578 32.3082 35.8578 32.0224C35.8578 31.7366 35.7757 31.3895 35.6749 31.2498C35.2406 30.647 35.3519 30.6555 27.9123 30.6555H21.0097L20.6115 30.916ZM13.2446 42.2166L11.2993 44.0956L10.5415 43.3471C9.52942 42.3474 9.20235 42.1325 8.67348 42.1189C7.79306 42.0965 7.26407 42.6303 7.26407 43.5409C7.26407 44.0071 7.31528 44.0721 8.92778 45.6529C10.6668 47.3578 10.9416 47.5265 11.6871 47.347C12.0449 47.2609 16.6582 42.8863 16.9409 42.3651C17.0327 42.1958 17.1078 41.8448 17.1078 41.5848C17.1078 41.1991 17.0345 41.0408 16.7094 40.7248C16.3673 40.3923 16.2316 40.3376 15.7504 40.3376H15.1898L13.2446 42.2166ZM20.7519 42.6444C20.05 42.9985 19.7784 43.9799 20.2064 44.6149C20.6244 45.2349 20.6331 45.2355 27.9477 45.2355C35.2378 45.2355 35.2496 45.2346 35.6581 44.6286C35.7718 44.4598 35.8578 44.1107 35.8578 43.8175C35.8578 43.4097 35.7868 43.2254 35.5159 42.9308L35.174 42.5587L28.1038 42.5305C22.6364 42.5087 20.9697 42.5345 20.7519 42.6444Z" fill="#F2D6FF"/>
</svg>
