<svg width="510" height="501" viewBox="0 0 510 501" fill="none" xmlns="http://www.w3.org/2000/svg">
<path d="M203.055 426.567C203.055 426.567 201.333 392.076 203.055 381.319C204.777 370.563 205.518 352.134 202.67 347.4C202.67 347.4 185.876 356.165 176.433 340.872C166.99 325.58 164.287 319.706 165.186 298.583C166.086 277.46 164.287 267.54 166.985 242.352C169.684 217.164 171.031 208.159 177.333 200.063C183.635 191.967 188.128 180.72 192.626 174.423C197.123 168.126 214.22 165.874 223.216 165.422C232.212 164.97 235.815 159.125 242.559 158.687C242.559 158.687 236.714 151.038 234.463 129.896C232.212 108.754 233.116 93.9036 236.714 79.9578C240.313 66.012 246.61 49.8197 252.459 36.3213C258.309 22.8229 269.551 9.31973 281.698 4.81706C293.844 0.314386 307.492 -3.27909 320.24 4.81706C332.988 12.9132 349.627 31.809 354.577 48.0062C359.528 64.2033 365.825 70.5003 365.825 91.1904C365.825 111.881 365.372 125.826 358.176 140.224C350.979 154.622 349.18 159.12 349.18 159.12C349.18 159.12 362.226 159.12 371.222 164.07C380.218 169.02 398.214 162.718 409.461 172.619C420.708 182.519 434.202 211.757 435.553 228.421C436.905 245.085 441.398 266.655 437.353 278.802C433.307 290.948 431.056 311.643 423.402 318.84C415.748 326.037 412.602 330.087 399.109 330.087C399.109 330.087 408.104 345.832 407.205 370.125C406.305 394.419 403.607 395.318 405.406 407.912C407.205 420.506 406.608 426.582 406.608 426.582C406.608 426.582 320.1 469.083 203.055 426.567Z" fill="#232323"/>
<path d="M435.552 228.407C434.201 211.762 420.707 182.519 409.46 172.604C406.955 170.442 403.995 168.87 400.801 168.005C398.522 167.362 396.107 167.384 393.84 168.068C382.925 171.31 372.515 173.494 365.165 173.076C341.112 171.705 341.54 160.458 346.038 150.11C350.536 139.763 360.436 128.068 362.235 108.258C363.649 92.6819 357.174 68.1769 355.919 54.6112C355.705 52.3717 355.261 50.1601 354.596 48.0111V47.9775C349.636 31.814 332.982 12.9182 320.239 4.81723C307.496 -3.28374 293.834 0.324174 281.697 4.81723C270.979 8.78593 260.968 19.7636 254.758 31.5591C267.746 23.6986 296.845 8.94948 318.574 19.1719C347.38 32.7184 356.602 58.1325 332.318 41.8584C317.03 31.6168 287.58 30.3131 271.816 41.8584C256.052 53.4038 239.066 83.0945 237.661 103.116C236.886 114.18 240.465 125.48 243.217 136.044C244.53 141.105 245.921 146.18 246.796 151.342C247.155 153.246 247.353 155.177 247.388 157.114C247.373 158.777 246.969 160.413 246.209 161.891L245.295 163.71C242.943 168.395 242.933 174.442 243.636 179.551C244.338 184.66 246.392 189.509 250.265 192.972C263.253 204.58 281.418 211.387 296.403 214.956C311.387 218.526 335.527 200.635 344.378 206.432C353.23 212.229 351.426 233.674 322.187 232.173C292.949 230.672 273.514 218.887 265.235 222.735C256.956 226.583 237.151 227.17 238.955 208.895C240.1 197.292 234.144 183.529 225.322 173.778C222.948 171.142 219.91 169.193 216.525 168.134C213.14 167.076 209.532 166.946 206.08 167.76C200.177 169.165 194.847 171.291 192.61 174.418C188.112 180.715 183.614 191.962 177.317 200.058C171.02 208.154 169.669 217.155 166.97 242.348C164.271 267.54 166.07 277.436 165.171 298.578C164.271 319.72 166.97 325.57 176.418 340.868C185.866 356.165 202.655 347.396 202.655 347.396C205.502 352.129 204.757 370.558 203.039 381.315C201.322 392.071 203.039 426.563 203.039 426.563C320.085 469.078 406.598 426.563 406.598 426.563C406.598 426.563 407.194 420.492 405.395 407.893C403.596 395.294 406.295 394.423 407.194 370.106C408.094 345.789 399.098 330.068 399.098 330.068C412.568 330.068 415.743 326.022 423.391 318.821C431.04 311.62 433.287 290.92 437.342 278.783C441.397 266.646 436.899 245.051 435.552 228.407ZM379.197 410.39C377.802 411.337 376.168 411.872 374.483 411.934C372.236 411.992 370.081 411.14 367.931 410.491C362.923 408.99 357.67 408.567 352.46 408.129C343.036 407.359 332.963 405.43 323.524 405.762C314.99 406.065 306.76 410.423 298.789 413.088C284.508 417.847 269.313 419.201 254.416 417.043C246.69 415.917 238.955 413.776 232.475 409.418C225.995 405.06 220.891 398.233 219.934 390.484C218.01 374.984 230.628 369.548 243.636 369.101C258.409 368.591 273.942 372.468 288.177 366.878C295.104 364.146 301.054 359.292 308.034 356.694C314.938 354.126 322.466 353.904 329.821 353.726C346.466 353.313 364.039 353.159 378.543 361.332C380.857 362.64 383.113 364.189 384.657 366.354C386.485 368.923 387.163 372.127 387.543 375.258C388.688 384.355 387.976 394.9 384.546 403.506C383.489 406.282 381.626 408.679 379.197 410.39Z" fill="#161616"/>
<path d="M263.262 18.8686C274.99 14.8758 298.013 8.09297 309.14 12.0184C324.433 17.4206 335.944 21.8944 343.458 31.5781C345.604 34.3393 347.567 35.6863 349.279 36.2058C341.938 23.4531 329.955 10.9985 320.238 4.81699C307.49 -3.27916 293.842 0.319129 281.696 4.81699C275.033 7.28961 268.64 12.4706 263.262 18.8686Z" fill="#111111"/>
<path d="M435.551 228.406C434.2 211.762 420.706 182.519 409.459 172.604C407.636 171.01 405.551 169.744 403.297 168.861C399.704 167.445 395.7 167.492 392.141 168.991C385.546 171.733 376.656 179.796 371.22 182.499C367.309 184.423 362.936 178.001 354.258 176.65C346.561 175.452 338.965 172.484 340.173 156.133C338.871 159.8 337.918 163.582 337.325 167.428C336.975 169.985 335.709 172.329 333.763 174.024C331.817 175.72 329.323 176.653 326.742 176.65H265.34C263.278 176.648 261.284 175.911 259.717 174.571C258.149 173.23 257.112 171.375 256.791 169.338C255.629 161.567 253.731 153.924 251.125 146.512L250.749 145.434C250.211 143.904 249.665 142.342 249.114 140.749C248.864 145.27 248.825 149.999 249.311 153.737C250.663 164.085 252.832 187.699 269.333 194.449C292.187 203.8 305.508 209.737 321.965 203.444C337.262 197.6 349.928 179.363 356.302 188.368C362.676 197.373 355.778 232.673 356.302 240.216C356.827 247.759 348.606 240.769 336.743 240.216C324.88 239.663 295.045 235.887 279.603 239.119C264.161 242.352 243.202 238.73 240.157 243.694C237.111 248.659 231.786 246.475 232.214 227.098C232.642 207.721 229.944 190.177 223.195 183.428C220.207 180.436 214.536 174.427 207.873 170.439C206.621 169.694 205.214 169.248 203.762 169.135C202.309 169.021 200.85 169.244 199.498 169.785C196.438 171.007 193.956 172.532 192.604 174.422C188.106 180.719 183.609 191.966 177.312 200.063C171.015 208.159 169.663 217.159 166.964 242.352C164.265 267.545 166.064 277.44 165.165 298.583C164.265 319.725 166.964 325.575 176.412 340.872C185.86 356.17 202.649 347.4 202.649 347.4C203.577 348.939 204.121 351.932 204.381 355.636C204.914 363.333 204.198 374.06 203.038 381.319C201.316 392.076 203.038 426.567 203.038 426.567C320.084 469.083 406.597 426.567 406.597 426.567C406.597 426.567 407.193 420.496 405.394 407.897C403.859 397.156 405.596 394.909 406.703 379.419C406.796 378.111 406.882 376.699 406.962 375.186V374.936C406.962 374.657 406.991 374.368 407.006 374.079C407.006 373.969 407.006 373.858 407.006 373.747C407.006 373.483 407.006 373.213 407.044 372.939V372.55C407.044 372.275 407.073 371.992 407.083 371.708V371.352C407.083 370.943 407.116 370.534 407.131 370.115C407.164 369.264 407.179 368.422 407.188 367.59V366.83C407.188 366.248 407.188 365.671 407.188 365.103V364.285C407.188 363.722 407.15 363.159 407.126 362.606C407.126 362.37 407.126 362.125 407.092 361.904C407.059 361.24 407.015 360.581 406.967 359.932C406.967 359.826 406.967 359.725 406.967 359.624C406.842 358.036 406.678 356.502 406.486 355.02L406.457 354.828C406.371 354.149 406.274 353.485 406.169 352.826L406.14 352.624C403.912 338.544 399.083 330.077 399.083 330.077C412.552 330.077 415.727 326.032 423.376 318.83C431.025 311.629 433.271 290.929 437.326 278.792C441.382 266.655 436.898 245.051 435.551 228.406ZM395.6 361.923C400.254 369.722 402.148 378.86 400.978 387.866C398.674 405.29 391.487 423.335 375.718 420.929C349.178 416.884 343.328 415.532 302.011 424.388C260.693 433.244 219.616 425.446 212.866 400.725C210.082 390.39 209.84 379.535 212.159 369.086C212.793 366.082 214.327 363.341 216.557 361.231C218.787 359.12 221.608 357.739 224.643 357.271C225.659 357.125 226.685 357.051 227.712 357.05C243.457 357.089 259.206 364.747 281.696 355.289C304.185 345.832 311.839 335.648 322.186 334.897C332.534 334.147 342.9 347.169 356.37 346.27C369.839 345.37 386.161 343.33 391.737 354.929C392.632 356.781 393.974 359.191 395.6 361.923Z" fill="#111111"/>
<path d="M349.48 65.2807C345.579 57.0643 339.2 51.1521 329.973 47.2075C322.007 43.8016 312.968 42.3007 304.391 41.0596C295.424 39.756 287.073 41.1558 279.515 45.2063C273.194 48.6074 267.436 53.9086 262.4 60.9657C253.057 74.06 248.266 83.3924 243.427 97.9395C238.174 113.733 245.144 132.378 250.744 147.363L251.119 148.373C253.722 155.303 255.622 162.476 256.79 169.785C257.392 173.71 261.067 176.669 265.344 176.669H326.745C332.085 176.669 336.631 172.95 337.329 168.01C338.714 158.168 345.776 143.861 351.452 132.369C353.011 129.218 354.483 126.235 355.782 123.464C363.613 106.849 357.663 82.5121 349.48 65.2807Z" fill="url(#paint0_linear_1802_18087)"/>
<path d="M261.019 171.887C260.42 168.68 259.696 165.504 258.85 162.358C257.989 159.212 257.041 156.104 255.963 153.011C254.886 149.918 253.654 146.897 252.5 143.823C251.345 140.749 250.263 137.655 249.243 134.533C248.223 131.411 247.377 128.236 246.631 125.033C245.912 121.82 245.429 118.56 245.188 115.277L245.106 112.809C245.082 112.397 245.082 111.984 245.106 111.573L245.159 110.336L245.217 109.1L245.361 107.869L245.505 106.637C245.505 106.435 245.549 106.228 245.582 106.026L245.702 105.415C245.871 104.602 246.02 103.789 246.184 102.986L246.895 100.581C247.131 99.7869 247.444 99.0316 247.708 98.2571L248.545 95.9384C249.681 92.8597 250.855 89.7906 252.139 86.7647C253.423 83.7389 254.838 80.7467 256.367 77.8123C257.897 74.8778 259.542 71.9963 261.284 69.1533C262.155 67.7342 263.049 66.3343 263.954 64.9393C264.411 64.2465 264.858 63.549 265.33 62.8563L266.773 60.7878C268.779 58.0305 271.052 55.4782 273.56 53.1678C276.134 50.7977 279.01 48.7789 282.114 47.1643C285.303 45.5307 288.733 44.4167 292.273 43.8642L293.611 43.6863C294.053 43.6134 294.5 43.5668 294.948 43.5468C295.848 43.5035 296.747 43.4602 297.642 43.4409L300.326 43.5468C300.774 43.5468 301.216 43.6382 301.659 43.6814L302.986 43.8402C303.886 43.9316 304.723 44.1 305.584 44.2395C306.445 44.379 307.292 44.5329 308.148 44.7205C309.856 45.0476 311.559 45.3988 313.252 45.8029C316.64 46.5845 319.983 47.548 323.268 48.6892C326.553 49.7994 329.726 51.2168 332.745 52.9225C334.235 53.775 335.658 54.7399 337.002 55.8088C338.342 56.8592 339.598 58.0124 340.759 59.258C341.9 60.506 342.947 61.8374 343.891 63.2411C344.823 64.6347 345.653 66.0946 346.373 67.6091C347.816 70.582 349.12 73.6223 350.293 76.7059C351.467 79.7894 352.506 82.9211 353.387 86.096C354.262 89.2681 354.959 92.4866 355.474 95.7364C355.999 98.9963 356.274 102.291 356.297 105.593C356.297 107.243 356.225 108.898 356.076 110.548C355.913 112.198 355.66 113.837 355.32 115.46C354.976 117.092 354.522 118.699 353.964 120.27C353.398 121.84 352.723 123.369 351.943 124.845L347.523 133.687C346.079 136.631 344.689 139.618 343.371 142.62C342.053 145.622 340.764 148.633 339.489 151.645C338.844 153.15 338.229 154.661 337.608 156.171C336.987 157.682 336.405 159.207 335.876 160.746C334.742 163.804 333.81 166.932 333.086 170.112C333.372 166.849 333.999 163.624 334.957 160.491C335.886 157.336 336.984 154.234 338.248 151.197C340.725 145.093 343.886 139.281 346.671 133.331L348.754 128.862C349.437 127.364 350.107 125.866 350.765 124.369C351.431 122.901 351.992 121.389 352.444 119.842C352.892 118.309 353.239 116.749 353.483 115.171C353.723 113.593 353.853 112.001 353.964 110.409C354.074 108.816 354.075 107.219 354.007 105.622C354.007 104.823 353.945 104.02 353.916 103.217C353.887 102.413 353.82 101.62 353.733 100.812C353.598 99.2144 353.406 97.6221 353.185 96.0298C352.216 89.6372 350.707 83.3384 348.672 77.2013C347.652 74.1194 346.496 71.0727 345.204 68.0613C343.948 65.0484 342.222 62.254 340.09 59.7823C338.99 58.5415 337.795 57.3883 336.516 56.3332C335.214 55.2755 333.833 54.3202 332.384 53.4757C329.441 51.7596 326.296 50.4152 323.022 49.4733C319.716 48.5438 316.353 47.8303 312.954 47.3375C311.251 47.0825 309.548 46.8564 307.835 46.6159L305.271 46.2743C304.42 46.1637 303.554 46.0386 302.727 45.9713C296.081 45.125 289.333 46.2666 283.335 49.2521C280.387 50.732 277.639 52.5813 275.157 54.7553C272.691 56.9254 270.422 59.3113 268.379 61.8846L266.893 63.8473C266.412 64.5063 265.931 65.1846 265.45 65.8484C264.488 67.1954 263.526 68.5424 262.602 69.9086C260.75 72.6409 258.984 75.4263 257.349 78.2789C254.103 83.9868 251.414 89.9941 249.32 96.2174C248.791 97.7616 248.291 99.3202 247.877 100.884L247.3 103.226C247.16 104.015 247.054 104.809 246.929 105.603C246.572 108.798 246.537 112.021 246.823 115.224C247.13 118.431 247.612 121.619 248.266 124.773C248.95 127.933 249.791 131.07 250.71 134.192C251.629 137.314 252.678 140.402 253.741 143.491C254.804 146.579 255.91 149.663 256.892 152.799C257.873 155.936 258.72 159.096 259.403 162.29C260.086 165.485 260.639 168.65 261.019 171.887Z" fill="#282828"/>
<path d="M435.552 228.406C434.2 211.762 420.707 182.519 409.46 172.604C407.639 171.017 405.56 169.754 403.312 168.871C396.274 169.035 388.043 171.483 381.794 180.027C368.296 198.47 367.396 216.014 367.396 229.508C367.396 243.002 375.045 254.475 367.396 255.711C359.748 256.947 344.229 249.077 333.434 250.877C322.639 252.676 323.534 249.077 311.839 248.63C300.145 248.183 300.14 245.032 283.938 248.63C267.736 252.228 256.946 243.233 249.75 249.53C248.027 251.035 246.863 253.859 246.045 257.279C244.545 263.677 244.381 272.192 244.496 278.08C247.493 278.965 250.587 279.971 253.526 281.12C256.611 282.273 259.567 283.747 262.344 285.517C271.792 291.814 282.139 297.664 298.331 303.514C314.524 309.363 322.177 315.66 322.177 315.66C322.177 315.66 333.872 323.304 347.817 324.204C361.763 325.103 372.111 332.752 399.103 330.053C412.572 330.053 415.747 326.008 423.396 318.806C431.045 311.605 433.291 290.905 437.347 278.768C441.402 266.631 436.899 245.051 435.552 228.406Z" fill="#2B2B2B"/>
<path d="M298.34 303.552C282.148 297.703 271.801 291.853 262.353 285.556C259.576 283.785 256.62 282.312 253.535 281.159C250.596 280.009 247.503 279.004 244.506 278.119C238.358 276.3 232.619 274.968 229.511 273.862C228.65 273.554 227.856 273.313 227.139 273.068C222.627 271.524 221.256 269.816 225.913 250.016C231.315 227.074 225.913 214.028 218.269 190.187C210.625 166.346 192.624 174.442 192.624 174.442C188.126 180.739 183.628 191.986 177.331 200.082C171.034 208.178 169.682 217.179 166.984 242.372C164.285 267.565 166.084 277.46 165.184 298.602C164.285 319.745 166.984 325.594 176.432 340.892C185.879 356.189 202.668 347.42 202.668 347.42C226.211 340.906 239.859 349.435 273.6 343.571C307.341 337.707 322.186 315.67 322.186 315.67C322.186 315.67 314.518 309.378 298.34 303.552Z" fill="#2B2B2B"/>
<path d="M244.505 278.099C244.389 272.192 244.553 263.697 246.054 257.299C241.022 258.545 230.66 262.354 227.139 273.048C227.855 273.294 228.649 273.529 229.51 273.842C232.618 274.948 238.357 276.281 244.505 278.099Z" fill="#D5AD95"/>
<path d="M229.511 273.842C232.618 274.949 238.357 276.281 244.505 278.1C244.394 272.611 244.534 264.89 245.756 258.689C241.354 261.402 242.085 269.561 241.806 272.043C241.508 274.742 236.26 273.842 232.214 272.043C231.412 271.73 230.727 271.176 230.252 270.457C229.778 269.739 229.537 268.892 229.563 268.031C228.544 269.59 227.735 271.277 227.158 273.048C227.856 273.294 228.649 273.534 229.511 273.842Z" fill="#B9937E"/>
<path d="M244.591 257.693C240.656 258.857 234.821 261.344 230.723 266.444C231.911 266.665 233.672 266.506 235.812 264.842C239.858 261.696 239.858 260.796 243.028 259.444C243.753 259.081 244.312 258.455 244.591 257.693Z" fill="#E8C0A8"/>
<path d="M244.505 278.537C244.464 278.544 244.421 278.544 244.38 278.537C241.696 277.748 239.088 277.041 236.751 276.416C233.734 275.608 231.127 274.905 229.362 274.275C228.842 274.087 228.346 273.929 227.88 273.794L226.995 273.501C226.939 273.482 226.887 273.453 226.842 273.414C226.798 273.376 226.761 273.329 226.735 273.276C226.708 273.223 226.693 273.166 226.689 273.107C226.684 273.048 226.692 272.989 226.711 272.933C230.237 262.249 240.277 258.294 245.953 256.89C246.028 256.87 246.107 256.87 246.182 256.89C246.257 256.91 246.325 256.949 246.38 257.003C246.436 257.058 246.476 257.125 246.497 257.2C246.518 257.274 246.52 257.353 246.501 257.428C245.015 263.764 244.847 272.178 244.967 278.114C244.968 278.174 244.956 278.233 244.934 278.288C244.911 278.344 244.878 278.394 244.836 278.437C244.794 278.479 244.744 278.513 244.689 278.536C244.634 278.559 244.575 278.571 244.515 278.571L244.505 278.537ZM227.711 272.765L228.159 272.909C228.64 273.063 229.121 273.226 229.665 273.419C231.396 274.034 233.994 274.732 236.986 275.54C239.137 276.117 241.561 276.767 244.043 277.493C243.952 271.774 244.144 264.024 245.453 257.919C239.954 259.401 231.074 263.225 227.711 272.765Z" fill="#977763"/>
<path d="M202.668 347.4C226.211 340.887 239.858 349.416 273.6 343.552C307.341 337.688 322.186 315.651 322.186 315.651C322.186 315.651 314.518 309.378 298.34 303.552C282.162 297.727 271.8 291.853 262.353 285.556C259.576 283.785 256.62 282.312 253.535 281.159C250.596 280.009 247.502 279.004 244.505 278.119C238.358 276.3 232.619 274.968 229.511 273.862C228.65 273.554 227.856 273.313 227.139 273.068C222.627 271.524 221.256 269.816 225.913 250.016C231.315 227.074 225.913 214.028 218.269 190.187C210.625 166.346 192.624 174.442 192.624 174.442C189.949 178.185 187.274 183.678 184.22 189.22C190.425 186.641 199.132 184.732 204.424 190.957C213.314 201.434 220.299 223.668 216.797 240.226C213.295 256.784 197.944 279.153 210.577 285.729C223.209 292.305 239.632 283.141 253.467 293.118C267.303 303.095 290.807 307.737 297.946 313.52C305.085 319.302 291.529 333.041 269.968 330.664C248.407 328.288 239.661 334.234 219.731 334.859C199.801 335.485 182.368 335.085 176.917 319.769C173.016 308.796 170.447 277.758 165.612 260.363C165.064 273.914 165.824 283.324 165.175 298.602C164.275 319.769 166.974 325.594 176.422 340.892C185.87 356.189 202.668 347.4 202.668 347.4Z" fill="#161616"/>
<path d="M202.668 347.4C226.211 340.887 239.859 349.416 273.6 343.552C307.341 337.688 322.186 315.651 322.186 315.651C322.186 315.651 314.518 309.378 298.34 303.552C282.163 297.727 271.801 291.853 262.353 285.556C259.576 283.785 256.62 282.312 253.535 281.159C250.596 280.009 247.503 279.004 244.506 278.119C238.358 276.3 232.619 274.968 229.511 273.862C228.65 273.554 227.856 273.313 227.139 273.068C222.627 271.524 221.256 269.816 225.913 250.016C231.315 227.074 225.913 214.028 218.269 190.187C210.625 166.346 192.624 174.442 192.624 174.442C191.004 176.815 189.526 179.283 188.198 181.831C195.659 179.907 208.123 179.127 213.319 192.895C220.968 213.138 227.712 227.084 222.315 241.929C216.917 256.774 204.323 277.469 218.269 280.168C232.215 282.867 243.457 280.168 254.257 286.903C265.056 293.638 272.7 299.497 284.847 303.547C296.993 307.598 309.708 311.105 302.011 321.938C294.314 332.771 285.294 338.188 265.932 337.269C246.569 336.351 233.095 338.169 221.848 339.521C210.601 340.872 189.906 347.617 180.477 333.224C171.049 318.831 169.24 315.68 167.883 302.633C167.046 294.557 167.359 284.907 165.439 278.677C165.483 284.676 165.512 290.886 165.184 298.583C164.285 319.749 166.984 325.575 176.432 340.872C185.879 356.17 202.668 347.4 202.668 347.4Z" fill="#111111"/>
<path d="M438.997 265.265C438.997 265.145 438.997 265.019 438.997 264.899C438.997 264.418 438.997 263.937 438.968 263.456C438.968 263.22 438.968 262.975 438.968 262.744C438.968 262.263 438.929 261.748 438.905 261.248L438.876 260.56C438.848 260.041 438.814 259.511 438.78 258.982L438.737 258.338C438.698 257.78 438.655 257.222 438.612 256.654L438.569 256.086C438.516 255.485 438.463 254.874 438.405 254.268C438.405 254.114 438.381 253.965 438.367 253.787L438.164 251.752L438.136 251.492C437.972 249.889 437.796 248.285 437.606 246.682C436.87 240.385 436.038 234.088 435.576 228.373C434.879 219.796 430.963 207.88 425.787 196.984C425.239 204.229 425.628 213.143 428.736 221.946C435.846 242.068 429.905 265.015 429.905 265.015C428.009 270.186 426.706 274.669 426.6 277.46C426.172 288.76 412.649 309.796 399.406 309.95C386.162 310.104 364.948 316.993 350.819 309.95C336.691 302.907 314.11 304.399 303.926 295.422C293.742 286.446 279.45 283.737 267.987 280.461C256.523 277.185 252.458 260.777 267.987 261.421C278.137 261.844 291.236 253.142 299.092 247.062C295.724 246.735 291.674 246.913 283.948 248.63C267.751 252.228 256.956 243.233 249.759 249.53C248.037 251.035 246.873 253.859 246.055 257.279C244.554 263.677 244.391 272.192 244.506 278.08C247.503 278.965 250.596 279.971 253.536 281.12C256.621 282.273 259.576 283.746 262.353 285.517C271.801 291.814 282.149 297.664 298.341 303.513C314.533 309.363 322.187 315.66 322.187 315.66C322.187 315.66 333.881 323.304 347.827 324.204C361.773 325.103 372.12 332.752 399.112 330.053C412.582 330.053 415.757 326.008 423.406 318.806C431.054 311.605 433.301 290.905 437.356 278.768C438.597 275.04 439.03 270.388 438.997 265.265Z" fill="#161616"/>
<path d="M438.749 270.73C438.802 270.037 438.841 269.33 438.87 268.608C438.87 268.531 438.87 268.454 438.87 268.382C438.898 267.646 438.913 266.896 438.913 266.136V265.9C438.913 265.159 438.913 264.409 438.884 263.653C438.884 263.504 438.884 263.36 438.884 263.211C438.884 263.062 438.884 262.812 438.884 262.609C438.504 251.685 436.363 239.038 435.517 228.397C434.906 220.883 431.822 210.809 427.589 201.102C427.873 209.717 432.799 223.822 433.568 230.961C434.194 236.801 434.824 242.853 435.315 247.649C435.949 253.806 435.83 260.017 434.959 266.145C434.81 268.193 434.396 270.213 433.727 272.154C433.212 273.65 431.37 280.303 431.24 281.703C430.793 286.653 428.767 295.422 416.169 311.619C403.57 327.816 385.131 326.917 363.989 319.268C342.846 311.619 327.958 315.679 309.514 303.552C291.07 291.425 284.321 291.853 269.028 285.108C253.736 278.364 252.831 274.309 251.869 267.723C250.907 261.137 260.047 255.418 265.877 255.418C268.894 255.418 272.261 252.43 274.82 249.534C263.52 249.284 255.448 244.527 249.685 249.568C247.958 251.074 246.799 253.898 245.981 257.318C244.48 263.716 244.317 272.231 244.432 278.119C247.429 279.004 250.522 280.009 253.457 281.159C256.543 282.311 259.5 283.785 262.279 285.556C271.727 291.853 282.075 297.702 298.267 303.552C314.459 309.402 322.113 315.699 322.113 315.699C322.113 315.699 333.807 323.323 347.753 324.237C361.699 325.151 372.046 332.786 399.038 330.087C412.508 330.087 415.683 326.041 423.331 318.84C430.98 311.639 433.227 290.939 437.282 278.802C438.081 276.217 438.565 273.546 438.725 270.845C438.744 270.802 438.749 270.763 438.749 270.73Z" fill="#111111"/>
<g filter="url(#filter0_d_1802_18087)">
<path d="M297.681 110.327C298.952 109.415 300.48 108.929 302.045 108.938C303.61 108.948 305.132 109.452 306.392 110.38C306.489 110.444 306.568 110.532 306.622 110.635C306.676 110.738 306.702 110.853 306.7 110.97C306.697 111.086 306.664 111.2 306.606 111.3C306.547 111.4 306.464 111.484 306.364 111.544C304.92 112.439 301.712 113.819 297.705 111.496C297.604 111.436 297.52 111.352 297.461 111.251C297.402 111.149 297.37 111.035 297.367 110.918C297.365 110.801 297.392 110.685 297.447 110.582C297.502 110.478 297.582 110.39 297.681 110.327Z" fill="#B968FB"/>
</g>
<path d="M324.067 124.797C323.831 124.581 323.523 124.462 323.204 124.462C322.884 124.462 322.576 124.581 322.34 124.797C321.27 125.747 320.135 126.621 318.944 127.414C319.069 126.139 319.175 124.859 319.271 123.565C319.28 123.413 319.259 123.261 319.209 123.117C319.159 122.973 319.081 122.841 318.979 122.727C318.878 122.613 318.755 122.521 318.617 122.455C318.48 122.389 318.331 122.351 318.179 122.343C317.87 122.32 317.565 122.418 317.326 122.615C317.087 122.812 316.935 123.094 316.899 123.402C316.797 124.412 316.689 125.422 316.577 126.432C315.544 125.656 314.537 124.864 313.556 124.056C313.314 123.86 313.006 123.763 312.695 123.785C312.384 123.807 312.093 123.947 311.882 124.176C311.777 124.287 311.696 124.417 311.644 124.56C311.592 124.703 311.569 124.855 311.578 125.007C311.586 125.158 311.626 125.307 311.694 125.443C311.762 125.579 311.857 125.699 311.973 125.797C313.304 126.92 314.683 128.012 316.11 129.073C312.533 130.942 308.617 132.072 304.594 132.397L304.493 128.467C304.469 128.153 304.327 127.86 304.095 127.647C303.863 127.435 303.558 127.319 303.243 127.323C302.928 127.327 302.627 127.452 302.401 127.671C302.174 127.889 302.04 128.186 302.025 128.501V132.499C301.414 132.499 300.803 132.474 300.192 132.436L300.264 128.487C300.257 128.17 300.129 127.869 299.906 127.644C299.684 127.42 299.383 127.289 299.067 127.279C298.751 127.269 298.443 127.381 298.207 127.591C297.97 127.801 297.824 128.094 297.797 128.41C297.744 129.66 297.686 130.916 297.633 132.167C296.237 131.964 294.856 131.667 293.501 131.277C291.283 130.645 289.143 129.766 287.122 128.655C288.52 127.712 289.88 126.737 291.201 125.73C291.323 125.638 291.424 125.522 291.499 125.39C291.574 125.257 291.621 125.111 291.637 124.959C291.653 124.808 291.639 124.655 291.593 124.509C291.548 124.364 291.474 124.229 291.375 124.114C291.174 123.875 290.889 123.721 290.579 123.684C290.269 123.648 289.956 123.731 289.705 123.916C288.464 124.847 287.181 125.749 285.857 126.625C285.674 124.999 285.511 123.373 285.376 121.747C285.346 121.442 285.2 121.159 284.966 120.96C284.733 120.761 284.431 120.66 284.125 120.679C283.973 120.686 283.825 120.724 283.687 120.789C283.55 120.854 283.427 120.945 283.325 121.058C283.223 121.17 283.145 121.302 283.094 121.445C283.043 121.588 283.02 121.74 283.028 121.891C283.121 123.325 283.229 124.758 283.351 126.192C282.812 125.77 282.296 125.318 281.806 124.84C281.582 124.613 281.281 124.477 280.962 124.459C280.643 124.44 280.329 124.54 280.079 124.739C279.961 124.837 279.865 124.96 279.797 125.098C279.729 125.236 279.69 125.387 279.684 125.541C279.679 125.694 279.705 125.848 279.762 125.991C279.82 126.133 279.906 126.263 280.017 126.37C280.86 127.196 281.767 127.954 282.73 128.636C281.447 129.418 280.124 130.177 278.761 130.911C278.622 130.98 278.5 131.079 278.404 131.201C278.308 131.324 278.24 131.465 278.206 131.617C278.171 131.768 278.171 131.926 278.205 132.077C278.238 132.229 278.305 132.371 278.401 132.494C278.608 132.77 278.907 132.962 279.244 133.036C279.582 133.111 279.934 133.061 280.238 132.898C281.463 132.218 282.664 131.516 283.841 130.791C283.981 132.022 284.13 133.259 284.293 134.49C284.348 134.762 284.487 135.011 284.69 135.199C284.894 135.388 285.153 135.506 285.429 135.539C285.547 135.551 285.666 135.551 285.785 135.539C285.945 135.541 286.103 135.509 286.25 135.446C286.397 135.382 286.528 135.288 286.636 135.17C286.744 135.052 286.825 134.912 286.875 134.76C286.925 134.608 286.942 134.447 286.925 134.288C286.752 133.158 286.583 132.032 286.444 130.921C288.439 131.965 290.534 132.807 292.697 133.432C294.297 133.897 295.929 134.242 297.58 134.461L297.407 138.334C297.45 138.658 297.607 138.956 297.85 139.176C298.092 139.395 298.405 139.521 298.732 139.531C299.059 139.542 299.379 139.436 299.635 139.232C299.891 139.029 300.066 138.741 300.13 138.42C300.155 137.182 300.178 135.946 300.197 134.711C300.813 134.745 301.433 134.764 302.073 134.764V138.435C302.131 138.756 302.301 139.046 302.553 139.254C302.805 139.462 303.122 139.573 303.449 139.569C303.775 139.565 304.09 139.446 304.336 139.232C304.583 139.018 304.746 138.724 304.796 138.401C304.767 137.157 304.735 135.911 304.7 134.663C308.587 134.366 312.391 133.378 315.932 131.748C315.769 132.912 315.591 134.073 315.398 135.231C315.382 135.39 315.4 135.552 315.45 135.704C315.5 135.856 315.582 135.996 315.69 136.115C315.798 136.233 315.93 136.327 316.077 136.392C316.224 136.456 316.383 136.488 316.543 136.486C316.657 136.499 316.771 136.499 316.885 136.486C317.165 136.458 317.43 136.342 317.639 136.153C317.848 135.964 317.992 135.714 318.049 135.438C318.261 133.913 318.453 132.393 318.626 130.868C319.787 131.669 320.974 132.455 322.186 133.225C322.498 133.411 322.869 133.473 323.225 133.398C323.542 133.333 323.829 133.164 324.038 132.917C324.141 132.801 324.217 132.663 324.26 132.514C324.303 132.365 324.313 132.208 324.288 132.055C324.263 131.901 324.204 131.755 324.116 131.628C324.028 131.5 323.913 131.393 323.778 131.315C322.659 130.626 321.562 129.92 320.488 129.198C321.738 128.36 322.929 127.435 324.053 126.432C324.168 126.33 324.261 126.205 324.324 126.064C324.388 125.924 324.422 125.772 324.423 125.618C324.425 125.464 324.394 125.311 324.332 125.17C324.271 125.028 324.181 124.901 324.067 124.797Z" fill="#FF007A"/>
<g filter="url(#filter1_d_1802_18087)">
<path d="M293.393 94.4523C291.727 93.4723 290.113 92.4061 288.558 91.2581L288.077 90.8828C288.077 90.8828 287.913 90.753 287.851 90.7049L287.75 90.6279C287.36 90.32 286.975 90.0073 286.591 89.6658C286.109 89.2569 285.628 88.8287 285.147 88.4006C286.983 86.7124 288.592 84.793 289.934 82.6905C291.153 80.7655 292.106 78.6845 292.767 76.5041C292.887 76.0583 292.827 75.5832 292.599 75.1817C292.371 74.7801 291.994 74.4844 291.55 74.3586C291.105 74.2451 290.632 74.3083 290.232 74.5352C289.832 74.7621 289.536 75.135 289.405 75.5757C289.27 76.0182 289.126 76.4608 288.962 76.8938C288.88 77.1102 288.794 77.3219 288.712 77.5384L288.688 77.5961C288.645 77.6923 288.606 77.7933 288.563 77.8847C288.184 78.7283 287.757 79.5491 287.283 80.3429C286.796 81.1452 286.266 81.9208 285.696 82.6664V82.6953L285.479 82.9647C285.335 83.1475 285.186 83.3255 285.037 83.5035C284.735 83.8594 284.423 84.2058 284.099 84.5425C283.618 85.0525 283.137 85.5383 282.603 85.9857C281.855 85.232 281.134 84.4559 280.438 83.6574C279.816 82.9486 279.216 82.2255 278.639 81.4878L278.485 81.2954L278.336 81.0982L277.96 80.6171C277.662 80.2179 277.373 79.8138 277.09 79.4097C275.851 77.631 274.718 75.7805 273.698 73.8679C273.582 73.6688 273.427 73.4946 273.243 73.3554C273.058 73.2161 272.849 73.1146 272.625 73.0565C272.402 72.9984 272.169 72.9849 271.941 73.0169C271.712 73.0488 271.492 73.1255 271.293 73.2426C270.897 73.4836 270.61 73.8695 270.493 74.3185C270.376 74.7675 270.439 75.2443 270.668 75.6478C273.128 80.247 276.227 84.4755 279.87 88.2082C278.369 89.2564 276.779 90.1707 275.117 90.9406C274.877 91.056 274.636 91.1619 274.396 91.2677L274.213 91.3446L273.948 91.4505C273.467 91.6477 272.986 91.8305 272.462 92.0037C271.417 92.3637 270.354 92.6688 269.277 92.9177C268.833 93.0435 268.456 93.3392 268.229 93.7407C268.001 94.1423 267.94 94.6174 268.06 95.0632C268.19 95.5046 268.487 95.8782 268.887 96.1053C269.287 96.3323 269.76 96.3951 270.206 96.2803C274.613 95.2529 278.766 93.3432 282.415 90.6664C283.621 91.7664 284.875 92.8151 286.177 93.8125C287.922 95.1429 289.745 96.367 291.637 97.4781C291.835 97.6072 292.057 97.6948 292.29 97.7354C292.523 97.7761 292.762 97.769 292.992 97.7147C293.222 97.6603 293.439 97.5597 293.629 97.4191C293.819 97.2785 293.978 97.1007 294.098 96.8966C294.217 96.6925 294.294 96.4662 294.323 96.2316C294.352 95.9969 294.334 95.7588 294.268 95.5316C294.203 95.3044 294.092 95.0928 293.942 94.9098C293.792 94.7267 293.607 94.576 293.397 94.4667L293.393 94.4523Z" fill="#B968FB"/>
</g>
<g filter="url(#filter2_d_1802_18087)">
<path d="M333.351 94.5434C332.533 93.9613 331.725 93.3696 330.946 92.7587L330.681 92.5567L330.609 92.5037L330.571 92.4701L329.979 91.989C329.585 91.6763 329.19 91.3588 328.805 91.0269C327.247 89.7569 325.736 88.4292 324.269 87.0582C324.048 86.8513 323.836 86.6349 323.619 86.428C325.441 84.6296 327.158 82.7279 328.762 80.7323C330.146 79.0189 331.43 77.2281 332.61 75.3686C332.846 74.9665 332.912 74.4876 332.795 74.0368C332.677 73.5859 332.386 73.1999 331.985 72.9633C331.581 72.7345 331.105 72.6718 330.656 72.7885C330.207 72.9053 329.821 73.1923 329.58 73.5887C329.099 74.3632 328.579 75.128 328.05 75.8737C327.814 76.2104 327.569 76.5423 327.324 76.8743L326.929 77.4563L326.814 77.6055L326.636 77.8316C325.476 79.3084 324.23 80.7179 322.956 82.0985C322.35 82.7383 321.734 83.3685 321.104 83.9794C319.353 82.1707 317.664 80.2994 316.067 78.3511C314.624 76.6049 313.527 75.128 312.151 73.1605C311.911 72.7632 311.525 72.4754 311.076 72.3585C310.626 72.2417 310.149 72.3051 309.746 72.5352C309.005 73.0162 308.562 74.1226 309.121 74.9404C311.95 78.992 315.094 82.8138 318.525 86.3703C317.895 86.9235 317.25 87.4719 316.601 88.0011L316.067 88.4244L315.798 88.6361L315.73 88.689C315.355 88.9776 314.975 89.2614 314.595 89.5404C312.935 90.7504 311.203 91.8589 309.409 92.8597C309.008 93.0964 308.717 93.4824 308.6 93.9332C308.482 94.384 308.549 94.8629 308.784 95.265C309.025 95.6614 309.411 95.9484 309.86 96.0651C310.309 96.1819 310.785 96.1192 311.189 95.8904C314.715 93.9149 318.018 91.565 321.041 88.8814C322.6 90.3727 324.203 91.8158 325.852 93.2109C327.702 94.7471 329.612 96.2127 331.581 97.6077C331.78 97.7254 332 97.8026 332.229 97.8349C332.457 97.8672 332.69 97.8539 332.914 97.7957C333.137 97.7376 333.347 97.6358 333.531 97.4962C333.715 97.3566 333.87 97.182 333.986 96.9824C334.222 96.574 334.288 96.0891 334.169 95.6326C334.05 95.1762 333.756 94.7849 333.351 94.5434Z" fill="#B968FB"/>
</g>
<g filter="url(#filter3_d_1802_18087)">
<path d="M324.067 124.797C323.831 124.581 323.523 124.462 323.204 124.462C322.884 124.462 322.576 124.581 322.34 124.797C321.27 125.747 320.135 126.621 318.944 127.414C319.069 126.139 319.175 124.859 319.271 123.565C319.28 123.413 319.259 123.261 319.209 123.117C319.159 122.973 319.081 122.841 318.979 122.727C318.878 122.613 318.755 122.521 318.617 122.455C318.48 122.389 318.331 122.351 318.179 122.343C317.87 122.32 317.565 122.418 317.326 122.615C317.087 122.812 316.935 123.094 316.899 123.402C316.797 124.412 316.689 125.422 316.577 126.432C315.544 125.656 314.537 124.864 313.556 124.056C313.314 123.86 313.006 123.763 312.695 123.785C312.384 123.807 312.093 123.947 311.882 124.176C311.777 124.287 311.696 124.417 311.644 124.56C311.592 124.703 311.569 124.855 311.578 125.007C311.586 125.158 311.626 125.307 311.694 125.443C311.762 125.579 311.857 125.699 311.973 125.797C313.304 126.92 314.683 128.012 316.11 129.073C312.533 130.942 308.617 132.072 304.594 132.397L304.493 128.467C304.469 128.153 304.327 127.86 304.095 127.647C303.863 127.435 303.558 127.319 303.243 127.323C302.928 127.327 302.627 127.452 302.401 127.671C302.174 127.889 302.04 128.186 302.025 128.501V132.499C301.414 132.499 300.803 132.474 300.192 132.436L300.264 128.487C300.257 128.17 300.129 127.869 299.906 127.644C299.684 127.42 299.383 127.289 299.067 127.279C298.751 127.269 298.443 127.381 298.207 127.591C297.97 127.801 297.824 128.094 297.797 128.41C297.744 129.66 297.686 130.916 297.633 132.167C296.237 131.964 294.856 131.667 293.501 131.277C291.283 130.645 289.143 129.766 287.122 128.655C288.52 127.712 289.88 126.737 291.201 125.73C291.323 125.638 291.424 125.522 291.499 125.39C291.574 125.257 291.621 125.111 291.637 124.959C291.653 124.808 291.639 124.655 291.593 124.509C291.548 124.364 291.474 124.229 291.375 124.114C291.174 123.875 290.889 123.721 290.579 123.684C290.269 123.648 289.956 123.731 289.705 123.916C288.464 124.847 287.181 125.749 285.857 126.625C285.674 124.999 285.511 123.373 285.376 121.747C285.346 121.442 285.2 121.159 284.966 120.96C284.733 120.761 284.431 120.66 284.125 120.679C283.973 120.686 283.825 120.724 283.687 120.789C283.55 120.854 283.427 120.945 283.325 121.058C283.223 121.17 283.145 121.302 283.094 121.445C283.043 121.588 283.02 121.74 283.028 121.891C283.121 123.325 283.229 124.758 283.351 126.192C282.812 125.77 282.296 125.318 281.806 124.84C281.582 124.613 281.281 124.477 280.962 124.459C280.643 124.44 280.329 124.54 280.079 124.739C279.961 124.837 279.865 124.96 279.797 125.098C279.729 125.236 279.69 125.387 279.684 125.541C279.679 125.694 279.705 125.848 279.762 125.991C279.82 126.133 279.906 126.263 280.017 126.37C280.86 127.196 281.767 127.954 282.73 128.636C281.447 129.418 280.124 130.177 278.761 130.911C278.622 130.98 278.5 131.079 278.404 131.201C278.308 131.324 278.24 131.465 278.206 131.617C278.171 131.768 278.171 131.926 278.205 132.077C278.238 132.229 278.305 132.371 278.401 132.494C278.608 132.77 278.907 132.962 279.244 133.036C279.582 133.111 279.934 133.061 280.238 132.898C281.463 132.218 282.664 131.516 283.841 130.791C283.981 132.022 284.13 133.259 284.293 134.49C284.348 134.762 284.487 135.011 284.69 135.199C284.894 135.388 285.153 135.506 285.429 135.539C285.547 135.551 285.666 135.551 285.785 135.539C285.945 135.541 286.103 135.509 286.25 135.446C286.397 135.382 286.528 135.288 286.636 135.17C286.744 135.052 286.825 134.912 286.875 134.76C286.925 134.608 286.942 134.447 286.925 134.288C286.752 133.158 286.583 132.032 286.444 130.921C288.439 131.965 290.534 132.807 292.697 133.432C294.297 133.897 295.929 134.242 297.58 134.461L297.407 138.334C297.45 138.658 297.607 138.956 297.85 139.176C298.092 139.395 298.405 139.521 298.732 139.531C299.059 139.542 299.379 139.436 299.635 139.232C299.891 139.029 300.066 138.741 300.13 138.42C300.155 137.182 300.178 135.946 300.197 134.711C300.813 134.745 301.433 134.764 302.073 134.764V138.435C302.131 138.756 302.301 139.046 302.553 139.254C302.805 139.462 303.122 139.573 303.449 139.569C303.775 139.565 304.09 139.446 304.336 139.232C304.583 139.018 304.746 138.724 304.796 138.401C304.767 137.157 304.735 135.911 304.7 134.663C308.587 134.366 312.391 133.378 315.932 131.748C315.769 132.912 315.591 134.073 315.398 135.231C315.382 135.39 315.4 135.552 315.45 135.704C315.5 135.856 315.582 135.996 315.69 136.115C315.798 136.233 315.93 136.327 316.077 136.392C316.224 136.456 316.383 136.488 316.543 136.486C316.657 136.499 316.771 136.499 316.885 136.486C317.165 136.458 317.43 136.342 317.639 136.153C317.848 135.964 317.992 135.714 318.049 135.438C318.261 133.913 318.453 132.393 318.626 130.868C319.787 131.669 320.974 132.455 322.186 133.225C322.498 133.411 322.869 133.473 323.225 133.398C323.542 133.333 323.829 133.164 324.038 132.917C324.141 132.801 324.217 132.663 324.26 132.514C324.303 132.365 324.313 132.208 324.288 132.055C324.263 131.901 324.204 131.755 324.116 131.628C324.028 131.5 323.913 131.393 323.778 131.315C322.659 130.626 321.562 129.92 320.488 129.198C321.738 128.36 322.929 127.435 324.053 126.432C324.168 126.33 324.261 126.205 324.324 126.064C324.388 125.924 324.422 125.772 324.423 125.618C324.425 125.464 324.394 125.311 324.332 125.17C324.271 125.028 324.181 124.901 324.067 124.797Z" fill="#B968FB"/>
</g>
<path d="M368.251 223.63C368.309 220.989 368.506 218.338 368.761 215.731C369.307 210.487 370.393 205.314 372.004 200.294C373.634 195.276 375.82 190.456 378.522 185.925C379.205 184.794 379.864 183.649 380.634 182.557C381.403 181.465 382.077 180.339 382.909 179.324C384.504 177.241 386.39 175.398 388.509 173.85C390.648 172.316 393.015 171.126 395.522 170.324C396.782 169.918 398.068 169.597 399.371 169.362C400.677 169.148 401.994 169.008 403.315 168.943V168.76C401.98 168.775 400.647 168.866 399.323 169.035C397.994 169.214 396.681 169.491 395.392 169.862C392.804 170.623 390.35 171.784 388.119 173.302C385.886 174.825 383.893 176.673 382.207 178.786C381.336 179.825 380.615 180.941 379.83 182.028C379.046 183.115 378.344 184.25 377.632 185.395C374.799 189.952 372.485 194.813 370.734 199.885C369.055 204.987 367.907 210.249 367.309 215.586C367.034 218.251 366.827 220.921 366.731 223.596C366.674 224.928 366.649 226.266 366.63 227.598V229.6C366.63 230.278 366.63 230.956 366.683 231.634C366.836 234.328 367.2 237.007 367.77 239.644C368.299 242.275 368.973 244.859 369.507 247.427C369.787 248.679 369.963 249.952 370.031 251.233C370.06 252.459 369.844 253.638 369.069 254.278C368.642 254.619 368.136 254.847 367.597 254.941C366.996 255.069 366.384 255.137 365.769 255.144C364.48 255.146 363.193 255.041 361.921 254.831C359.342 254.422 356.769 253.782 354.19 253.147C351.612 252.512 349.028 251.853 346.407 251.314C343.783 250.74 341.117 250.376 338.436 250.227C337.084 250.162 335.73 250.206 334.385 250.357L332.398 250.66C332.071 250.708 331.749 250.766 331.436 250.809L330.474 250.915C329.825 251.002 329.17 251.006 328.516 251.05C327.862 251.093 327.208 251.05 326.563 250.978C325.259 250.844 323.97 250.587 322.715 250.208C321.445 249.847 320.156 249.467 318.842 249.188C317.53 248.913 316.203 248.713 314.869 248.587L313.868 248.491L312.868 248.438L310.876 248.327L309.885 248.274L308.923 248.192C308.264 248.139 307.605 248.067 306.951 247.985C304.324 247.682 301.736 247.023 299.056 246.797C296.383 246.571 293.691 246.657 291.037 247.052C290.373 247.153 289.71 247.23 289.055 247.346L287.083 247.697L283.172 248.486C280.584 248.978 277.951 249.196 275.316 249.135C272.652 249.052 269.997 248.772 267.374 248.298C264.767 247.865 262.174 247.273 259.499 246.908C258.147 246.714 256.78 246.648 255.415 246.711C254.005 246.774 252.622 247.123 251.35 247.735L250.869 247.981C250.71 248.067 250.566 248.168 250.417 248.264C250.114 248.449 249.826 248.656 249.556 248.885C248.99 249.335 248.491 249.863 248.074 250.453C247.287 251.601 246.662 252.853 246.217 254.172C245.369 256.745 244.776 259.396 244.447 262.085C243.837 267.041 243.572 272.034 243.653 277.027C240.098 276.007 236.519 275.102 232.979 274.14C231.853 273.828 230.737 273.505 229.65 273.13L227.966 272.587C227.399 272.404 226.855 272.231 226.35 272.024C225.869 271.872 225.425 271.623 225.045 271.292C224.665 270.961 224.358 270.555 224.142 270.1C223.931 269.614 223.792 269.1 223.728 268.575C223.65 268.02 223.612 267.461 223.613 266.9C223.662 264.583 223.897 262.273 224.315 259.993C224.695 257.688 225.162 255.384 225.647 253.089L226.393 249.645L227.086 246.172C227.288 245.008 227.447 243.839 227.634 242.675C227.678 242.381 227.73 242.092 227.769 241.799L227.86 240.919L228.043 239.153C228.482 234.448 228.432 229.71 227.894 225.015C227.325 220.33 226.415 215.694 225.171 211.141C223.969 206.581 222.607 202.074 221.227 197.576L219.148 190.841C218.487 188.544 217.639 186.304 216.613 184.145C215.57 181.952 214.22 179.917 212.606 178.103C210.953 176.267 208.939 174.793 206.689 173.773C205.561 173.257 204.376 172.876 203.158 172.638C201.95 172.383 200.717 172.268 199.483 172.296C198.258 172.33 197.042 172.52 195.865 172.864C194.688 173.185 193.572 173.697 192.561 174.379L192.638 174.543C194.898 174.14 197.192 173.951 199.488 173.98C201.725 173.981 203.937 174.445 205.987 175.341C206.244 175.446 206.495 175.567 206.737 175.702C206.983 175.837 207.218 175.957 207.473 176.097C207.954 176.4 208.435 176.679 208.868 177.025C209.772 177.689 210.614 178.433 211.384 179.248C212.907 180.939 214.201 182.823 215.233 184.852C216.282 186.915 217.164 189.059 217.869 191.264L220.139 197.946C221.645 202.396 223.17 206.841 224.469 211.353C225.801 215.85 226.767 220.448 227.355 225.102C227.896 229.747 227.927 234.438 227.447 239.091L227.245 240.837L227.144 241.708C227.1 241.996 227.047 242.285 226.999 242.574C226.802 243.728 226.624 244.883 226.393 246.032L225.628 249.457L224.806 252.892C224.267 255.182 223.747 257.481 223.31 259.805C222.823 262.142 222.529 264.515 222.429 266.9C222.413 267.516 222.442 268.132 222.516 268.743C222.589 269.387 222.751 270.019 222.997 270.619C223.26 271.256 223.665 271.826 224.18 272.283C224.685 272.71 225.253 273.056 225.864 273.308C226.441 273.558 227.014 273.756 227.557 273.943L229.217 274.516C230.352 274.924 231.492 275.266 232.628 275.598C236.341 276.671 240.055 277.638 243.73 278.72L244.308 278.893C247.744 279.896 251.127 281.075 254.443 282.424C256.085 283.098 257.69 283.856 259.254 284.695C260.028 285.118 260.789 285.561 261.525 286.042L263.776 287.533C269.834 291.541 276.178 295.098 282.758 298.174C286.049 299.708 289.387 301.128 292.764 302.455L295.299 303.417L297.849 304.379C299.533 305 301.216 305.616 302.871 306.304C306.191 307.646 309.452 309.132 312.617 310.787C314.195 311.624 315.759 312.49 317.279 313.418C318.722 314.294 320.165 315.227 321.445 316.209C320.819 317.036 320.141 317.835 319.453 318.614C318.573 319.61 317.654 320.577 316.697 321.5C314.786 323.355 312.774 325.103 310.669 326.734C306.463 329.999 301.934 332.825 297.151 335.167C292.372 337.493 287.39 339.377 282.268 340.795C280.978 341.122 279.704 341.498 278.419 341.757L276.495 342.19L274.537 342.566L273.575 342.748L272.589 342.902L270.612 343.21L268.635 343.523C267.98 343.629 267.321 343.73 266.657 343.797L262.684 344.278C262.025 344.365 261.361 344.418 260.697 344.466L258.701 344.62L256.709 344.774L254.713 344.865L252.716 344.952C252.048 344.985 251.384 345.005 250.715 345.005C245.385 345.125 240.045 344.908 234.691 344.673C229.337 344.437 223.954 344.192 218.571 344.519C213.19 344.84 207.863 345.779 202.696 347.318L202.744 347.492L206.665 346.631C207.978 346.371 209.301 346.188 210.619 345.962C211.274 345.837 211.942 345.803 212.606 345.726L214.598 345.524C215.257 345.438 215.925 345.437 216.594 345.399L218.59 345.303C223.925 345.13 229.26 345.476 234.605 345.837L238.622 346.097L242.648 346.313L246.679 346.433C248.026 346.433 249.368 346.433 250.715 346.433C256.086 346.399 261.451 346.055 266.782 345.404C267.456 345.341 268.12 345.24 268.784 345.139L270.785 344.836L272.781 344.538L273.782 344.384L274.778 344.192L276.764 343.807L278.746 343.359C280.069 343.076 281.363 342.695 282.677 342.359C285.265 341.589 287.843 340.752 290.373 339.747C292.887 338.749 295.348 337.625 297.748 336.379C302.544 333.892 307.072 330.92 311.261 327.509C313.349 325.802 315.34 323.981 317.226 322.053C318.913 320.32 320.486 318.478 321.935 316.541C327.629 319.922 333.816 322.392 340.273 323.862C341.091 324.021 341.914 324.194 342.736 324.343L345.223 324.704L350.154 325.137C353.396 325.55 356.609 326.162 359.775 326.97C366.173 328.533 372.667 330.101 379.287 330.597C385.889 331.121 392.528 330.978 399.101 330.169V329.991C392.537 330.575 385.932 330.523 379.378 329.837L378.152 329.707L376.93 329.529C376.121 329.409 375.304 329.308 374.495 329.173L372.09 328.73C371.282 328.586 370.483 328.394 369.685 328.225C366.476 327.523 363.297 326.662 360.102 325.82C356.894 324.93 353.632 324.247 350.337 323.776L345.416 323.295L343.01 322.915C342.212 322.761 341.418 322.583 340.605 322.433C337.432 321.689 334.328 320.679 331.326 319.412C328.322 318.179 325.426 316.699 322.667 314.987C319.759 312.791 316.671 310.846 313.435 309.171C310.217 307.468 306.912 305.938 303.55 304.553C301.871 303.855 300.182 303.22 298.47 302.58L295.944 301.628L293.433 300.666C290.088 299.357 286.788 297.951 283.533 296.447C280.281 294.927 277.077 293.32 273.941 291.583C270.804 289.847 267.735 287.985 264.719 286.037L262.448 284.555C261.664 284.074 260.861 283.593 260.043 283.16C258.42 282.305 256.755 281.533 255.054 280.846C251.855 279.543 248.589 278.475 245.303 277.503C245.156 272.423 245.358 267.339 245.91 262.287C246.188 259.69 246.726 257.128 247.516 254.638C247.903 253.429 248.452 252.277 249.147 251.213C249.487 250.709 249.899 250.257 250.369 249.871C250.603 249.669 250.851 249.482 251.11 249.313C251.24 249.231 251.365 249.135 251.499 249.058L251.908 248.842C253.03 248.28 254.254 247.953 255.507 247.88C256.79 247.799 258.079 247.839 259.355 248C261.958 248.303 264.57 248.846 267.211 249.241C269.856 249.676 272.53 249.914 275.211 249.953C277.912 249.968 280.606 249.694 283.249 249.135L287.15 248.322L289.103 247.961C289.753 247.846 290.407 247.764 291.061 247.658C293.669 247.256 296.315 247.157 298.946 247.365C301.568 247.586 304.17 248.202 306.825 248.51C307.485 248.596 308.148 248.673 308.817 248.726L309.813 248.813L310.813 248.871L312.8 248.991L313.791 249.049L314.753 249.145C316.065 249.273 317.368 249.478 318.655 249.761C319.944 250.049 321.199 250.434 322.503 250.814C323.79 251.223 325.115 251.505 326.457 251.656C327.131 251.742 327.809 251.738 328.487 251.757C329.166 251.776 329.839 251.757 330.508 251.661L331.508 251.569C331.845 251.536 332.177 251.483 332.509 251.439L334.472 251.18C335.772 251.06 337.08 251.044 338.383 251.132C341.009 251.331 343.615 251.74 346.176 252.353C348.749 252.935 351.309 253.643 353.873 254.331C356.437 255.018 359.02 255.711 361.685 256.187C363.034 256.439 364.402 256.574 365.774 256.591C366.492 256.606 367.21 256.545 367.915 256.409C368.693 256.272 369.425 255.941 370.041 255.447C370.665 254.915 371.111 254.205 371.321 253.412C371.515 252.696 371.604 251.955 371.585 251.213C371.529 249.836 371.355 248.467 371.066 247.12C370.522 244.483 369.858 241.919 369.343 239.336C368.8 236.772 368.438 234.173 368.261 231.557C368.218 230.908 368.208 230.259 368.198 229.633V227.646C368.194 226.275 368.208 224.953 368.251 223.63Z" fill="#0C0A09"/>
<g filter="url(#filter4_f_1802_18087)">
<path d="M399.202 416.37C399.202 416.37 391.435 435.17 361.68 443.099C252.136 472.286 130.529 386.142 89.6594 278.674C59.5277 199.442 80.7417 149.616 97.21 119.209C113.678 88.8019 136.859 92.0047 136.859 92.0047" stroke="#881CC4" stroke-width="15" stroke-linecap="round"/>
</g>
<g filter="url(#filter5_f_1802_18087)">
<ellipse rx="20.6358" ry="28.0412" transform="matrix(0.315254 -0.949004 0.950387 0.311062 399.415 416.125)" fill="url(#paint1_radial_1802_18087)"/>
</g>
<g filter="url(#filter6_f_1802_18087)">
<ellipse rx="8.99872" ry="10.9242" transform="matrix(0.323245 -0.947455 0.951997 0.301686 399.301 415.96)" fill="url(#paint2_radial_1802_18087)"/>
</g>
<g filter="url(#filter7_f_1802_18087)">
<ellipse rx="27.4865" ry="43.2545" transform="matrix(-0.967792 -0.245151 0.280683 -0.961178 137.307 92.2003)" fill="url(#paint3_radial_1802_18087)"/>
</g>
<g filter="url(#filter8_f_1802_18087)">
<ellipse rx="11.9893" ry="18.8172" transform="matrix(-0.969084 -0.245927 0.280033 -0.96015 137.301 92.4668)" fill="url(#paint4_radial_1802_18087)"/>
</g>
<path d="M399.412 416.221C399.412 416.221 391.205 435.978 361.45 443.907C251.906 473.094 130.324 385.813 89.454 278.345C59.3223 199.113 80.8456 149.692 97.3139 119.286C113.782 88.8788 136.758 91.9953 136.758 91.9953" stroke="#FFEBF8" stroke-width="6" stroke-linecap="round"/>
<g filter="url(#filter9_f_1802_18087)">
<ellipse rx="20.6358" ry="28.0412" transform="matrix(0.315254 -0.949004 0.950387 0.311062 399.417 416.126)" fill="url(#paint5_radial_1802_18087)"/>
</g>
<g filter="url(#filter10_f_1802_18087)">
<ellipse rx="8.99872" ry="10.9242" transform="matrix(0.323245 -0.947455 0.951997 0.301686 399.303 415.961)" fill="url(#paint6_radial_1802_18087)"/>
</g>
<defs>
<filter id="filter0_d_1802_18087" x="290.367" y="101.938" width="23.332" height="17.8362" filterUnits="userSpaceOnUse" color-interpolation-filters="sRGB">
<feFlood flood-opacity="0" result="BackgroundImageFix"/>
<feColorMatrix in="SourceAlpha" type="matrix" values="0 0 0 0 0 0 0 0 0 0 0 0 0 0 0 0 0 0 127 0" result="hardAlpha"/>
<feOffset/>
<feGaussianBlur stdDeviation="3.5"/>
<feComposite in2="hardAlpha" operator="out"/>
<feColorMatrix type="matrix" values="0 0 0 0 0.548 0 0 0 0 0 0 0 0 0 1 0 0 0 1 0"/>
<feBlend mode="normal" in2="BackgroundImageFix" result="effect1_dropShadow_1802_18087"/>
<feBlend mode="normal" in="SourceGraphic" in2="effect1_dropShadow_1802_18087" result="shape"/>
</filter>
<filter id="filter1_d_1802_18087" x="261" y="66" width="40.3359" height="38.7615" filterUnits="userSpaceOnUse" color-interpolation-filters="sRGB">
<feFlood flood-opacity="0" result="BackgroundImageFix"/>
<feColorMatrix in="SourceAlpha" type="matrix" values="0 0 0 0 0 0 0 0 0 0 0 0 0 0 0 0 0 0 127 0" result="hardAlpha"/>
<feOffset/>
<feGaussianBlur stdDeviation="3.5"/>
<feComposite in2="hardAlpha" operator="out"/>
<feColorMatrix type="matrix" values="0 0 0 0 0.548 0 0 0 0 0 0 0 0 0 1 0 0 0 1 0"/>
<feBlend mode="normal" in2="BackgroundImageFix" result="effect1_dropShadow_1802_18087"/>
<feBlend mode="normal" in="SourceGraphic" in2="effect1_dropShadow_1802_18087" result="shape"/>
</filter>
<filter id="filter2_d_1802_18087" x="301.543" y="65.3013" width="39.6836" height="39.5508" filterUnits="userSpaceOnUse" color-interpolation-filters="sRGB">
<feFlood flood-opacity="0" result="BackgroundImageFix"/>
<feColorMatrix in="SourceAlpha" type="matrix" values="0 0 0 0 0 0 0 0 0 0 0 0 0 0 0 0 0 0 127 0" result="hardAlpha"/>
<feOffset/>
<feGaussianBlur stdDeviation="3.5"/>
<feComposite in2="hardAlpha" operator="out"/>
<feColorMatrix type="matrix" values="0 0 0 0 0.548 0 0 0 0 0 0 0 0 0 1 0 0 0 1 0"/>
<feBlend mode="normal" in2="BackgroundImageFix" result="effect1_dropShadow_1802_18087"/>
<feBlend mode="normal" in="SourceGraphic" in2="effect1_dropShadow_1802_18087" result="shape"/>
</filter>
<filter id="filter3_d_1802_18087" x="271.18" y="113.677" width="60.2441" height="32.8928" filterUnits="userSpaceOnUse" color-interpolation-filters="sRGB">
<feFlood flood-opacity="0" result="BackgroundImageFix"/>
<feColorMatrix in="SourceAlpha" type="matrix" values="0 0 0 0 0 0 0 0 0 0 0 0 0 0 0 0 0 0 127 0" result="hardAlpha"/>
<feOffset/>
<feGaussianBlur stdDeviation="3.5"/>
<feComposite in2="hardAlpha" operator="out"/>
<feColorMatrix type="matrix" values="0 0 0 0 0.548 0 0 0 0 0 0 0 0 0 1 0 0 0 1 0"/>
<feBlend mode="normal" in2="BackgroundImageFix" result="effect1_dropShadow_1802_18087"/>
<feBlend mode="normal" in="SourceGraphic" in2="effect1_dropShadow_1802_18087" result="shape"/>
</filter>
<filter id="filter4_f_1802_18087" x="46.9629" y="64.4043" width="379.738" height="411.948" filterUnits="userSpaceOnUse" color-interpolation-filters="sRGB">
<feFlood flood-opacity="0" result="BackgroundImageFix"/>
<feBlend mode="normal" in="SourceGraphic" in2="BackgroundImageFix" result="shape"/>
<feGaussianBlur stdDeviation="10" result="effect1_foregroundBlur_1802_18087"/>
</filter>
<filter id="filter5_f_1802_18087" x="331.977" y="354.682" width="134.877" height="122.887" filterUnits="userSpaceOnUse" color-interpolation-filters="sRGB">
<feFlood flood-opacity="0" result="BackgroundImageFix"/>
<feBlend mode="normal" in="SourceGraphic" in2="BackgroundImageFix" result="shape"/>
<feGaussianBlur stdDeviation="20" result="effect1_foregroundBlur_1802_18087"/>
</filter>
<filter id="filter6_f_1802_18087" x="368.5" y="386.817" width="61.6016" height="58.2861" filterUnits="userSpaceOnUse" color-interpolation-filters="sRGB">
<feFlood flood-opacity="0" result="BackgroundImageFix"/>
<feBlend mode="normal" in="SourceGraphic" in2="BackgroundImageFix" result="shape"/>
<feGaussianBlur stdDeviation="10" result="effect1_foregroundBlur_1802_18087"/>
</filter>
<filter id="filter7_f_1802_18087" x="68.0586" y="10.0762" width="138.496" height="164.248" filterUnits="userSpaceOnUse" color-interpolation-filters="sRGB">
<feFlood flood-opacity="0" result="BackgroundImageFix"/>
<feBlend mode="normal" in="SourceGraphic" in2="BackgroundImageFix" result="shape"/>
<feGaussianBlur stdDeviation="20" result="effect1_foregroundBlur_1802_18087"/>
</filter>
<filter id="filter8_f_1802_18087" x="114.541" y="64.1577" width="45.5215" height="56.6182" filterUnits="userSpaceOnUse" color-interpolation-filters="sRGB">
<feFlood flood-opacity="0" result="BackgroundImageFix"/>
<feBlend mode="normal" in="SourceGraphic" in2="BackgroundImageFix" result="shape"/>
<feGaussianBlur stdDeviation="5" result="effect1_foregroundBlur_1802_18087"/>
</filter>
<filter id="filter9_f_1802_18087" x="331.979" y="354.682" width="134.877" height="122.887" filterUnits="userSpaceOnUse" color-interpolation-filters="sRGB">
<feFlood flood-opacity="0" result="BackgroundImageFix"/>
<feBlend mode="normal" in="SourceGraphic" in2="BackgroundImageFix" result="shape"/>
<feGaussianBlur stdDeviation="20" result="effect1_foregroundBlur_1802_18087"/>
</filter>
<filter id="filter10_f_1802_18087" x="378.502" y="396.818" width="41.6016" height="38.2861" filterUnits="userSpaceOnUse" color-interpolation-filters="sRGB">
<feFlood flood-opacity="0" result="BackgroundImageFix"/>
<feBlend mode="normal" in="SourceGraphic" in2="BackgroundImageFix" result="shape"/>
<feGaussianBlur stdDeviation="5" result="effect1_foregroundBlur_1802_18087"/>
</filter>
<linearGradient id="paint0_linear_1802_18087" x1="300.509" y1="176.669" x2="300.509" y2="40.5882" gradientUnits="userSpaceOnUse">
<stop stop-color="#111111"/>
<stop offset="0.01" stop-color="#111111"/>
<stop offset="0.51" stop-color="#040404"/>
<stop offset="1"/>
</linearGradient>
<radialGradient id="paint1_radial_1802_18087" cx="0" cy="0" r="1" gradientUnits="userSpaceOnUse" gradientTransform="translate(20.6358 28.0412) rotate(90.1246) scale(62.0347 45.6519)">
<stop stop-color="#30D4FE" stop-opacity="0.89"/>
<stop offset="1" stop-color="#042F3A" stop-opacity="0.53"/>
</radialGradient>
<radialGradient id="paint2_radial_1802_18087" cx="0" cy="0" r="1" gradientUnits="userSpaceOnUse" gradientTransform="translate(8.79875 10.9242) rotate(91.9301) scale(16.4266 13.5291)">
<stop stop-color="#FFEBF8"/>
<stop offset="1" stop-color="#FFEBF8"/>
</radialGradient>
<radialGradient id="paint3_radial_1802_18087" cx="0" cy="0" r="1" gradientUnits="userSpaceOnUse" gradientTransform="translate(27.4865 43.2545) rotate(90.1076) scale(95.6904 60.8077)">
<stop stop-color="#881CC4" stop-opacity="0.72"/>
<stop offset="1" stop-color="#1F0030" stop-opacity="0.6"/>
</radialGradient>
<radialGradient id="paint4_radial_1802_18087" cx="0" cy="0" r="1" gradientUnits="userSpaceOnUse" gradientTransform="translate(11.7228 18.8172) rotate(91.691) scale(22.5408 14.3654)">
<stop stop-color="#F7E9FF"/>
<stop offset="1" stop-color="#F6E7FF" stop-opacity="0.17"/>
</radialGradient>
<radialGradient id="paint5_radial_1802_18087" cx="0" cy="0" r="1" gradientUnits="userSpaceOnUse" gradientTransform="translate(20.6358 28.0412) rotate(90.1246) scale(62.0347 45.6519)">
<stop stop-color="#881CC4" stop-opacity="0.89"/>
<stop offset="1" stop-color="#240237" stop-opacity="0.53"/>
</radialGradient>
<radialGradient id="paint6_radial_1802_18087" cx="0" cy="0" r="1" gradientUnits="userSpaceOnUse" gradientTransform="translate(8.79875 10.9242) rotate(99.9935) scale(12.4533 10.1957)">
<stop stop-color="#F6E6FF"/>
<stop offset="1" stop-color="#F9EDFF"/>
</radialGradient>
</defs>
</svg>
