<svg width="49" height="48" viewBox="0 0 49 48" fill="none" xmlns="http://www.w3.org/2000/svg">
<path d="M6 15H12L11.5 19L14 22.5L15 25L17.5 26.5L25 27H28.5L33.5 26L34.5 22.5L38 19.5L36.5 15H43V17H48V46.5H1V17H6V15Z" fill="#6E14A0"/>
<path fill-rule="evenodd" clip-rule="evenodd" d="M20.699 0.14072C19.3841 0.544897 18.5095 1.42224 18.0817 2.76627L17.9038 3.32541L17.2982 3.36505C15.966 3.45222 14.858 3.92499 13.9081 4.81152C12.8491 5.8 12.299 7.07314 12.3055 8.52071L12.3091 9.31728L11.7555 9.80902C10.7699 10.6847 10.2791 12.0321 10.4875 13.2902C10.5848 13.8773 11.0783 14.9946 11.2987 15.1271C11.3621 15.1652 11.2645 15.3595 11.0566 15.6087C10.3263 16.4841 9.96372 17.5165 9.96557 18.7154C9.96824 20.5211 10.7689 21.989 12.265 22.9314C12.9507 23.3633 13.0334 23.4491 13.0394 23.7346C13.0574 24.5938 13.4715 25.6992 14.0539 26.4419C14.45 26.9471 15.373 27.5398 16.1065 27.7601C16.8273 27.9764 17.8096 28.0159 18.4144 27.8526C18.7637 27.7584 18.8721 27.7826 19.5465 28.1066C20.674 28.6483 21.8802 28.681 23.1387 28.2044C23.3088 28.14 23.3185 28.4936 23.3185 34.7867C23.3185 38.4445 23.2931 41.4372 23.262 41.4372C23.2309 41.4372 23.0576 41.3628 22.8767 41.2719C22.038 40.8501 21.8443 40.8405 14.099 40.8393L6.67717 40.8381V28.2575V15.6769H8.30483C9.81529 15.6769 9.94626 15.6621 10.123 15.4722C10.2931 15.2896 10.2987 15.233 10.1753 14.948C10.0993 14.7723 9.9404 14.3477 9.82227 14.0045L9.60748 13.3804H7.46948C4.63533 13.3804 4.50456 13.442 4.41724 14.818L4.36588 15.627L2.51685 15.678C1.49988 15.706 0.585227 15.7676 0.48425 15.8149C-0.020125 16.0509 0.000111667 15.3872 0.000111667 31.675C0.000111667 45.2958 0.0168558 46.9076 0.160464 47.1068C0.561396 47.6632 -1.09904 47.6277 24.4998 47.6277C45.3806 47.6277 48.1197 47.6103 48.3865 47.4762C49.0415 47.147 48.9995 48.2383 48.9995 31.5474V16.3558L48.6502 16.0164L48.3009 15.6769H46.4416H44.5823L44.5819 14.953C44.5815 14.0472 44.3642 13.6428 43.7911 13.4806C43.5463 13.4113 42.641 13.3814 41.3606 13.4003L39.3201 13.4303L39.1439 13.9795C39.047 14.2815 38.8894 14.6745 38.7935 14.853C38.6317 15.1541 38.6313 15.195 38.7877 15.4271C38.956 15.6768 38.9569 15.6769 40.6393 15.6769H42.3224V28.2575V40.8381L34.9006 40.8393C27.1632 40.8405 27.0992 40.8436 26.0663 41.2686L25.6811 41.427V34.7817C25.6811 28.4908 25.6907 28.1403 25.8609 28.211C26.2924 28.3901 27.0979 28.557 27.531 28.557C28.158 28.557 29.1253 28.3039 29.6583 28.0004C30.0549 27.7745 30.131 27.7634 30.5603 27.8685C30.8182 27.9316 31.3896 27.963 31.83 27.9382C33.9275 27.8202 35.6933 26.1421 35.8274 24.1392L35.8758 23.415L36.4916 23.0668C38.2518 22.0716 39.2938 19.9011 38.9491 17.9475C38.8029 17.1181 38.4716 16.3588 37.9615 15.6833L37.6055 15.212L37.8523 14.8589C37.9881 14.6647 38.1993 14.219 38.3218 13.8683C38.8391 12.3867 38.2134 10.4275 36.9551 9.58936C36.6207 9.3667 36.614 9.34803 36.653 8.75006C36.7087 7.89557 36.529 7.06026 36.1117 6.23443C35.2504 4.52946 33.5866 3.4619 31.6407 3.36535L30.9747 3.3323L30.9032 2.92523C30.7271 1.92297 29.8168 0.816678 28.7705 0.333722C28.084 0.0168105 26.9869 -0.0838345 26.2056 0.0983848C25.9173 0.165581 25.4055 0.39383 25.0685 0.605603L24.4555 0.99061L23.9305 0.647239C23.0007 0.0390761 21.6953 -0.165509 20.699 0.14072ZM22.4453 2.39734C22.7158 2.52465 22.9511 2.73782 23.0941 2.98504L23.3185 3.37304L23.3162 14.0929C23.314 24.347 23.3056 24.8307 23.1219 25.2238C22.8036 25.905 21.9145 26.3918 21.1889 26.2819L20.9598 26.2472L21.2611 25.667C21.6039 25.007 21.8421 23.9281 21.7359 23.5168C21.6164 23.054 21.1353 22.666 20.6812 22.6665C19.9128 22.6672 19.4176 23.2058 19.4156 24.043C19.4153 24.1687 19.3245 24.4439 19.214 24.6545C18.6445 25.7394 17.2515 26.0694 16.2418 25.3585C15.7973 25.0454 15.4087 24.4262 15.4087 24.0307C15.4087 23.8144 15.4614 23.7849 15.9257 23.7416C16.8073 23.6592 17.3214 22.947 17.0146 22.2332C16.7709 21.6664 16.4662 21.5386 15.3253 21.5245C14.518 21.5146 14.2503 21.4713 13.9073 21.2952C13.2616 20.9637 12.9106 20.636 12.592 20.067C11.5942 18.2851 12.7946 16.1412 14.9209 15.9078C15.6592 15.8268 16.0123 15.6312 16.1973 15.2008C16.324 14.9062 16.3311 14.7655 16.2349 14.4538C16.0114 13.7284 15.1483 13.4979 13.8662 13.8211C13.5581 13.8988 13.2659 13.9383 13.2168 13.9087C13.0492 13.8081 12.7424 13.032 12.7401 12.7033C12.738 12.3917 12.9107 11.9045 13.1356 11.5871C13.2218 11.4656 13.2761 11.4868 13.4598 11.7138C13.8928 12.2489 14.4605 12.4024 15.0012 12.1306C15.6198 11.8197 15.7871 11.0427 15.3577 10.4747C14.7968 9.73274 14.6383 9.28363 14.6387 8.43804C14.6391 7.74091 14.6777 7.57157 14.9421 7.10679C15.4536 6.20807 16.2657 5.69856 17.3176 5.61648C18.1164 5.55418 18.7736 5.75717 19.5066 6.29244C20.1248 6.74395 20.516 6.79846 21.0154 6.50252C21.4106 6.26818 21.6171 5.80679 21.5296 5.35349C21.4682 5.03538 21.2409 4.78437 20.4583 4.17061C19.9517 3.77322 20.3974 2.69079 21.2126 2.33863C21.645 2.15182 21.9549 2.1666 22.4453 2.39734ZM27.8105 2.39375C28.3463 2.63008 28.6592 3.09826 28.6597 3.66419C28.6601 4.0469 28.62 4.1103 28.1877 4.41204C27.3285 5.01182 27.1697 5.76126 27.7767 6.35125C28.2724 6.83311 28.6363 6.81044 29.526 6.24242C29.9122 5.9959 30.3954 5.74908 30.5997 5.69386C32.482 5.18575 34.3536 6.58339 34.3415 8.48796C34.3368 9.21144 34.1711 9.67383 33.6767 10.343C33.2844 10.874 33.2431 11.3493 33.5539 11.7573C34.0398 12.3953 34.7805 12.4211 35.3804 11.8206L35.7329 11.4679L35.9048 11.723C36.3218 12.3414 36.2855 13.216 35.8216 13.7287C35.5968 13.9771 35.5877 13.9784 35.0897 13.8301C34.8124 13.7476 34.3109 13.68 33.9751 13.68C33.4181 13.68 33.3345 13.7095 33.0156 14.0194C32.7293 14.2977 32.6663 14.4345 32.6663 14.7783C32.6663 15.1185 32.7293 15.2586 33.0002 15.5209C33.281 15.7929 33.436 15.8544 33.9765 15.9088C35.5935 16.0715 36.6666 17.1926 36.6693 18.7222C36.6724 20.4449 35.2838 21.6794 33.4997 21.5397C32.6765 21.4753 32.232 21.6283 32.0054 22.0543C31.5602 22.8911 32.1553 23.7644 33.1706 23.7644C33.3386 23.7644 33.5002 23.8024 33.5295 23.8487C33.6416 24.0248 33.3574 24.6926 33.0125 25.0636C32.3215 25.8072 31.3765 25.9405 30.4677 25.4229C29.9316 25.1174 29.4819 24.3473 29.4819 23.7349C29.4819 23.4247 29.4105 23.2757 29.1326 23.0056C28.8463 22.7273 28.7056 22.6661 28.3519 22.6661C27.9952 22.6661 27.8577 22.7271 27.5579 23.0186C27.1954 23.3709 27.1954 23.371 27.2447 24.1185C27.2836 24.7077 27.3689 25.0126 27.6474 25.5578C27.9873 26.2234 27.9927 26.2514 27.7911 26.3003C27.1917 26.4458 26.2562 25.976 25.8827 25.3419L25.6297 24.9127L25.6018 14.3478C25.5833 7.3576 25.6095 3.65441 25.6792 3.40279C25.8144 2.91445 26.1446 2.50927 26.5455 2.33953C26.9813 2.15522 27.3009 2.16889 27.8105 2.39375ZM18.3317 9.432C17.9309 9.8215 17.9924 10.2103 18.5361 10.724C18.9568 11.1214 19.179 11.539 19.0912 11.7673C19.0714 11.8183 18.8474 12.0128 18.5932 12.1994C17.6865 12.8651 17.1881 14.3174 17.6654 14.9031C17.8288 15.1038 17.9807 15.1777 18.2297 15.1777C18.723 15.1777 19.0057 14.9076 19.1166 14.3306C19.2989 13.3823 19.9975 13.0053 20.9531 13.3393C21.562 13.5521 21.9471 13.4681 22.1754 13.0727C22.4759 12.5522 22.0848 11.9759 21.2757 11.7465C20.8561 11.6276 20.8113 11.5825 20.7037 11.171C20.5499 10.5824 20.2349 10.1014 19.6734 9.59835C19.1236 9.10581 18.7189 9.05558 18.3317 9.432ZM29.2942 9.54473C28.7865 9.96718 28.4106 10.5586 28.2487 11.19C28.1401 11.6132 28.1004 11.6536 27.6859 11.7613C26.9574 11.9507 26.6554 12.3 26.6965 12.9062C26.7298 13.3983 27.4905 13.6379 28.0438 13.3305C28.5569 13.0454 29.2836 13.2213 29.6133 13.7102C29.7022 13.8422 29.8073 14.1254 29.8467 14.3393C29.9375 14.8333 30.2557 15.1777 30.6214 15.1777C31.0437 15.1777 31.2199 15.0835 31.3876 14.7682C31.7799 14.0309 30.9977 12.4818 29.9437 11.9084C29.6644 11.7565 29.8192 11.3646 30.4088 10.732C30.9444 10.1572 30.9969 10.0128 30.8006 9.65456C30.4808 9.07106 29.9132 9.02972 29.2942 9.54473ZM16.6154 17.4725C16.0514 17.9039 16.2226 18.678 16.9246 18.8699C17.8075 19.1113 18.1073 19.747 17.6682 20.4469C17.3886 20.8927 17.4063 21.2813 17.7192 21.567C18.2166 22.0212 18.8174 21.815 19.2177 21.0528C19.3794 20.7448 19.4782 20.6765 19.8488 20.6164C20.7894 20.4639 21.8803 19.6665 21.8803 19.1316C21.8803 19.0036 21.7845 18.7805 21.6674 18.6358C21.368 18.2659 20.8522 18.2776 20.3481 18.6656C20.1389 18.8266 19.8464 18.9881 19.6983 19.0242C19.4606 19.0821 19.4041 19.043 19.22 18.6921C18.9357 18.1508 18.2459 17.6001 17.6288 17.4219C16.9739 17.2329 16.9256 17.2353 16.6154 17.4725ZM31.3188 17.4123C30.6835 17.633 30.2272 17.9633 29.9052 18.4357C29.7348 18.6857 29.5793 18.9376 29.5595 18.9954C29.5036 19.1582 28.8328 18.9073 28.5546 18.6194C28.3815 18.4404 28.2082 18.3727 27.9232 18.3727C27.4097 18.3727 27.1192 18.6481 27.1192 19.1348C27.1192 19.4244 27.1967 19.5684 27.5041 19.8502C27.9412 20.2509 28.5298 20.5307 29.1321 20.6244C29.4888 20.6798 29.5767 20.7482 29.7871 21.1336C30.058 21.63 30.3071 21.8006 30.743 21.7886C31.0926 21.7789 31.3169 21.6167 31.4494 21.278C31.5249 21.085 31.4879 20.9028 31.2834 20.4598C31.0632 19.983 31.0384 19.8435 31.1313 19.6057C31.2959 19.1851 31.523 18.9833 31.9118 18.9124C32.7227 18.7645 32.9465 17.7716 32.2481 17.4205C31.8998 17.2455 31.8016 17.2446 31.3188 17.4123ZM4.41724 30.0597C4.41724 43.2692 4.38971 42.6267 4.96764 42.9273C5.17904 43.0373 6.74219 43.065 13.3741 43.0761C21.0687 43.089 21.5407 43.0998 21.8803 43.2733C22.6041 43.643 23.0972 44.2611 23.2627 45.0067L23.3348 45.3312H12.7974H2.26004V31.6023V17.8735H3.33864H4.41724V30.0597ZM46.7395 31.6023V45.3312H36.2103C28.43 45.3312 25.6811 45.3016 25.6811 45.218C25.6811 44.5959 26.3465 43.6707 27.0532 43.3098L27.4788 43.0925L35.625 43.0778C41.8124 43.0665 43.8275 43.0336 44.0053 42.9412C44.134 42.8742 44.3166 42.6925 44.4109 42.5372C44.5685 42.2779 44.5823 41.2709 44.5823 30.0643V17.8735H45.6609H46.7395V31.6023ZM9.45822 27.9215C9.17819 28.2675 9.18908 28.5822 9.49294 28.9259L9.74071 29.206L11.6349 29.237L13.5292 29.268L13.8526 29.0035C14.2383 28.688 14.2769 28.3093 13.9631 27.9215L13.7502 27.6584H11.7106H9.67106L9.45822 27.9215ZM9.49746 32.0971C9.15816 32.4268 9.17501 32.7975 9.54553 33.1577L9.8458 33.4495H14.9437C19.2169 33.4495 20.0885 33.4258 20.3321 33.3034C20.8068 33.0649 20.8946 32.5564 20.5374 32.1151L20.3246 31.852H15.0371H9.74954L9.49746 32.0971ZM28.4547 32.0517C28.1851 32.3137 28.1821 32.8851 28.4489 33.1444C28.5588 33.2512 28.8015 33.3655 28.9882 33.3986C29.175 33.4316 31.5569 33.4454 34.2815 33.4291L39.2351 33.3996L39.4639 33.1771C39.7806 32.8692 39.7762 32.2914 39.4553 32.0388C39.2302 31.8616 38.9437 31.852 33.939 31.852C28.797 31.852 28.6548 31.8572 28.4547 32.0517ZM9.49746 36.2906C9.09694 36.6798 9.22781 37.3294 9.74893 37.5392C9.9366 37.6148 11.6169 37.6399 15.1891 37.6208L20.3577 37.5931L20.5541 37.3574C20.8274 37.0292 20.8043 36.5881 20.4982 36.2906L20.2461 36.0455H14.9978H9.74954L9.49746 36.2906ZM28.4725 36.2765C28.2525 36.5043 28.1881 36.8728 28.313 37.1892C28.4712 37.5899 28.8462 37.6431 31.5056 37.6415C34.2659 37.6399 34.4581 37.6079 34.7044 37.1085C34.8658 36.7815 34.718 36.3042 34.4054 36.1416C34.3003 36.0868 33.0303 36.0455 31.4583 36.0455C28.7037 36.0455 28.6953 36.0461 28.4725 36.2765Z" fill="#F2D6FF"/>
</svg>
