<svg width="283" height="385" viewBox="0 0 283 385" fill="none" xmlns="http://www.w3.org/2000/svg">
<path d="M271.768 205.972C270.26 181.041 260.778 170.931 260.778 170.931C260.446 170.242 260.025 169.6 259.526 169.021C257.334 162.43 253.212 156.015 245.52 153.395C227.059 147.101 204.828 130.742 204.828 130.742C204.828 130.742 216.154 110.184 209.855 98.4402C203.556 86.6961 203.566 68.6576 199.8 60.2667C196.035 51.8759 190.57 30.9064 181.339 22.0933C172.109 13.2802 156.594 1.54106 147.781 1.11876C138.968 0.69645 119.678 12.0283 112.544 22.0933C105.41 32.1583 106.254 38.0353 96.6066 57.753C87.7533 75.8518 92.4087 81.6636 85.697 97.6006C78.9854 113.538 84.4402 136.196 84.4402 136.196C74.7925 147.941 58.8504 148.358 41.6515 158.845C32.6021 164.375 29.1382 174.963 27.8713 183.791C23.2259 197.154 17.1276 215.384 13.5933 228.742C7.32406 252.431 -1.72535 260.978 0.285627 279.579C1.41178 290.011 9.02334 302.866 18.8168 314.772C20.8027 317.19 22.879 319.568 25.0106 321.88C25.7849 322.725 26.5692 323.565 27.3585 324.394C28.8868 325.993 30.4302 327.55 31.9887 329.065C35.9403 332.895 39.9372 336.42 43.7731 339.476C50.5602 344.871 56.1256 347.902 60.4793 349.582C61.0726 356.721 63.8377 366.554 73.415 374.161C112.74 383.25 173.461 390.782 235.143 373.296C241.241 362.738 242.709 350.859 242.911 343.021C244.58 341.94 246.319 340.738 248.139 339.391C256.565 333.147 262.849 326.626 267.55 320.221C271.496 314.888 274.708 309.049 277.102 302.861C279.454 296.652 281.045 290.179 281.838 283.586C285.845 252.934 273.276 230.909 271.768 205.972Z" fill="#232323"/>
<path d="M204.826 130.742C204.826 130.742 216.153 110.184 209.853 98.4402C203.554 86.6961 203.564 68.6576 199.798 60.2667C196.033 51.8759 190.568 30.9064 181.338 22.0933C172.107 13.2802 156.592 1.54106 147.779 1.11876C138.966 0.69645 119.676 12.0283 112.542 22.0933C105.408 32.1583 106.253 38.0353 96.6049 57.753C87.7516 75.8518 92.407 81.6636 85.6954 97.6006C78.9837 113.538 84.4385 136.196 84.4385 136.196C84.4385 136.196 93.1259 171.288 112.909 192.821L184.661 190.986C184.661 190.986 203.644 173.902 204.826 130.742Z" fill="#232323"/>
<path d="M157.584 27.5583C170.701 34.7174 179.448 39.4884 187.402 60.1613C190.484 68.1751 199.85 77.9786 205.541 86.2739C203.208 76.5156 202.404 66.0987 199.794 60.292C196.019 51.9012 190.564 30.9317 181.334 22.1186C172.103 13.3054 156.588 1.56633 147.775 1.14402C138.962 0.721718 119.672 12.0536 112.538 22.1186C105.404 32.1835 106.249 38.0606 96.6009 57.7783C91.7092 67.7678 90.94 74.0169 90.1055 80.2962C97.5662 67.5567 109.341 56.0438 114.66 46.6425C123.392 31.1378 144.462 20.4142 157.584 27.5583Z" fill="#161616"/>
<path d="M199.795 60.2667C196.019 51.8759 190.565 30.9064 181.334 22.0933C172.104 13.2802 156.589 1.54106 147.776 1.11876C138.963 0.69645 119.672 12.0283 112.539 22.0933C106.541 30.5646 106.179 36.0696 100.473 49.3421C104.852 44.0784 113.464 36.2707 116.234 30.7405C122.201 18.8104 140.3 7.94604 152.813 13.245C165.327 18.5439 180.464 25.7684 186.407 39.6843C190.429 49.1158 196.864 62.9263 202.806 71.9656C201.977 67.3404 201.132 63.2078 199.795 60.2667Z" fill="#111111"/>
<path d="M271.768 205.972C270.26 181.041 260.778 170.931 260.778 170.931C260.446 170.243 260.025 169.6 259.526 169.021C258.791 166.776 257.81 164.619 256.6 162.591V162.591C256.485 162.4 256.364 162.214 256.243 162.022C256.198 161.947 256.153 161.872 256.103 161.801C255.908 161.506 255.707 161.215 255.499 160.926L255.273 160.615C255.077 160.353 254.881 160.112 254.675 159.841L254.529 159.66C254.298 159.383 254.056 159.112 253.81 158.84L253.564 158.574C253.322 158.322 253.061 158.071 252.825 157.83L252.714 157.724C252.432 157.463 252.146 157.221 251.849 156.96L251.588 156.744C251.296 156.507 250.995 156.276 250.688 156.05L250.623 156.005C250.296 155.768 249.954 155.547 249.617 155.331L249.336 155.16C248.984 154.949 248.632 154.748 248.26 154.557C247.883 154.361 247.49 154.18 247.093 154.009L246.792 153.878C246.384 153.712 245.972 153.551 245.545 153.405C244.777 153.144 244.005 152.864 243.227 152.566H243.157C242.379 152.268 241.595 151.956 240.804 151.631C223.489 144.487 204.853 130.772 204.853 130.772C206.195 102.326 197.673 94.0714 189.137 84.66C180.6 75.2486 169.374 68.9392 155 64.0022C140.627 59.0653 125.338 68.9392 115.48 77.4758C105.621 86.0124 87.1801 99.0335 86.2852 115.654C85.3903 132.275 84.4603 136.227 84.4603 136.227C82.6646 138.397 80.5708 140.303 78.2413 141.888V141.888C68.6439 148.499 55.5675 150.404 41.6716 158.875C32.6222 164.405 29.1583 174.993 27.8914 183.822C23.246 197.184 17.1477 215.414 13.6134 228.772C7.32404 252.431 -1.72537 260.978 0.285609 279.579C1.41176 290.011 9.02332 302.867 18.8168 314.772C20.8026 317.19 22.879 319.568 25.0106 321.88C25.7848 322.725 26.5691 323.565 27.3584 324.394C28.8868 325.993 30.4302 327.55 31.9887 329.065C35.9403 332.896 39.9371 336.42 43.7731 339.476C50.5601 344.871 56.1255 347.902 60.4793 349.582C61.0726 356.721 63.8376 366.554 73.4149 374.161C112.74 383.251 173.461 390.782 235.143 373.296C241.241 362.738 242.709 350.859 242.91 343.021C244.58 341.94 246.319 340.738 248.139 339.391C256.565 333.147 262.849 326.626 267.55 320.221C271.496 314.888 274.708 309.049 277.102 302.862C279.454 296.652 281.045 290.179 281.838 283.586C285.845 252.934 273.276 230.909 271.768 205.972ZM221.629 182.072C216.235 191.121 216.466 221.789 218.819 230.22C221.172 238.651 220.488 263.994 221.574 269.987C222.66 275.98 207.417 282.596 198.337 295.446C189.258 308.296 181.274 308.739 180.238 324.414C179.203 340.09 186.774 346.445 187.277 358.51C187.779 370.576 123.428 367.56 111.865 366.132C100.302 364.704 98.2908 360.019 108.346 342.925C118.401 325.832 104.324 320.805 97.0088 302.273C89.6938 283.742 75.6974 282.596 68.1562 268.016C60.615 253.437 68.1562 232.824 68.1562 205.173C68.1562 177.522 56.5931 177.019 52.3047 163.566C49.3284 154.225 61.4647 156.025 69.1617 157.96C69.3226 158.071 69.4835 158.176 69.6393 158.292C79.9708 165.929 73.6613 190.181 93.8918 202.755C114.122 215.329 114.776 270.741 130.502 289.227C155.885 319.045 170.968 272.948 175.492 256.202C184.909 221.336 204.652 202.021 207.668 186.32C210.685 170.619 219.503 160.942 231.297 159.675H231.362C232.109 159.637 232.851 159.816 233.498 160.19C234.144 160.565 234.669 161.119 235.007 161.786C235.345 162.452 235.483 163.203 235.404 163.946C235.325 164.69 235.031 165.394 234.56 165.974C230.397 171.067 224.585 177.095 221.629 182.072V182.072Z" fill="#161616"/>
<path d="M204.83 130.742C203.656 137.501 201.751 144.112 199.149 150.459C198.377 153.786 197.432 157.07 196.318 160.298C195.75 162.038 195.162 163.817 194.654 165.592C194.187 167.216 193.759 168.855 193.302 170.589C191.738 176.587 190.129 182.731 186.806 188.009C186.235 188.925 185.456 189.692 184.533 190.251C183.61 190.809 182.568 191.142 181.492 191.222L179.451 191.363H179.275L178.923 191.388L178.275 191.433L177.455 191.488L176.887 191.524H176.631L175.625 191.589H175.469L174.821 191.629H174.675L173.67 191.695H173.408L172.744 191.73H172.533L172.061 191.755L170.713 191.83L169.929 191.87L169.426 191.901H168.924L167.848 191.956L167.209 191.986H167.023H166.877L165.047 192.072H164.902L164.077 192.107L163.293 192.142L162.584 192.172L161.925 192.202L161.206 192.232H160.508H160.412L159.13 192.283H158.904L158.14 192.313H157.768L156.787 192.343H156.606H155.872H155.47L154.575 192.373H154.264H153.65L152.554 192.403H152.051H151.639H151.609L150.226 192.444H149.824H149.352L147.502 192.489H147.26H146.541H145.581H144.983H144.918H143.967H143.294H142.504H142.414H141.599H140.85H140.031H139.382H138.508H137.542H136.919H135.119H133.812H122.706H121.801H121.198H120.253H119.358L115.839 192.444C114.821 192.425 113.817 192.203 112.886 191.792C111.955 191.381 111.114 190.789 110.414 190.051C108.796 188.342 107.378 186.454 106.186 184.425C103.17 179.362 101.661 173.912 100.153 168.639L94.9245 150.309C91.1833 145.652 87.6943 140.799 84.4725 135.769C80.8024 140.239 76.2174 143.064 71.0039 145.432C76.3984 145.935 82.9692 148.096 86.7449 155.17C93.9291 168.644 92.7778 190.83 101.324 199.412C144.445 242.527 119.74 260.043 142.65 269.027C150.508 272.109 160.553 261.576 169.15 242.527C175.887 227.586 181.03 203.987 188.254 200.533C197.982 195.867 203.91 174.501 211.803 163.938C218.173 155.391 225.533 149.645 236.533 149.288C220.53 142.295 204.83 130.742 204.83 130.742Z" fill="#111111"/>
<path d="M200.315 121.903C200.818 118.032 201.356 114.03 200.929 109.913C200.225 103.146 196.907 96.3389 191.326 90.1501C186.183 84.459 179.828 80.0449 174.293 76.4754C165.44 70.7793 153.726 64.5151 141.308 66.6266C133.169 68.0142 126.613 72.8154 122.39 76.3045C120.555 77.8127 118.594 79.3662 116.523 81.0001C104.432 90.5523 90.7219 101.366 88.3238 116.283C87.1424 123.628 89.2086 130.862 91.0286 137.242L100.108 169.066C101.616 174.34 103.165 179.79 106.141 184.852C107.333 186.882 108.751 188.769 110.369 190.478C111.074 191.217 111.919 191.808 112.854 192.216C113.79 192.625 114.798 192.842 115.819 192.856L119.338 192.901H120.233H121.178H121.812H122.717H133.777H135.084H136.884H137.507H138.473H139.347H139.996H140.815H141.565H142.379H142.469H143.259H143.932H144.883H144.948H145.546H146.507H147.225H147.467L149.317 192.856H149.855H150.257L151.64 192.816H151.67H152.082H152.585L153.681 192.786H154.294H154.606L155.501 192.755H155.903H156.637H156.818L157.798 192.725H158.17L158.934 192.695H159.151L160.433 192.645H160.458H161.157L161.875 192.615L162.534 192.584L163.243 192.554L164.027 192.519L164.852 192.484H164.997L166.827 192.398H166.973H167.159L167.798 192.368L168.874 192.313H169.376L169.879 192.283L170.663 192.243L172.011 192.167L172.483 192.142H172.695L173.358 192.107H173.62L174.625 192.041H174.771L175.419 192.001H175.575L176.581 191.936H176.837L177.405 191.901L178.225 191.845L178.873 191.8L179.225 191.775H179.401L181.442 191.634C182.518 191.554 183.56 191.221 184.483 190.663C185.406 190.105 186.185 189.337 186.756 188.422C190.079 183.143 191.688 176.999 193.252 171.002C193.709 169.267 194.137 167.628 194.604 166.004C195.107 164.25 195.7 162.45 196.268 160.71C197.832 155.914 199.451 150.957 199.883 145.719C200.073 142.583 200.036 139.437 199.772 136.307C199.627 133.844 199.486 131.511 199.571 129.188C199.657 126.866 200.004 124.281 200.315 121.903Z" fill="url(#paint0_linear_1802_23048)"/>
<path d="M138.074 115.323C136.429 114.361 134.838 113.31 133.308 112.175L132.805 111.808L132.584 111.637L132.483 111.557C132.096 111.255 131.719 110.949 131.342 110.637C130.839 110.23 130.372 109.807 129.899 109.385C131.709 107.723 133.294 105.832 134.615 103.759C135.816 101.861 136.756 99.8102 137.41 97.6611C137.515 97.227 137.448 96.7688 137.221 96.3837C136.995 95.9985 136.628 95.7167 136.197 95.5977C135.766 95.4788 135.306 95.5322 134.914 95.7465C134.522 95.9609 134.229 96.3194 134.097 96.7461C133.961 97.1835 133.815 97.6159 133.659 98.0482L133.413 98.6817L133.388 98.742C133.348 98.8375 133.308 98.933 133.262 99.0235C132.89 99.8528 132.47 100.66 132.005 101.442C131.543 102.224 131.04 102.981 130.497 103.709V103.739L130.286 104.006L129.849 104.539C129.547 104.874 129.24 105.209 128.929 105.544C128.456 106.047 127.958 106.519 127.451 106.982C126.717 106.238 126.004 105.474 125.314 104.689C124.707 103.992 124.117 103.278 123.544 102.548L123.393 102.362L123.243 102.166L122.876 101.663C122.584 101.264 122.297 100.867 122.016 100.471C120.795 98.7197 119.681 96.8965 118.678 95.0116C118.445 94.6205 118.068 94.3365 117.628 94.2208C117.188 94.1051 116.72 94.1671 116.325 94.3933C115.922 94.6241 115.627 95.0045 115.504 95.4518C115.381 95.899 115.439 96.3768 115.666 96.7813C118.086 101.312 121.133 105.479 124.716 109.159C123.236 110.191 121.67 111.093 120.035 111.854L119.321 112.175L119.14 112.251L118.884 112.356C118.381 112.547 117.908 112.728 117.416 112.899C116.387 113.254 115.339 113.555 114.279 113.799C113.84 113.928 113.47 114.224 113.25 114.625C113.029 115.025 112.976 115.497 113.102 115.936C113.232 116.369 113.524 116.736 113.917 116.96C114.311 117.183 114.775 117.247 115.214 117.137C119.558 116.125 123.652 114.244 127.249 111.607C128.443 112.693 129.679 113.727 130.96 114.709C132.678 116.021 134.474 117.226 136.339 118.319C136.733 118.549 137.202 118.613 137.644 118.497C138.085 118.381 138.462 118.095 138.692 117.701C138.922 117.307 138.986 116.837 138.87 116.396C138.754 115.955 138.468 115.578 138.074 115.348V115.323Z" fill="#FF007A"/>
<path d="M177.869 115.338C177.064 114.764 176.267 114.178 175.476 113.578L175.214 113.377L175.144 113.322L175.104 113.296L174.52 112.834C174.133 112.527 173.746 112.221 173.364 111.904C171.832 110.65 170.343 109.347 168.895 107.992C168.678 107.791 168.467 107.575 168.251 107.374C170.049 105.603 171.741 103.728 173.319 101.758C174.686 100.07 175.957 98.3061 177.125 96.4745C177.351 96.0797 177.413 95.6117 177.297 95.1715C177.181 94.7314 176.897 94.3543 176.506 94.1217C176.111 93.9009 175.645 93.842 175.208 93.9573C174.77 94.0727 174.394 94.3532 174.158 94.7401C173.676 95.5042 173.173 96.2533 172.65 96.9873C172.414 97.3242 172.178 97.651 171.931 97.9928L171.539 98.4956L171.423 98.6464L171.253 98.8676C170.106 100.326 168.896 101.728 167.623 103.076C167.023 103.706 166.414 104.322 165.798 104.926C164.068 103.146 162.414 101.303 160.836 99.3955C159.428 97.6761 158.322 96.2232 156.975 94.2826C156.737 93.8963 156.361 93.6165 155.922 93.5013C155.484 93.3861 155.018 93.4444 154.622 93.6642C153.893 94.1368 153.455 95.2277 154.008 96.017C156.794 100.013 159.894 103.78 163.279 107.284C162.656 107.833 162.02 108.368 161.374 108.887L160.871 109.31L160.604 109.516L160.539 109.566C160.167 109.853 159.795 110.129 159.418 110.406C157.784 111.598 156.078 112.69 154.31 113.673C153.916 113.903 153.63 114.281 153.514 114.722C153.398 115.163 153.462 115.632 153.692 116.026C153.922 116.42 154.299 116.707 154.74 116.823C155.181 116.939 155.65 116.875 156.044 116.645C159.519 114.697 162.773 112.381 165.753 109.737C167.284 111.208 168.868 112.624 170.503 113.985C172.333 115.5 174.217 116.945 176.154 118.319C176.548 118.547 177.016 118.61 177.457 118.495C177.897 118.381 178.275 118.097 178.507 117.705C178.727 117.305 178.784 116.834 178.665 116.393C178.546 115.952 178.26 115.573 177.869 115.338V115.338Z" fill="#FF007A"/>
<path d="M138.074 115.323C136.429 114.361 134.838 113.31 133.308 112.175L132.805 111.808L132.584 111.637L132.483 111.557C132.096 111.255 131.719 110.949 131.342 110.637C130.839 110.23 130.372 109.807 129.899 109.385C131.709 107.723 133.294 105.832 134.615 103.759C135.816 101.861 136.756 99.8102 137.41 97.6611C137.515 97.227 137.448 96.7688 137.221 96.3837C136.995 95.9985 136.628 95.7167 136.197 95.5977C135.766 95.4788 135.306 95.5322 134.914 95.7465C134.522 95.9609 134.229 96.3194 134.097 96.7461C133.961 97.1835 133.815 97.6159 133.659 98.0482L133.413 98.6817L133.388 98.742C133.348 98.8375 133.308 98.933 133.262 99.0235C132.89 99.8528 132.47 100.66 132.005 101.442C131.543 102.224 131.04 102.981 130.497 103.709V103.739L130.286 104.006L129.849 104.539C129.547 104.874 129.24 105.209 128.929 105.544C128.456 106.047 127.958 106.519 127.451 106.982C126.717 106.238 126.004 105.474 125.314 104.689C124.707 103.992 124.117 103.278 123.544 102.548L123.393 102.362L123.243 102.166L122.876 101.663C122.584 101.264 122.297 100.867 122.016 100.471C120.795 98.7197 119.681 96.8965 118.678 95.0116C118.445 94.6205 118.068 94.3365 117.628 94.2208C117.188 94.1051 116.72 94.1671 116.325 94.3933C115.922 94.6241 115.627 95.0045 115.504 95.4518C115.381 95.899 115.439 96.3768 115.666 96.7813C118.086 101.312 121.133 105.479 124.716 109.159C123.236 110.191 121.67 111.093 120.035 111.854L119.321 112.175L119.14 112.251L118.884 112.356C118.381 112.547 117.908 112.728 117.416 112.899C116.387 113.254 115.339 113.555 114.279 113.799C113.84 113.928 113.47 114.224 113.25 114.625C113.029 115.025 112.976 115.497 113.102 115.936C113.232 116.369 113.524 116.736 113.917 116.96C114.311 117.183 114.775 117.247 115.214 117.137C119.558 116.125 123.652 114.244 127.249 111.607C128.443 112.693 129.679 113.727 130.96 114.709C132.678 116.021 134.474 117.226 136.339 118.319C136.733 118.549 137.202 118.613 137.644 118.497C138.085 118.381 138.462 118.095 138.692 117.701C138.922 117.307 138.986 116.837 138.87 116.396C138.754 115.955 138.468 115.578 138.074 115.348V115.323Z" fill="#FF007A"/>
<path d="M177.869 115.338C177.064 114.764 176.267 114.178 175.476 113.578L175.214 113.377L175.144 113.322L175.104 113.296L174.52 112.834C174.133 112.527 173.746 112.221 173.364 111.904C171.832 110.65 170.343 109.347 168.895 107.992C168.678 107.791 168.467 107.575 168.251 107.374C170.049 105.603 171.741 103.728 173.319 101.758C174.686 100.07 175.957 98.3061 177.125 96.4745C177.351 96.0797 177.413 95.6117 177.297 95.1715C177.181 94.7314 176.897 94.3543 176.506 94.1217C176.111 93.9009 175.645 93.842 175.208 93.9573C174.77 94.0727 174.394 94.3532 174.158 94.7401C173.676 95.5042 173.173 96.2533 172.65 96.9873C172.414 97.3242 172.178 97.651 171.931 97.9928L171.539 98.4956L171.423 98.6464L171.253 98.8676C170.106 100.326 168.896 101.728 167.623 103.076C167.023 103.706 166.414 104.322 165.798 104.926C164.068 103.146 162.414 101.303 160.836 99.3955C159.428 97.6761 158.322 96.2232 156.975 94.2826C156.737 93.8963 156.361 93.6165 155.922 93.5013C155.484 93.3861 155.018 93.4444 154.622 93.6642C153.893 94.1368 153.455 95.2277 154.008 96.017C156.794 100.013 159.894 103.78 163.279 107.284C162.656 107.833 162.02 108.368 161.374 108.887L160.871 109.31L160.604 109.516L160.539 109.566C160.167 109.853 159.795 110.129 159.418 110.406C157.784 111.598 156.078 112.69 154.31 113.673C153.916 113.903 153.63 114.281 153.514 114.722C153.398 115.163 153.462 115.632 153.692 116.026C153.922 116.42 154.299 116.707 154.74 116.823C155.181 116.939 155.65 116.875 156.044 116.645C159.519 114.697 162.773 112.381 165.753 109.737C167.284 111.208 168.868 112.624 170.503 113.985C172.333 115.5 174.217 116.945 176.154 118.319C176.548 118.547 177.016 118.61 177.457 118.495C177.897 118.381 178.275 118.097 178.507 117.705C178.727 117.305 178.784 116.834 178.665 116.393C178.546 115.952 178.26 115.573 177.869 115.338V115.338Z" fill="#FF007A"/>
<path d="M144.431 131.099C145.185 130.557 146.09 130.269 147.018 130.274C147.946 130.28 148.848 130.579 149.595 131.129C149.653 131.165 149.701 131.216 149.734 131.277C149.767 131.337 149.785 131.404 149.785 131.473C149.785 131.542 149.767 131.61 149.734 131.67C149.701 131.73 149.653 131.781 149.595 131.818C148.829 132.305 147.941 132.563 147.033 132.563C146.126 132.563 145.237 132.305 144.472 131.818C144.404 131.787 144.347 131.738 144.305 131.677C144.263 131.616 144.239 131.544 144.235 131.47C144.231 131.396 144.247 131.323 144.282 131.257C144.316 131.192 144.368 131.137 144.431 131.099V131.099Z" fill="#FF007A"/>
<g filter="url(#filter0_d_1802_23048)">
<path d="M142.718 130.887C143.972 129.99 145.478 129.513 147.02 129.522C148.563 129.532 150.062 130.03 151.305 130.943C151.4 131.006 151.477 131.093 151.53 131.195C151.582 131.297 151.608 131.41 151.605 131.524C151.602 131.639 151.57 131.75 151.512 131.849C151.455 131.948 151.373 132.03 151.275 132.089C149.862 132.974 146.69 134.331 142.758 132.044C142.657 131.987 142.573 131.904 142.512 131.805C142.452 131.706 142.419 131.593 142.414 131.477C142.41 131.361 142.436 131.246 142.489 131.143C142.542 131.039 142.621 130.952 142.718 130.887V130.887Z" fill="#7EE6FD"/>
</g>
<path d="M168.719 145.15C168.487 144.939 168.184 144.821 167.869 144.821C167.555 144.821 167.252 144.939 167.02 145.15C165.967 146.087 164.85 146.949 163.677 147.729C163.797 146.473 163.904 145.216 163.998 143.959C164.008 143.809 163.987 143.658 163.938 143.516C163.889 143.374 163.813 143.243 163.712 143.131C163.612 143.019 163.491 142.927 163.355 142.862C163.22 142.797 163.073 142.76 162.922 142.752C162.618 142.73 162.316 142.826 162.081 143.021C161.845 143.216 161.695 143.494 161.661 143.798C161.56 144.803 161.453 145.799 161.339 146.784C160.333 146.02 159.343 145.237 158.368 144.436C158.128 144.244 157.824 144.149 157.517 144.171C157.21 144.194 156.923 144.332 156.714 144.557C156.611 144.666 156.531 144.795 156.48 144.936C156.429 145.077 156.408 145.227 156.417 145.377C156.425 145.527 156.465 145.673 156.532 145.807C156.6 145.941 156.694 146.06 156.809 146.156C158.123 147.262 159.48 148.339 160.881 149.388C157.356 151.227 153.497 152.339 149.534 152.656C149.499 151.369 149.469 150.077 149.434 148.79C149.41 148.482 149.27 148.194 149.042 147.985C148.814 147.776 148.515 147.662 148.205 147.665C147.896 147.669 147.6 147.791 147.377 148.005C147.154 148.22 147.021 148.511 147.006 148.82V152.757C146.402 152.757 145.799 152.737 145.196 152.697C145.196 151.399 145.241 150.102 145.266 148.805C145.258 148.495 145.132 148.199 144.913 147.978C144.693 147.758 144.398 147.63 144.088 147.62C143.777 147.61 143.474 147.72 143.242 147.926C143.009 148.133 142.865 148.42 142.838 148.73L142.672 152.435C141.296 152.233 139.936 151.939 138.6 151.555C136.415 150.934 134.307 150.069 132.315 148.976C133.7 148.041 135.04 147.079 136.337 146.09C136.457 146 136.557 145.886 136.631 145.755C136.704 145.624 136.751 145.48 136.767 145.331C136.783 145.181 136.768 145.03 136.724 144.887C136.679 144.744 136.606 144.611 136.508 144.497C136.31 144.261 136.03 144.11 135.724 144.075C135.419 144.039 135.111 144.122 134.864 144.306C133.641 145.217 132.382 146.106 131.089 146.97C130.908 145.365 130.74 143.763 130.586 142.164C130.558 141.863 130.413 141.585 130.183 141.389C129.953 141.192 129.656 141.094 129.354 141.113C129.054 141.129 128.771 141.263 128.57 141.487C128.368 141.71 128.263 142.004 128.278 142.305C128.362 143.716 128.466 145.13 128.59 146.548C128.046 146.132 127.527 145.684 127.036 145.206C126.816 144.982 126.519 144.848 126.205 144.83C125.891 144.812 125.582 144.912 125.337 145.11C125.221 145.207 125.126 145.327 125.059 145.462C124.992 145.598 124.954 145.746 124.948 145.897C124.942 146.049 124.967 146.199 125.023 146.34C125.079 146.481 125.164 146.608 125.272 146.714C126.104 147.53 127 148.278 127.951 148.951C126.674 149.725 125.369 150.473 124.035 151.193C123.895 151.258 123.771 151.354 123.674 151.474C123.576 151.594 123.508 151.735 123.474 151.886C123.44 152.036 123.441 152.193 123.477 152.343C123.514 152.493 123.584 152.633 123.683 152.752C123.888 153.014 124.181 153.193 124.508 153.255C124.839 153.335 125.188 153.29 125.488 153.129C126.701 152.459 127.886 151.766 129.042 151.053C129.178 152.269 129.329 153.481 129.49 154.697C129.543 154.966 129.681 155.212 129.882 155.398C130.083 155.584 130.339 155.701 130.611 155.733C130.726 155.748 130.843 155.748 130.958 155.733C131.116 155.735 131.272 155.704 131.417 155.642C131.561 155.579 131.691 155.487 131.798 155.37C131.904 155.254 131.985 155.116 132.034 154.967C132.083 154.817 132.1 154.658 132.084 154.501C131.908 153.39 131.747 152.279 131.581 151.168C135.001 152.967 138.711 154.149 142.541 154.657L142.375 158.473C142.416 158.794 142.569 159.089 142.808 159.306C143.047 159.524 143.356 159.649 143.679 159.659C144.001 159.669 144.317 159.564 144.57 159.362C144.822 159.161 144.994 158.876 145.055 158.559C145.08 157.342 145.1 156.12 145.125 154.904C145.729 154.939 146.342 154.959 146.975 154.959V158.579C147.031 158.896 147.198 159.183 147.446 159.389C147.694 159.595 148.008 159.705 148.33 159.701C148.652 159.697 148.963 159.578 149.206 159.366C149.448 159.154 149.608 158.862 149.655 158.543C149.625 157.317 149.595 156.085 149.559 154.858C153.387 154.561 157.131 153.59 160.62 151.988C160.459 153.129 160.283 154.275 160.117 155.416C160.1 155.574 160.117 155.733 160.166 155.883C160.215 156.033 160.295 156.172 160.401 156.289C160.508 156.406 160.638 156.499 160.783 156.561C160.928 156.624 161.085 156.656 161.243 156.653C161.354 156.666 161.465 156.666 161.575 156.653C161.851 156.627 162.112 156.512 162.318 156.327C162.524 156.141 162.666 155.894 162.721 155.623C162.933 154.114 163.124 152.606 163.294 151.098C164.441 151.892 165.607 152.666 166.814 153.421C167.105 153.593 167.447 153.657 167.781 153.602C168.115 153.547 168.419 153.376 168.639 153.119C168.74 153.004 168.815 152.867 168.858 152.72C168.9 152.572 168.909 152.417 168.884 152.265C168.859 152.113 168.8 151.969 168.713 151.843C168.625 151.717 168.511 151.612 168.377 151.535C167.275 150.865 166.195 150.171 165.14 149.454C166.374 148.627 167.55 147.714 168.659 146.724C168.771 146.627 168.862 146.509 168.926 146.376C168.99 146.243 169.026 146.098 169.031 145.95C169.037 145.803 169.012 145.655 168.959 145.518C168.905 145.38 168.823 145.255 168.719 145.15V145.15Z" fill="#FF007A"/>
<g filter="url(#filter1_d_1802_23048)">
<path d="M138.074 115.323C136.429 114.361 134.838 113.31 133.308 112.175L132.805 111.808L132.584 111.637L132.483 111.557C132.096 111.255 131.719 110.949 131.342 110.637C130.839 110.23 130.372 109.807 129.899 109.385C131.709 107.723 133.294 105.832 134.615 103.759C135.816 101.861 136.756 99.8102 137.41 97.6611C137.515 97.227 137.448 96.7688 137.221 96.3837C136.995 95.9985 136.628 95.7167 136.197 95.5977C135.766 95.4788 135.306 95.5322 134.914 95.7465C134.522 95.9609 134.229 96.3194 134.097 96.7461C133.961 97.1835 133.815 97.6159 133.659 98.0482L133.413 98.6817L133.388 98.742C133.348 98.8375 133.308 98.933 133.262 99.0235C132.89 99.8528 132.47 100.66 132.005 101.442C131.543 102.224 131.04 102.981 130.497 103.709V103.739L130.286 104.006L129.849 104.539C129.547 104.874 129.24 105.209 128.929 105.544C128.456 106.047 127.958 106.519 127.451 106.982C126.717 106.238 126.004 105.474 125.314 104.689C124.707 103.992 124.117 103.278 123.544 102.548L123.393 102.362L123.243 102.166L122.876 101.663C122.584 101.264 122.297 100.867 122.016 100.471C120.795 98.7197 119.681 96.8965 118.678 95.0116C118.445 94.6205 118.068 94.3365 117.628 94.2208C117.188 94.1051 116.72 94.1671 116.325 94.3933C115.922 94.6241 115.627 95.0045 115.504 95.4518C115.381 95.899 115.439 96.3768 115.666 96.7813C118.086 101.312 121.133 105.479 124.716 109.159C123.236 110.191 121.67 111.093 120.035 111.854L119.321 112.175L119.14 112.251L118.884 112.356C118.381 112.547 117.908 112.728 117.416 112.899C116.387 113.254 115.339 113.555 114.279 113.799C113.84 113.928 113.47 114.224 113.25 114.625C113.029 115.025 112.976 115.497 113.102 115.936C113.232 116.369 113.524 116.736 113.917 116.96C114.311 117.183 114.775 117.247 115.214 117.137C119.558 116.125 123.652 114.244 127.249 111.607C128.443 112.693 129.679 113.727 130.96 114.709C132.678 116.021 134.474 117.226 136.339 118.319C136.733 118.549 137.202 118.613 137.644 118.497C138.085 118.381 138.462 118.095 138.692 117.701C138.922 117.307 138.986 116.837 138.87 116.396C138.754 115.955 138.468 115.578 138.074 115.348V115.323Z" fill="#7EE6FD"/>
</g>
<g filter="url(#filter2_d_1802_23048)">
<path d="M177.869 115.338C177.064 114.764 176.267 114.178 175.476 113.578L175.214 113.377L175.144 113.322L175.104 113.296L174.52 112.834C174.133 112.527 173.746 112.221 173.364 111.904C171.832 110.65 170.343 109.347 168.895 107.992C168.678 107.791 168.467 107.575 168.251 107.374C170.049 105.603 171.741 103.728 173.319 101.758C174.686 100.07 175.957 98.3061 177.125 96.4745C177.351 96.0797 177.413 95.6117 177.297 95.1715C177.181 94.7314 176.897 94.3543 176.506 94.1217C176.111 93.9009 175.645 93.842 175.208 93.9573C174.77 94.0727 174.394 94.3532 174.158 94.7401C173.676 95.5042 173.173 96.2533 172.65 96.9873C172.414 97.3242 172.178 97.651 171.931 97.9928L171.539 98.4956L171.423 98.6464L171.253 98.8676C170.106 100.326 168.896 101.728 167.623 103.076C167.023 103.706 166.414 104.322 165.798 104.926C164.068 103.146 162.414 101.303 160.836 99.3955C159.428 97.6761 158.322 96.2232 156.975 94.2826C156.737 93.8963 156.361 93.6165 155.922 93.5013C155.484 93.3861 155.018 93.4444 154.622 93.6642C153.893 94.1368 153.455 95.2277 154.008 96.017C156.794 100.013 159.894 103.78 163.279 107.284C162.656 107.833 162.02 108.368 161.374 108.887L160.871 109.31L160.604 109.516L160.539 109.566C160.167 109.853 159.795 110.129 159.418 110.406C157.784 111.598 156.078 112.69 154.31 113.673C153.916 113.903 153.63 114.281 153.514 114.722C153.398 115.163 153.462 115.632 153.692 116.026C153.922 116.42 154.299 116.707 154.74 116.823C155.181 116.939 155.65 116.875 156.044 116.645C159.519 114.697 162.773 112.381 165.753 109.737C167.284 111.208 168.868 112.624 170.503 113.985C172.333 115.5 174.217 116.945 176.154 118.319C176.548 118.547 177.016 118.61 177.457 118.495C177.897 118.381 178.275 118.097 178.507 117.705C178.727 117.305 178.784 116.834 178.665 116.393C178.546 115.952 178.26 115.573 177.869 115.338V115.338Z" fill="#7EE6FD"/>
</g>
<path d="M168.719 145.15C168.487 144.939 168.184 144.821 167.869 144.821C167.555 144.821 167.252 144.939 167.02 145.15C165.967 146.087 164.85 146.949 163.677 147.729C163.797 146.473 163.904 145.216 163.998 143.959C164.008 143.809 163.987 143.658 163.938 143.516C163.889 143.374 163.813 143.243 163.712 143.131C163.612 143.019 163.491 142.927 163.355 142.862C163.22 142.797 163.073 142.76 162.922 142.752C162.618 142.73 162.316 142.826 162.081 143.021C161.845 143.216 161.695 143.494 161.661 143.798C161.56 144.803 161.453 145.799 161.339 146.784C160.333 146.02 159.343 145.237 158.368 144.436C158.128 144.244 157.824 144.149 157.517 144.171C157.21 144.194 156.923 144.332 156.714 144.557C156.611 144.666 156.531 144.795 156.48 144.936C156.429 145.077 156.408 145.227 156.417 145.377C156.425 145.527 156.465 145.673 156.532 145.807C156.6 145.941 156.694 146.06 156.809 146.156C158.123 147.262 159.48 148.339 160.881 149.388C157.356 151.227 153.497 152.339 149.534 152.656C149.499 151.369 149.469 150.077 149.434 148.79C149.41 148.482 149.27 148.194 149.042 147.985C148.814 147.776 148.515 147.662 148.205 147.665C147.896 147.669 147.6 147.791 147.377 148.005C147.154 148.22 147.021 148.511 147.006 148.82V152.757C146.402 152.757 145.799 152.737 145.196 152.697C145.196 151.399 145.241 150.102 145.266 148.805C145.258 148.495 145.132 148.199 144.913 147.978C144.693 147.758 144.398 147.63 144.088 147.62C143.777 147.61 143.474 147.72 143.242 147.926C143.009 148.133 142.865 148.42 142.838 148.73L142.672 152.435C141.296 152.233 139.936 151.939 138.6 151.555C136.415 150.934 134.307 150.069 132.315 148.976C133.7 148.041 135.04 147.079 136.337 146.09C136.457 146 136.557 145.886 136.631 145.755C136.704 145.624 136.751 145.48 136.767 145.331C136.783 145.181 136.768 145.03 136.724 144.887C136.679 144.744 136.606 144.611 136.508 144.497C136.31 144.261 136.03 144.11 135.724 144.075C135.419 144.039 135.111 144.122 134.864 144.306C133.641 145.217 132.382 146.106 131.089 146.97C130.908 145.365 130.74 143.763 130.586 142.164C130.558 141.863 130.413 141.585 130.183 141.389C129.953 141.192 129.656 141.094 129.354 141.113C129.054 141.129 128.771 141.263 128.57 141.487C128.368 141.71 128.263 142.004 128.278 142.305C128.362 143.716 128.466 145.13 128.59 146.548C128.046 146.132 127.527 145.684 127.036 145.206C126.816 144.982 126.519 144.848 126.205 144.83C125.891 144.812 125.582 144.912 125.337 145.11C125.221 145.207 125.126 145.327 125.059 145.462C124.992 145.598 124.954 145.746 124.948 145.897C124.942 146.049 124.967 146.199 125.023 146.34C125.079 146.481 125.164 146.608 125.272 146.714C126.104 147.53 127 148.278 127.951 148.951C126.674 149.725 125.369 150.473 124.035 151.193C123.895 151.258 123.771 151.354 123.674 151.474C123.576 151.594 123.508 151.735 123.474 151.886C123.44 152.036 123.441 152.193 123.477 152.343C123.514 152.493 123.584 152.633 123.683 152.752C123.888 153.014 124.181 153.193 124.508 153.255C124.839 153.335 125.188 153.29 125.488 153.129C126.701 152.459 127.886 151.766 129.042 151.053C129.178 152.269 129.329 153.481 129.49 154.697C129.543 154.966 129.681 155.212 129.882 155.398C130.083 155.584 130.339 155.701 130.611 155.733C130.726 155.748 130.843 155.748 130.958 155.733C131.116 155.735 131.272 155.704 131.417 155.642C131.561 155.579 131.691 155.487 131.798 155.37C131.904 155.254 131.985 155.116 132.034 154.967C132.083 154.817 132.1 154.658 132.084 154.501C131.908 153.39 131.747 152.279 131.581 151.168C135.001 152.967 138.711 154.149 142.541 154.657L142.375 158.473C142.416 158.794 142.569 159.089 142.808 159.306C143.047 159.524 143.356 159.649 143.679 159.659C144.001 159.669 144.317 159.564 144.57 159.362C144.822 159.161 144.994 158.876 145.055 158.559C145.08 157.342 145.1 156.12 145.125 154.904C145.729 154.939 146.342 154.959 146.975 154.959V158.579C147.031 158.896 147.198 159.183 147.446 159.389C147.694 159.595 148.008 159.705 148.33 159.701C148.652 159.697 148.963 159.578 149.206 159.366C149.448 159.154 149.608 158.862 149.655 158.543C149.625 157.317 149.595 156.085 149.559 154.858C153.387 154.561 157.131 153.59 160.62 151.988C160.459 153.129 160.283 154.275 160.117 155.416C160.1 155.574 160.117 155.733 160.166 155.883C160.215 156.033 160.295 156.172 160.401 156.289C160.508 156.406 160.638 156.499 160.783 156.561C160.928 156.624 161.085 156.656 161.243 156.653C161.354 156.666 161.465 156.666 161.575 156.653C161.851 156.627 162.112 156.512 162.318 156.327C162.524 156.141 162.666 155.894 162.721 155.623C162.933 154.114 163.124 152.606 163.294 151.098C164.441 151.892 165.607 152.666 166.814 153.421C167.105 153.593 167.447 153.657 167.781 153.602C168.115 153.547 168.419 153.376 168.639 153.119C168.74 153.004 168.815 152.867 168.858 152.72C168.9 152.572 168.909 152.417 168.884 152.265C168.859 152.113 168.8 151.969 168.713 151.843C168.625 151.717 168.511 151.612 168.377 151.535C167.275 150.865 166.195 150.171 165.14 149.454C166.374 148.627 167.55 147.714 168.659 146.724C168.771 146.627 168.862 146.509 168.926 146.376C168.99 146.243 169.026 146.098 169.031 145.95C169.037 145.803 169.012 145.655 168.959 145.518C168.905 145.38 168.823 145.255 168.719 145.15V145.15Z" fill="#FF007A"/>
<g filter="url(#filter3_d_1802_23048)">
<path d="M168.719 145.15C168.487 144.939 168.184 144.821 167.869 144.821C167.555 144.821 167.252 144.939 167.02 145.15C165.967 146.087 164.85 146.949 163.677 147.729C163.797 146.473 163.904 145.216 163.998 143.959C164.008 143.809 163.987 143.658 163.938 143.516C163.889 143.374 163.813 143.243 163.712 143.131C163.612 143.019 163.491 142.927 163.355 142.862C163.22 142.797 163.073 142.76 162.922 142.752C162.618 142.73 162.316 142.826 162.081 143.021C161.845 143.216 161.695 143.494 161.661 143.798C161.56 144.803 161.453 145.799 161.339 146.784C160.333 146.02 159.343 145.237 158.368 144.436C158.128 144.244 157.824 144.149 157.517 144.171C157.21 144.194 156.923 144.332 156.714 144.557C156.611 144.666 156.531 144.795 156.48 144.936C156.429 145.077 156.408 145.227 156.417 145.377C156.425 145.527 156.465 145.673 156.532 145.807C156.6 145.941 156.694 146.06 156.809 146.156C158.123 147.262 159.48 148.339 160.881 149.388C157.356 151.227 153.497 152.339 149.534 152.656C149.499 151.369 149.469 150.077 149.434 148.79C149.41 148.482 149.27 148.194 149.042 147.985C148.814 147.776 148.515 147.662 148.205 147.665C147.896 147.669 147.6 147.791 147.377 148.005C147.154 148.22 147.021 148.511 147.006 148.82V152.757C146.402 152.757 145.799 152.737 145.196 152.697C145.196 151.399 145.241 150.102 145.266 148.805C145.258 148.495 145.132 148.199 144.913 147.978C144.693 147.758 144.398 147.63 144.088 147.62C143.777 147.61 143.474 147.72 143.242 147.926C143.009 148.133 142.865 148.42 142.838 148.73L142.672 152.435C141.296 152.233 139.936 151.939 138.6 151.555C136.415 150.934 134.307 150.069 132.315 148.976C133.7 148.041 135.04 147.079 136.337 146.09C136.457 146 136.557 145.886 136.631 145.755C136.704 145.624 136.751 145.48 136.767 145.331C136.783 145.181 136.768 145.03 136.724 144.887C136.679 144.744 136.606 144.611 136.508 144.497C136.31 144.261 136.03 144.11 135.724 144.075C135.419 144.039 135.111 144.122 134.864 144.306C133.641 145.217 132.382 146.106 131.089 146.97C130.908 145.365 130.74 143.763 130.586 142.164C130.558 141.863 130.413 141.585 130.183 141.389C129.953 141.192 129.656 141.094 129.354 141.113C129.054 141.129 128.771 141.263 128.57 141.487C128.368 141.71 128.263 142.004 128.278 142.305C128.362 143.716 128.466 145.13 128.59 146.548C128.046 146.132 127.527 145.684 127.036 145.206C126.816 144.982 126.519 144.848 126.205 144.83C125.891 144.812 125.582 144.912 125.337 145.11C125.221 145.207 125.126 145.327 125.059 145.462C124.992 145.598 124.954 145.746 124.948 145.897C124.942 146.049 124.967 146.199 125.023 146.34C125.079 146.481 125.164 146.608 125.272 146.714C126.104 147.53 127 148.278 127.951 148.951C126.674 149.725 125.369 150.473 124.035 151.193C123.895 151.258 123.771 151.354 123.674 151.474C123.576 151.594 123.508 151.735 123.474 151.886C123.44 152.036 123.441 152.193 123.477 152.343C123.514 152.493 123.584 152.633 123.683 152.752C123.888 153.014 124.181 153.193 124.508 153.255C124.839 153.335 125.188 153.29 125.488 153.129C126.701 152.459 127.886 151.766 129.042 151.053C129.178 152.269 129.329 153.481 129.49 154.697C129.543 154.966 129.681 155.212 129.882 155.398C130.083 155.584 130.339 155.701 130.611 155.733C130.726 155.748 130.843 155.748 130.958 155.733C131.116 155.735 131.272 155.704 131.417 155.642C131.561 155.579 131.691 155.487 131.798 155.37C131.904 155.254 131.985 155.116 132.034 154.967C132.083 154.817 132.1 154.658 132.084 154.501C131.908 153.39 131.747 152.279 131.581 151.168C135.001 152.967 138.711 154.149 142.541 154.657L142.375 158.473C142.416 158.794 142.569 159.089 142.808 159.306C143.047 159.524 143.356 159.649 143.679 159.659C144.001 159.669 144.317 159.564 144.57 159.362C144.822 159.161 144.994 158.876 145.055 158.559C145.08 157.342 145.1 156.12 145.125 154.904C145.729 154.939 146.342 154.959 146.975 154.959V158.579C147.031 158.896 147.198 159.183 147.446 159.389C147.694 159.595 148.008 159.705 148.33 159.701C148.652 159.697 148.963 159.578 149.206 159.366C149.448 159.154 149.608 158.862 149.655 158.543C149.625 157.317 149.595 156.085 149.559 154.858C153.387 154.561 157.131 153.59 160.62 151.988C160.459 153.129 160.283 154.275 160.117 155.416C160.1 155.574 160.117 155.733 160.166 155.883C160.215 156.033 160.295 156.172 160.401 156.289C160.508 156.406 160.638 156.499 160.783 156.561C160.928 156.624 161.085 156.656 161.243 156.653C161.354 156.666 161.465 156.666 161.575 156.653C161.851 156.627 162.112 156.512 162.318 156.327C162.524 156.141 162.666 155.894 162.721 155.623C162.933 154.114 163.124 152.606 163.294 151.098C164.441 151.892 165.607 152.666 166.814 153.421C167.105 153.593 167.447 153.657 167.781 153.602C168.115 153.547 168.419 153.376 168.639 153.119C168.74 153.004 168.815 152.867 168.858 152.72C168.9 152.572 168.909 152.417 168.884 152.265C168.859 152.113 168.8 151.969 168.713 151.843C168.625 151.717 168.511 151.612 168.377 151.535C167.275 150.865 166.195 150.171 165.14 149.454C166.374 148.627 167.55 147.714 168.659 146.724C168.771 146.627 168.862 146.509 168.926 146.376C168.99 146.243 169.026 146.098 169.031 145.95C169.037 145.803 169.012 145.655 168.959 145.518C168.905 145.38 168.823 145.255 168.719 145.15V145.15Z" fill="#7EE6FD"/>
</g>
<path d="M197.979 109.46C197.413 106.166 196.286 102.992 194.646 100.079C193.013 97.143 191.024 94.4194 188.724 91.9698C186.411 89.506 183.899 87.2376 181.213 85.1878C178.538 83.1165 175.733 81.2111 172.882 79.3811C170.042 77.5061 167.102 75.7875 164.074 74.233C161.032 72.6355 157.831 71.3632 154.522 70.4373C154.105 70.3116 153.682 70.2161 153.26 70.1205L151.988 69.839L150.701 69.6279L150.058 69.5223L149.409 69.4569L148.107 69.3312C147.67 69.3061 147.232 69.3061 146.8 69.291H146.141C145.925 69.291 145.709 69.291 145.488 69.291L144.181 69.3564C143.743 69.3815 143.311 69.462 142.878 69.5122C142.446 69.5625 142.009 69.6027 141.581 69.6982C141.154 69.7938 140.722 69.8541 140.304 69.9697C139.887 70.0854 139.455 70.1708 139.043 70.3015C137.382 70.7928 135.766 71.4235 134.211 72.1868C131.163 73.7156 128.289 75.5697 125.639 77.717C124.317 78.7778 123.04 79.8386 121.723 80.8793L117.766 84.0013C115.127 86.0777 112.482 88.1641 109.918 90.341C108.631 91.4269 107.368 92.5396 106.128 93.6792C104.888 94.8187 103.683 95.9918 102.513 97.1984C101.337 98.405 100.214 99.6568 99.1447 100.954C98.6017 101.592 98.0989 102.266 97.5861 102.935C97.0733 103.603 96.5807 104.287 96.1483 104.996C95.21 106.387 94.37 107.842 93.6346 109.35L93.3581 109.913L93.1117 110.491C92.9508 110.873 92.7648 111.25 92.609 111.647L92.1716 112.819L91.7945 114.015C91.3145 115.616 90.978 117.256 90.789 118.917C90.6208 120.572 90.5955 122.239 90.7136 123.899C90.9815 127.177 91.5503 130.423 92.4129 133.597C93.2223 136.764 94.1122 139.871 94.9668 142.998C96.6812 149.253 98.4509 155.492 100.19 161.736L102.845 171.097C103.7 174.265 104.725 177.385 105.917 180.443C106.534 181.997 107.253 183.508 108.068 184.968C108.887 186.455 109.833 187.87 110.894 189.196C111.81 190.342 112.819 191.411 113.91 192.393C114.236 192.679 114.654 192.837 115.087 192.841H115.112C115.269 192.841 115.422 192.793 115.552 192.703C115.681 192.614 115.779 192.487 115.834 192.34C115.889 192.192 115.897 192.032 115.858 191.879C115.819 191.727 115.734 191.591 115.615 191.488C114.454 190.465 113.392 189.336 112.442 188.115C110.528 185.57 108.988 182.765 107.867 179.784C106.726 176.78 105.746 173.718 104.931 170.609L102.337 161.238C100.572 154.999 98.843 148.75 97.0583 142.516C96.1785 139.394 95.2534 136.272 94.4239 133.17C93.5659 130.105 92.987 126.968 92.6944 123.799C92.5697 122.236 92.5781 120.665 92.7196 119.103C92.8773 117.545 93.1735 116.004 93.6044 114.498C94.0447 112.978 94.608 111.497 95.2886 110.069C95.971 108.618 96.752 107.215 97.6264 105.871C98.0537 105.187 98.5313 104.533 98.9938 103.86C99.4564 103.186 99.9591 102.553 100.502 101.919C101.508 100.642 102.588 99.4055 103.715 98.2039C104.841 97.0023 105.997 95.8259 107.199 94.6847C108.4 93.5435 109.617 92.4123 110.864 91.3113C115.851 86.8921 121.18 82.7646 126.263 78.4008C128.818 76.2357 131.605 74.3608 134.573 72.8102C137.582 71.2461 140.865 70.2781 144.241 69.9597L145.518 69.8943C145.729 69.8943 145.94 69.8591 146.151 69.8692H146.79C147.217 69.8692 147.645 69.8692 148.067 69.8993L149.344 70.02L149.977 70.0803L150.611 70.1809L151.868 70.387L153.114 70.6635L153.738 70.7993C153.949 70.8495 154.15 70.9149 154.356 70.9702C157.622 71.8972 160.78 73.1678 163.778 74.7609C166.754 76.3456 169.643 78.091 172.43 79.9894C175.22 81.8798 177.96 83.8354 180.539 85.9369C183.121 88.0068 185.529 90.2852 187.738 92.7491C189.901 95.1671 191.758 97.8416 193.269 100.713C194.004 102.126 194.631 103.593 195.144 105.102C195.656 106.592 196.035 108.124 196.275 109.682C196.666 112.82 196.642 115.996 196.205 119.128C196.024 120.717 195.797 122.316 195.596 123.924C195.395 125.533 195.224 127.162 195.139 128.801C195.042 132.058 195.133 135.318 195.41 138.564C195.501 140.168 195.586 141.767 195.591 143.355C195.603 144.939 195.509 146.521 195.31 148.091C194.849 151.259 194.133 154.385 193.168 157.437C192.253 160.534 191.227 163.626 190.388 166.778C189.548 169.931 188.88 173.088 188.03 176.21C187.624 177.775 187.174 179.324 186.678 180.855L186.28 182.001L186.084 182.57L185.863 183.133L185.416 184.264L184.913 185.37L184.662 185.923C184.576 186.104 184.476 186.285 184.385 186.461L183.827 187.542C183.621 187.894 183.41 188.241 183.199 188.592L182.887 189.095C182.771 189.266 182.651 189.427 182.535 189.598L181.836 190.603C181.836 190.603 181.514 191.302 182.098 190.875C183.432 189.257 184.573 187.489 185.496 185.606L186.044 184.495L186.547 183.369L186.793 182.801L187.02 182.228L187.467 181.086C188.015 179.543 188.548 178 188.975 176.431C189.895 173.309 190.685 170.162 191.595 167.065C192.504 163.968 193.57 160.911 194.566 157.804C195.61 154.692 196.391 151.496 196.898 148.252C197.306 145.001 197.384 141.716 197.13 138.449C196.874 135.26 196.804 132.058 196.919 128.861C197.014 127.278 197.195 125.689 197.421 124.095C197.648 122.502 197.839 120.898 198.015 119.279C198.191 117.66 198.336 116.021 198.356 114.372C198.373 112.727 198.247 111.084 197.979 109.46Z" fill="#282828"/>
<path d="M90.7798 313.374C90.7798 313.374 84.0179 296.024 69.1617 290.137C62.9025 288.483 56.0903 280.585 52.0684 276.06C48.0464 271.536 58.1013 257.695 60.1123 232.442C62.0328 208.371 66.648 164.868 38.5847 165.577C37.332 165.604 36.1166 166.009 35.0976 166.738C34.0786 167.467 33.3034 168.487 32.8736 169.664C29.1935 179.915 18.6961 209.446 13.6084 228.742C7.32405 252.431 -1.72537 260.978 0.285614 279.579C1.72347 292.897 13.7341 310.171 27.3585 324.414C28.0824 325.173 28.8164 325.923 29.5504 326.662L29.8219 326.938C30.5408 327.662 31.2648 328.376 31.9837 329.08C35.9353 332.911 39.9321 336.435 43.7681 339.492C50.5551 344.886 56.1205 347.918 60.4743 349.597C68.2166 352.583 72.1179 351.271 72.1179 351.271C72.1179 351.271 81.2276 359.516 90.7798 340.412C100.332 321.307 97.8182 318.004 90.7798 313.374Z" fill="#2B2B2B"/>
<path d="M271.768 205.973C270.26 181.041 260.778 170.931 260.778 170.931C260.446 170.243 260.025 169.6 259.526 169.021C257.41 166.482 252.312 162.721 242.066 166.346C227.527 171.489 221.454 194.389 222.499 216.234C224.007 248.409 236.576 267.514 233.56 276.563C230.382 286.115 208.649 288.046 200.745 312.469C200.745 312.469 188.68 316.602 193.767 330.769C198.855 344.936 204.903 349.461 210.433 348.456C210.433 348.456 219.629 358.078 242.911 343.036C244.58 341.955 246.319 340.754 248.139 339.406C256.565 333.162 262.85 326.641 267.55 320.236C271.496 314.903 274.709 309.064 277.102 302.877C279.455 296.667 281.045 290.194 281.838 283.601C285.845 252.934 273.277 230.909 271.768 205.973Z" fill="#2B2B2B"/>
<path d="M27.43 324.344L28.0132 323.791L27.5758 324.208L28.0132 323.791L28.154 323.655L28.0886 323.721L27.435 324.349L27.2892 324.49L26.6357 325.113L26.5703 325.178L26.7061 325.043L27.1434 324.625L26.7061 325.038L27.2842 324.485L27.43 324.344Z" fill="#0C0A09"/>
<path d="M52.0662 276.06C56.0882 280.585 62.9004 288.483 69.1596 290.137C75.9316 292.822 81.0193 297.89 84.5536 302.605C83.1761 297.151 80.6926 291.113 76.198 286.618C65.6404 276.06 54.58 276.563 60.6129 255.448C63.9662 243.709 62.6591 231.658 60.8341 223.272C60.5928 226.53 60.3314 229.622 60.1051 232.447C58.0891 257.71 48.0443 271.536 52.0662 276.06Z" fill="#111111"/>
<path d="M233.559 276.563C235.645 270.309 230.286 259.248 226.279 242.376C225.324 249.304 224.53 257.413 225.012 262.989C226.018 274.552 224.007 279.077 215.963 285.11C209.93 289.634 204.792 296.085 204.656 303.681C214.203 287.372 230.794 284.803 233.559 276.563Z" fill="#111111"/>
<path d="M194.346 347.45C198.871 357.505 206.412 354.991 220.489 357.002C234.566 359.013 225.516 366.052 214.803 366.474C204.089 366.896 192.838 373.593 173.427 374.598C154.016 375.604 133.011 379.626 117.426 374.598C101.841 369.571 84.7474 373.593 79.2172 365.046C73.687 356.499 87.2612 367.56 93.5153 351.472C96.5318 343.674 95.4609 338.174 93.5153 334.57C92.7411 336.334 91.8311 338.26 90.7653 340.396C81.2131 359.501 72.1084 351.261 72.1084 351.261C72.1084 351.261 68.2071 352.573 60.4648 349.587C61.0581 356.721 63.8232 366.554 73.4005 374.161C112.725 383.25 173.447 390.782 235.129 373.296C241.227 362.738 242.695 350.859 242.896 343.021C219.614 358.063 210.419 348.44 210.419 348.44C205.145 349.401 199.414 345.323 194.472 332.659C193.044 337.335 192.28 342.86 194.346 347.45Z" fill="#111111"/>
<path d="M90.7798 313.374C90.7798 313.374 87.0645 303.852 79.101 296.527C79.3551 299.026 80.0837 301.455 81.2477 303.681C87.0444 314.46 80.4735 321.559 69.2723 329.1C58.0712 336.641 53.828 328.094 41.6214 320.528C29.4147 312.962 21.1496 294.913 15.6194 281.339C10.0892 267.765 16.6249 258.715 21.6523 240.617C25.5536 226.58 24.9151 203.469 24.4325 193.806C20.5161 205.369 16.2981 218.501 13.5883 228.742C7.32407 252.431 -1.72535 260.978 0.285632 279.579C1.72348 292.897 13.7341 310.171 27.3585 324.414C28.0824 325.173 28.8164 325.922 29.5504 326.662L29.8219 326.938C30.5408 327.662 31.2648 328.376 31.9837 329.08C35.9353 332.911 39.9321 336.435 43.7681 339.492C50.5551 344.886 56.1205 347.918 60.4743 349.597C68.2166 352.583 72.1179 351.271 72.1179 351.271C72.1179 351.271 81.2276 359.516 90.7798 340.412C100.332 321.307 97.8182 318.004 90.7798 313.374Z" fill="#161616"/>
<path d="M64.8884 341.206C55.839 341.744 39.7511 330.105 32.7127 321.85C25.6743 313.595 11.5974 294.913 6.56995 282.847C1.54249 270.781 11.0947 253.688 14.9759 242.396C17.2382 235.81 17.4192 224.504 17.1829 216.224C15.8355 220.648 14.6088 224.896 13.5883 228.742C7.32407 252.431 -1.72535 260.978 0.285632 279.579C1.72348 292.897 13.7341 310.172 27.3585 324.414C28.0824 325.173 28.8164 325.923 29.5504 326.662L29.8219 326.938C30.5408 327.662 31.2648 328.376 31.9837 329.08C35.9353 332.911 39.9321 336.435 43.7681 339.492C50.5551 344.886 56.1205 347.918 60.4743 349.597C68.2166 352.583 72.1179 351.271 72.1179 351.271C72.1179 351.271 81.2276 359.516 90.7798 340.412C100.332 321.307 97.8182 318.004 90.7798 313.374C83.9927 336.355 73.9378 340.663 64.8884 341.206Z" fill="#111111"/>
<path d="M266.905 181.981C266.151 193.912 265.216 216.319 267.508 231.25C270.761 252.436 273.928 274.11 266.06 284.637C258.192 295.164 255.779 322.544 242.934 327.209C230.089 331.875 220.698 343.624 214.826 324.424C210.477 310.222 208.793 303.309 213.388 293.254C207.472 298.363 203.102 305.024 200.769 312.484C200.769 312.484 188.703 316.617 193.791 330.784C198.879 344.951 204.901 349.461 210.432 348.455C210.432 348.455 219.627 358.078 242.909 343.036C244.578 341.955 246.318 340.753 248.138 339.406C256.564 333.162 262.848 326.641 267.549 320.236C271.494 314.903 274.707 309.064 277.101 302.877C279.453 296.667 281.043 290.194 281.837 283.601C285.859 252.934 273.29 230.909 271.782 205.972C271.128 195.45 269.072 187.577 266.905 181.981Z" fill="#161616"/>
<path d="M193.769 330.769C198.872 344.936 204.905 349.461 210.435 348.456C210.435 348.456 219.63 358.078 242.912 343.036C244.581 341.955 246.321 340.753 248.141 339.406C256.567 333.162 262.851 326.641 267.552 320.236C271.497 314.903 274.71 309.064 277.104 302.877C279.456 296.667 281.046 290.194 281.84 283.601C285.118 258.6 277.375 239.36 273.58 219.572C272.805 228.118 272.484 237.595 273.58 245.358C276.299 264.497 277.476 278.81 272.866 289.755C268.479 300.33 263.4 310.605 257.663 320.513C252.168 329.854 239.343 337.757 226.648 339.838C213.954 341.92 209.661 341.347 200.752 312.469C200.747 312.469 188.666 316.602 193.769 330.769Z" fill="#111111"/>
<path d="M60.5165 349.506L61.9242 349.979L63.3519 350.386C64.3061 350.64 65.2726 350.845 66.2478 351C67.2156 351.154 68.1936 351.237 69.1737 351.246C69.6589 351.249 70.1438 351.228 70.6267 351.181C71.0928 351.138 71.554 351.052 72.0042 350.924L72.2003 350.864L72.3762 351C73.2471 351.667 74.2521 352.139 75.3223 352.382C76.3931 352.623 77.5042 352.623 78.5751 352.382C80.7218 351.915 82.597 350.577 84.1807 348.994C85.7349 347.342 87.093 345.517 88.2278 343.554C89.3711 341.563 90.4131 339.516 91.3498 337.42C92.3201 335.324 93.2351 333.212 94.0445 331.071C94.8675 328.969 95.4919 326.794 95.9097 324.575C96.1017 323.512 96.1524 322.429 96.0606 321.353C95.9803 320.325 95.6693 319.328 95.1506 318.437C94.0948 316.662 92.2347 315.305 90.3795 313.972L90.1633 313.822L90.098 313.625C88.043 308.679 85.2047 304.095 81.6921 300.051C80.8185 299.041 79.8904 298.08 78.9119 297.171C77.9416 296.256 76.9193 295.398 75.8502 294.602C73.7199 293.006 71.3868 291.701 68.9123 290.72L68.9827 290.746C67.3814 290.289 65.8566 289.598 64.458 288.694C63.0843 287.818 61.7754 286.843 60.5416 285.778C58.1122 283.657 55.8185 281.385 53.6741 278.976L52.0653 277.197L51.6682 276.749L51.462 276.518C51.3866 276.422 51.3011 276.332 51.2308 276.231C50.9488 275.838 50.7363 275.399 50.6023 274.934C50.3663 274.074 50.2879 273.178 50.3711 272.29C50.4355 271.458 50.5581 270.631 50.7381 269.816C51.4419 266.614 52.4725 263.592 53.3875 260.536C55.3163 254.486 56.8281 248.311 57.9122 242.055C58.415 238.933 58.8122 235.785 59.0535 232.633L59.7774 223.081C60.2148 216.721 60.607 210.372 60.5818 204.027C60.5567 197.682 60.245 191.328 58.8825 185.174C58.2427 182.104 57.2297 179.124 55.8661 176.301C54.5099 173.485 52.5063 171.03 50.0191 169.137C47.4585 167.293 44.4564 166.159 41.3166 165.849C40.9245 165.793 40.5273 165.778 40.1301 165.738C39.7374 165.703 39.3427 165.693 38.9487 165.708C38.1609 165.742 37.3821 165.89 36.6361 166.145C35.89 166.398 35.1827 166.753 34.5346 167.201C33.8919 167.661 33.3033 168.192 32.78 168.785V168.785C32.7604 168.803 32.7342 168.814 32.7071 168.814C32.6799 168.814 32.6538 168.803 32.6342 168.785C32.6158 168.766 32.6055 168.741 32.6055 168.714C32.6055 168.688 32.6158 168.663 32.6342 168.644C33.1624 168.033 33.7577 167.483 34.4089 167.005C35.0734 166.54 35.7971 166.167 36.5606 165.894C37.3268 165.624 38.1275 165.465 38.9386 165.421C39.3459 165.396 39.7481 165.421 40.1503 165.421C40.5525 165.421 40.9546 165.421 41.3518 165.456C44.6201 165.601 47.7907 166.615 50.537 168.392C53.2358 170.279 55.4483 172.779 56.9922 175.687C58.5424 178.563 59.7054 181.631 60.4511 184.812C61.9895 191.117 62.4973 197.587 62.628 204.012C62.7587 210.437 62.4018 216.862 61.899 223.242C61.6577 226.434 61.3711 229.612 61.0946 232.794C60.8181 235.976 60.3858 239.204 59.8227 242.376C58.6583 248.7 57.054 254.934 55.0215 261.033C54.0612 264.08 53.0105 267.106 52.2916 270.143C52.1179 270.886 51.997 271.64 51.9296 272.4C51.8483 273.103 51.8942 273.815 52.0653 274.502C52.1542 274.804 52.2899 275.091 52.4675 275.352C52.5077 275.417 52.563 275.472 52.6083 275.538L52.7993 275.754L53.1965 276.206L54.7751 277.996C56.8565 280.381 59.0847 282.635 61.4465 284.743C62.6177 285.779 63.8647 286.727 65.1769 287.578C66.455 288.43 67.8529 289.085 69.3246 289.524H69.3648H69.3949C71.9602 290.568 74.38 291.938 76.5943 293.601C77.699 294.424 78.7549 295.31 79.7565 296.256C80.762 297.196 81.7223 298.186 82.6322 299.212C86.2612 303.358 89.2395 308.032 91.4655 313.072V313.072L91.1839 312.726C92.2107 313.33 93.1965 314.002 94.1351 314.737C95.1273 315.503 95.9779 316.437 96.6488 317.497C96.9918 318.049 97.2686 318.639 97.4733 319.256C97.6732 319.867 97.8096 320.497 97.8805 321.137C97.9942 322.377 97.9401 323.626 97.7196 324.852C97.2699 327.193 96.5775 329.481 95.6533 331.679C94.7735 333.861 93.7881 335.988 92.7575 338.079C90.7164 342.237 88.4741 346.51 85.0203 349.848C83.2858 351.477 81.1843 352.865 78.746 353.337C77.5339 353.556 76.2887 353.506 75.0979 353.192C73.9071 352.877 72.7996 352.306 71.8534 351.517L72.2204 351.593C71.7101 351.722 71.1878 351.798 70.6619 351.819C70.1595 351.846 69.656 351.846 69.1536 351.819C68.1397 351.767 67.1313 351.638 66.1372 351.432C65.1541 351.235 64.1823 350.985 63.2263 350.683L61.8135 350.18L60.4461 349.713C60.4334 349.708 60.4218 349.701 60.4119 349.692C60.402 349.683 60.394 349.672 60.3884 349.66C60.3827 349.648 60.3796 349.635 60.3792 349.621C60.3787 349.608 60.381 349.594 60.3858 349.582C60.3902 349.57 60.397 349.559 60.4058 349.55C60.4146 349.54 60.4251 349.533 60.4369 349.528C60.4486 349.522 60.4612 349.52 60.4741 349.519C60.4869 349.519 60.4996 349.522 60.5114 349.527L60.5165 349.506Z" fill="#0C0A09"/>
<path d="M260.686 170.971C260.219 170.116 259.628 169.335 258.932 168.654C258.249 167.97 257.478 167.38 256.639 166.899C254.961 165.95 253.081 165.412 251.154 165.331C249.228 165.256 247.301 165.461 245.433 165.939L244.035 166.321L242.663 166.789C241.761 167.104 240.886 167.489 240.044 167.94C236.665 169.74 233.95 172.595 231.834 175.798C230.78 177.416 229.851 179.112 229.054 180.87C228.243 182.634 227.538 184.443 226.942 186.29C224.564 193.706 223.513 201.523 223.212 209.341C223.074 213.262 223.144 217.187 223.423 221.1C223.684 225.022 224.115 228.93 224.715 232.824C226.025 240.599 227.888 248.27 230.29 255.78L232.03 261.445C232.608 263.336 233.171 265.236 233.644 267.167C234.158 269.112 234.468 271.105 234.569 273.114C234.616 274.153 234.518 275.194 234.277 276.206C234.153 276.722 233.985 277.227 233.774 277.714C233.546 278.188 233.284 278.645 232.99 279.082C232.697 279.515 232.378 279.929 232.035 280.324C231.683 280.696 231.336 281.088 230.959 281.425C230.217 282.116 229.438 282.767 228.626 283.375C227.018 284.577 225.348 285.653 223.704 286.744C220.403 288.833 217.252 291.149 214.273 293.676C212.817 294.949 211.445 296.315 210.165 297.764C209.517 298.478 208.924 299.242 208.325 299.996C207.727 300.75 207.179 301.544 206.666 302.364C206.154 303.183 205.661 304.003 205.158 304.832C204.655 305.662 204.243 306.522 203.861 307.411C203.048 309.161 202.345 310.959 201.755 312.796L201.589 313.299L201.086 313.49C200.671 313.638 200.266 313.815 199.874 314.018C199.467 314.234 199.07 314.48 198.678 314.736C197.912 315.258 197.203 315.858 196.561 316.526C195.299 317.86 194.397 319.493 193.942 321.272C193.726 322.169 193.607 323.085 193.585 324.007C193.575 324.945 193.646 325.882 193.796 326.807C194.166 328.703 194.728 330.556 195.475 332.338C195.817 333.268 196.229 334.163 196.601 335.078L197.225 336.42C197.436 336.867 197.632 337.315 197.868 337.747C198.736 339.495 199.763 341.159 200.935 342.719C202.052 344.255 203.453 345.562 205.063 346.57C205.84 347.041 206.689 347.381 207.576 347.576C208.467 347.746 209.38 347.763 210.276 347.626L210.719 347.566L210.99 347.862C211.06 347.933 211.211 348.053 211.322 348.154L211.719 348.451C211.985 348.647 212.287 348.808 212.569 348.989L213.484 349.451C213.8 349.587 214.127 349.697 214.449 349.828C214.776 349.957 215.112 350.061 215.454 350.14C215.785 350.244 216.12 350.332 216.46 350.401L217.496 350.577L217.998 350.668L218.501 350.703C219.914 350.821 221.334 350.806 222.744 350.658L224.866 350.376L226.967 349.898C227.314 349.813 227.671 349.758 228.013 349.642L229.018 349.315L231.08 348.657L233.091 347.847L234.096 347.44L234.599 347.239L235.102 346.998L237.057 346.042L238.038 345.565L238.54 345.329L239.013 345.057L242.814 342.905C242.837 342.891 242.865 342.887 242.891 342.894C242.918 342.9 242.941 342.917 242.955 342.94C242.969 342.964 242.973 342.992 242.966 343.018C242.96 343.045 242.943 343.067 242.919 343.081L239.234 345.454L238.772 345.746L238.269 346.012L237.309 346.515L235.383 347.571L234.88 347.837L234.378 348.068L233.372 348.526L231.361 349.446C230.677 349.707 229.979 349.949 229.285 350.2L228.244 350.577C227.897 350.703 227.535 350.773 227.178 350.879L225.032 351.442L222.83 351.814C221.346 352.025 219.846 352.092 218.35 352.015H217.787L217.224 351.94L216.098 351.789C215.721 351.739 215.354 351.623 214.982 351.542C214.608 351.463 214.24 351.359 213.881 351.231C213.519 351.105 213.152 350.984 212.795 350.839L211.749 350.336C211.412 350.13 211.065 349.954 210.744 349.728C210.394 349.498 210.066 349.237 209.763 348.948L210.477 349.185C209.388 349.378 208.273 349.378 207.184 349.185C206.106 348.979 205.069 348.595 204.117 348.048C202.284 346.966 200.677 345.539 199.387 343.845C198.103 342.222 196.976 340.482 196.018 338.647C195.515 337.747 195.103 336.812 194.656 335.892C194.208 334.972 193.826 334.022 193.469 333.072C193.112 332.121 192.715 331.196 192.398 330.186C192.068 329.184 191.806 328.161 191.614 327.124C191.434 326.07 191.345 325.001 191.348 323.932C191.36 322.842 191.498 321.757 191.76 320.699C192.308 318.566 193.393 316.608 194.912 315.013C195.66 314.23 196.49 313.529 197.386 312.922C197.838 312.625 198.296 312.343 198.773 312.092C199.26 311.829 199.764 311.601 200.282 311.408L199.618 312.082C200.258 310.167 201.015 308.293 201.885 306.471C202.298 305.551 202.81 304.677 203.283 303.782C203.755 302.887 204.288 302.037 204.887 301.213C205.485 300.388 206.053 299.559 206.656 298.749C207.26 297.94 207.923 297.176 208.612 296.437C209.96 294.94 211.406 293.534 212.941 292.229C216.022 289.694 219.285 287.388 222.704 285.331C224.373 284.28 226.037 283.239 227.626 282.123C228.413 281.574 229.17 280.981 229.893 280.349C230.265 280.042 230.582 279.7 230.899 279.368C231.216 279.027 231.511 278.666 231.784 278.287C232.872 276.771 233.417 274.933 233.332 273.069C233.287 271.131 233.039 269.204 232.593 267.318C231.758 263.487 230.582 259.706 229.511 255.915C228.44 252.125 227.324 248.319 226.349 244.488C225.374 240.657 224.514 236.791 223.795 232.9C223.076 229.008 222.488 225.087 222.096 221.14C221.677 217.189 221.472 213.219 221.482 209.245C221.482 207.234 221.588 205.264 221.729 203.278C221.869 201.292 222.246 199.392 222.528 197.381C223.093 193.428 224.009 189.533 225.263 185.742C226.496 181.906 228.26 178.261 230.502 174.913C232.769 171.585 235.75 168.614 239.425 166.784C240.337 166.329 241.284 165.948 242.256 165.642L243.699 165.21L245.172 164.868C247.151 164.432 249.186 164.303 251.205 164.486C253.242 164.667 255.207 165.333 256.936 166.427C258.649 167.508 260.017 169.057 260.877 170.891C260.883 170.903 260.886 170.916 260.887 170.929C260.888 170.942 260.886 170.955 260.881 170.967C260.876 170.98 260.869 170.991 260.86 171C260.85 171.009 260.839 171.017 260.827 171.022C260.804 171.033 260.778 171.035 260.754 171.027C260.73 171.02 260.709 171.003 260.696 170.981L260.686 170.971Z" fill="#0C0A09"/>
<path d="M281.672 283.581C282.653 273.99 282.281 264.307 280.566 254.819C278.993 245.327 276.273 236.067 274.03 226.63C272.862 221.904 271.934 217.122 271.25 212.302C271.17 211.699 271.069 211.095 271.004 210.487L270.833 208.662L270.501 205.032L270.179 201.463L269.677 197.944C268.975 193.244 267.839 188.619 266.283 184.128C265.487 181.908 264.555 179.739 263.493 177.633L262.658 176.084C262.357 175.582 262.07 175.079 261.759 174.576C261.447 174.073 261.125 173.601 260.783 173.143C260.622 172.907 260.446 172.681 260.28 172.465C260.195 172.349 260.109 172.238 260.019 172.138L259.778 171.856L259.617 171.665L259.526 171.474C259.496 171.409 259.406 171.233 259.33 171.107C259.255 170.981 259.159 170.826 259.069 170.69C258.883 170.418 258.682 170.147 258.471 169.89L258.31 169.704L258.224 169.458C257.379 166.86 256.174 164.392 254.645 162.128C253.154 159.901 251.222 158.004 248.969 156.553C247.841 155.844 246.641 155.26 245.389 154.808L241.337 153.3C240.015 152.722 238.667 152.184 237.355 151.575C236.043 150.967 234.731 150.374 233.454 149.71C228.318 147.129 223.314 144.291 218.462 141.209C216.035 139.681 213.636 138.11 211.263 136.498C208.89 134.889 206.552 133.245 204.224 131.531L203.556 131.028L203.953 130.299C205.499 127.422 206.843 124.44 207.975 121.376C209.15 118.311 210.037 115.143 210.624 111.914C211.157 108.716 211.323 105.423 210.624 102.291C210.452 101.514 210.22 100.751 209.93 100.009C209.8 99.6318 209.604 99.2849 209.428 98.923L208.91 97.837C208.527 97.0875 208.183 96.319 207.879 95.5345C207.573 94.7502 207.236 93.981 206.989 93.1816C204.813 86.8169 203.772 80.241 202.641 73.7053C202.068 70.4425 201.504 67.1696 200.63 64.0224L200.263 62.851C200.137 62.4639 200.026 62.0667 199.866 61.6997L199.413 60.5685L198.91 59.4172C198.257 57.8788 197.679 56.3203 197.1 54.7668C194.823 48.5378 192.576 42.2988 189.821 36.3161C188.442 33.337 186.846 30.4636 185.045 27.7192C184.572 27.0555 184.145 26.3567 183.617 25.7383L182.858 24.7882L182.476 24.3156L182.058 23.8832C181.485 23.3101 180.972 22.7068 180.349 22.1588C179.726 21.6108 179.132 21.0427 178.519 20.4997C173.609 16.1098 168.361 12.114 162.823 8.54948C160.085 6.78307 157.208 5.2413 154.221 3.9393C152.764 3.30819 151.249 2.82155 149.697 2.48637C148.206 2.17179 146.669 2.15471 145.172 2.4361C142.033 3.08148 138.991 4.1309 136.122 5.55814C133.185 6.96566 130.346 8.57145 127.626 10.3644C124.904 12.1442 122.31 14.1131 119.864 16.2566C117.424 18.3344 115.254 20.709 113.403 23.3252C111.573 25.9736 110.031 28.8101 108.803 31.7864C107.567 34.7777 106.516 37.9148 105.37 41.0419C103.077 47.3083 100.46 53.4517 97.5317 59.4474L96.5262 61.6645L95.6162 63.9168C95.2945 64.6609 95.0632 65.425 94.7867 66.1892L94.3895 67.3355L94.0477 68.4918C93.1362 71.5981 92.4639 74.7696 92.0367 77.9786C91.5792 81.2163 91.2122 84.5746 90.4681 87.9078C89.7455 91.2396 88.7224 94.4989 87.4114 97.646L87.1751 98.2392L86.9741 98.7973L86.5668 99.9083L86.1596 101.024C86.0339 101.396 85.9485 101.789 85.8379 102.171C85.6418 102.94 85.3954 103.679 85.2245 104.478L84.762 106.836C84.2371 110.024 83.9564 113.248 83.9224 116.479C83.9026 119.733 84.0587 122.985 84.39 126.222C84.5609 127.846 84.762 129.465 85.0184 131.074C85.2748 132.682 85.5613 134.306 85.8982 135.845L86.0641 136.599L85.5965 137.152C83.3769 139.757 80.7627 141.998 77.8492 143.793C74.9933 145.534 71.9925 147.026 68.8803 148.252C62.7618 150.716 56.5881 152.732 50.7311 155.432C47.8023 156.758 44.949 158.245 42.1845 159.886C40.861 160.699 39.623 161.644 38.4893 162.706C37.9011 163.209 37.3933 163.807 36.8554 164.37C36.5839 164.652 36.3526 164.974 36.1063 165.275C35.8599 165.577 35.6035 165.874 35.3823 166.2C33.5376 168.776 32.073 171.603 31.0336 174.596C29.9591 177.62 29.1746 180.74 28.6908 183.912V184.003L28.6657 184.068C27.325 187.755 26.0112 191.457 24.7241 195.174C23.4321 198.889 22.1249 202.594 20.8681 206.314C19.6112 210.035 18.3543 213.765 17.1729 217.506C15.9914 221.246 14.81 225.001 13.7291 228.777L13.4375 228.702C15.3077 221.055 17.5349 213.504 19.8224 205.978C20.9787 202.217 22.14 198.436 23.3416 194.716C24.5431 190.996 25.79 187.24 27.0368 183.51L27.0016 183.671C27.4199 180.374 28.1522 177.125 29.1885 173.968C30.2214 170.766 31.7115 167.73 33.6127 164.954C35.5589 162.141 38.0497 159.748 40.9377 157.915C43.7599 156.186 46.6753 154.613 49.6704 153.204C55.6329 150.359 61.8619 148.227 67.8044 145.739C70.7477 144.529 73.5833 143.073 76.2807 141.385C78.9093 139.717 81.2605 137.647 83.2487 135.251L82.9873 136.548C82.5951 134.854 82.2885 133.22 82.027 131.551C81.7656 129.882 81.5243 128.223 81.3483 126.549C80.9765 123.192 80.7885 119.816 80.7853 116.439C80.8006 113.039 81.0745 109.646 81.6047 106.288L82.1075 103.774C82.2834 102.935 82.5348 102.11 82.751 101.261C82.8717 100.848 82.9672 100.426 83.1029 100.019L83.5504 98.7973L83.9978 97.5756L84.224 96.9673L84.4452 96.4042C85.6886 93.4316 86.6596 90.3522 87.3461 87.204C88.0499 84.0618 88.4119 80.8241 88.8795 77.506C89.3226 74.1395 90.0354 70.8141 91.0111 67.5617L91.3831 66.3401L91.8105 65.1385C92.1071 64.3441 92.3635 63.5297 92.7053 62.7555L93.6757 60.4026L94.7465 58.1101C97.6729 52.22 100.292 46.1823 102.594 40.0213C103.751 36.9395 104.827 33.7973 106.149 30.6703C107.473 27.5255 109.132 24.532 111.096 21.7415C113.092 18.9501 115.437 16.4259 118.074 14.2305C120.643 12.0323 123.363 10.0164 126.213 8.19756C129.054 6.37914 132.015 4.75653 135.077 3.34104C138.175 1.86949 141.452 0.809754 144.825 0.188829C145.709 0.047813 146.604 -0.0144417 147.5 0.00280785C148.399 0.0280775 149.293 0.144302 150.169 0.349703C151.851 0.745373 153.49 1.30788 155.061 2.02887C158.123 3.43558 161.066 5.09009 163.859 6.97589C169.388 10.7135 174.622 14.87 179.514 19.4088C180.767 20.5305 181.962 21.7151 183.094 22.9582L183.526 23.4307L183.918 23.9335L184.693 24.939C185.236 25.5925 185.658 26.3215 186.136 27.0153C187.924 29.8433 189.502 32.799 190.856 35.8586C193.601 41.9318 195.743 48.2312 198 54.4602C198.573 56.0137 199.142 57.5671 199.78 59.0804L200.258 60.2166L200.72 61.3981C200.879 61.7891 201.017 62.1885 201.132 62.5946L201.504 63.7962C202.379 67.0288 202.962 70.3067 203.551 73.5645C204.712 80.1002 205.773 86.6359 208.015 92.8247C208.266 93.609 208.603 94.3329 208.91 95.1071C209.217 95.8814 209.579 96.6154 209.915 97.3242L210.463 98.4353C210.644 98.8274 210.866 99.2045 211.011 99.6067C211.337 100.404 211.604 101.224 211.811 102.06C212.625 105.403 212.52 108.862 212.037 112.19C211.526 115.517 210.703 118.787 209.579 121.959C208.491 125.128 207.181 128.215 205.657 131.199L205.386 129.973C207.693 131.606 210.061 133.195 212.424 134.739C214.787 136.282 217.22 137.79 219.659 139.263C224.535 142.174 229.507 144.924 234.59 147.398C235.852 148.036 237.154 148.584 238.436 149.182C239.718 149.781 241.035 150.263 242.332 150.811L246.304 152.284C247.741 152.802 249.117 153.476 250.407 154.295C252.99 155.919 255.213 158.056 256.937 160.575C258.604 163.059 259.911 165.768 260.818 168.619L260.577 168.186C260.851 168.518 261.108 168.863 261.346 169.222C261.462 169.403 261.578 169.584 261.688 169.775C261.799 169.966 261.894 170.142 262.025 170.423L261.774 170.041C261.914 170.197 262.01 170.318 262.12 170.449C262.231 170.579 262.327 170.705 262.422 170.831C262.623 171.087 262.819 171.333 262.995 171.6C263.372 172.103 263.704 172.646 264.046 173.173C264.388 173.701 264.659 174.254 264.981 174.757L265.861 176.401C266.964 178.616 267.927 180.898 268.747 183.233C270.332 187.888 271.463 192.684 272.125 197.557L272.568 201.201L272.854 204.856L273.141 208.446L273.286 210.231C273.342 210.824 273.432 211.412 273.508 212.005C274.046 216.756 274.981 221.472 275.996 226.173C277.012 230.874 278.173 235.574 279.199 240.305C280.224 245.036 281.21 249.792 281.868 254.608C282.25 257.006 282.431 259.429 282.688 261.843L282.889 265.482C282.919 266.086 282.959 266.694 282.979 267.297V269.117C283.11 273.974 282.592 278.815 281.974 283.611L281.672 283.581Z" fill="#0C0A09"/>
<path d="M18.9305 314.701C20.5041 316.355 22.0777 318.009 23.6311 319.673C25.1846 321.337 26.7632 322.976 28.4022 324.55C30.0411 326.124 31.6751 327.707 33.3492 329.246C35.0233 330.784 36.7377 332.262 38.4571 333.77C41.8865 336.72 45.4676 339.489 49.1857 342.066C51.0458 343.322 52.9563 344.504 54.917 345.585C56.86 346.665 58.8759 347.609 60.9499 348.41L59.1652 349.712L61.7845 349.511C61.996 351.79 62.4151 354.045 63.0363 356.248C64.2492 360.679 66.378 364.807 69.2854 368.364C70.752 370.136 72.3721 371.774 74.1269 373.261L73.6744 373.04C86.8463 376.323 100.179 379.138 113.688 380.767C127.186 382.397 140.781 383.082 154.375 382.818C167.941 382.627 181.485 381.645 194.937 379.877C208.355 378.036 221.644 375.349 234.724 371.833L233.819 372.537C236.378 368.09 238.312 363.31 239.565 358.334C240.207 355.832 240.71 353.296 241.074 350.738C241.446 348.174 241.667 345.59 241.802 342.996L241.828 342.418L242.3 342.106L245.779 339.798L247.534 338.652L249.228 337.425C251.48 335.776 253.659 334.037 255.764 332.207C257.88 330.387 259.926 328.476 261.867 326.46C263.808 324.444 265.653 322.333 267.397 320.146L267.639 320.322C266.07 322.674 264.366 324.934 262.536 327.089C260.701 329.241 258.77 331.312 256.724 333.278C254.678 335.243 252.551 337.119 250.349 338.908L248.68 340.226L246.956 341.472L243.502 343.986L244.005 343.096C243.985 345.769 243.827 348.439 243.532 351.095C243.245 353.76 242.802 356.405 242.205 359.018C241.019 364.293 239.087 369.371 236.468 374.101L236.167 374.633L235.558 374.809C222.394 378.592 208.943 381.294 195.339 382.889C181.75 384.54 168.059 385.194 154.375 384.844C140.715 384.507 127.116 383.301 113.577 381.687C100.038 380.073 86.5346 378.082 73.1566 375.297L72.9203 375.252L72.6991 375.081C70.7367 373.583 68.9355 371.884 67.3247 370.013C65.7011 368.138 64.2993 366.081 63.1469 363.885C61.9971 361.689 61.0853 359.377 60.4271 356.987C59.7821 354.606 59.3596 352.171 59.1652 349.712L61.7895 349.511L61.9303 351.593L60.0048 350.833C57.8258 349.966 55.7107 348.946 53.6752 347.782C51.6642 346.62 49.7085 345.354 47.8232 344.011C44.0929 341.302 40.5319 338.367 37.16 335.223C35.4658 333.675 33.8218 332.071 32.2029 330.447C30.5841 328.823 29.0407 327.124 27.4721 325.455C25.9035 323.786 24.4104 322.046 22.9927 320.246C21.5749 318.447 20.122 316.682 18.6992 314.897L18.9305 314.701Z" fill="#0C0A09"/>
<defs>
<filter id="filter0_d_1802_23048" x="135.414" y="122.522" width="23.1914" height="17.7808" filterUnits="userSpaceOnUse" color-interpolation-filters="sRGB">
<feFlood flood-opacity="0" result="BackgroundImageFix"/>
<feColorMatrix in="SourceAlpha" type="matrix" values="0 0 0 0 0 0 0 0 0 0 0 0 0 0 0 0 0 0 127 0" result="hardAlpha"/>
<feOffset/>
<feGaussianBlur stdDeviation="3.5"/>
<feComposite in2="hardAlpha" operator="out"/>
<feColorMatrix type="matrix" values="0 0 0 0 0 0 0 0 0 0.82 0 0 0 0 1 0 0 0 1 0"/>
<feBlend mode="normal" in2="BackgroundImageFix" result="effect1_dropShadow_1802_23048"/>
<feBlend mode="normal" in="SourceGraphic" in2="effect1_dropShadow_1802_23048" result="shape"/>
</filter>
<filter id="filter1_d_1802_23048" x="106.035" y="87.1638" width="39.8906" height="38.3896" filterUnits="userSpaceOnUse" color-interpolation-filters="sRGB">
<feFlood flood-opacity="0" result="BackgroundImageFix"/>
<feColorMatrix in="SourceAlpha" type="matrix" values="0 0 0 0 0 0 0 0 0 0 0 0 0 0 0 0 0 0 127 0" result="hardAlpha"/>
<feOffset/>
<feGaussianBlur stdDeviation="3.5"/>
<feComposite in2="hardAlpha" operator="out"/>
<feColorMatrix type="matrix" values="0 0 0 0 0 0 0 0 0 0.82 0 0 0 0 1 0 0 0 1 0"/>
<feBlend mode="normal" in2="BackgroundImageFix" result="effect1_dropShadow_1802_23048"/>
<feBlend mode="normal" in="SourceGraphic" in2="effect1_dropShadow_1802_23048" result="shape"/>
</filter>
<filter id="filter2_d_1802_23048" x="146.457" y="86.4435" width="39.2695" height="39.1079" filterUnits="userSpaceOnUse" color-interpolation-filters="sRGB">
<feFlood flood-opacity="0" result="BackgroundImageFix"/>
<feColorMatrix in="SourceAlpha" type="matrix" values="0 0 0 0 0 0 0 0 0 0 0 0 0 0 0 0 0 0 127 0" result="hardAlpha"/>
<feOffset/>
<feGaussianBlur stdDeviation="3.5"/>
<feComposite in2="hardAlpha" operator="out"/>
<feColorMatrix type="matrix" values="0 0 0 0 0 0 0 0 0 0.82 0 0 0 0 1 0 0 0 1 0"/>
<feBlend mode="normal" in2="BackgroundImageFix" result="effect1_dropShadow_1802_23048"/>
<feBlend mode="normal" in="SourceGraphic" in2="effect1_dropShadow_1802_23048" result="shape"/>
</filter>
<filter id="filter3_d_1802_23048" x="116.449" y="134.111" width="59.582" height="32.5906" filterUnits="userSpaceOnUse" color-interpolation-filters="sRGB">
<feFlood flood-opacity="0" result="BackgroundImageFix"/>
<feColorMatrix in="SourceAlpha" type="matrix" values="0 0 0 0 0 0 0 0 0 0 0 0 0 0 0 0 0 0 127 0" result="hardAlpha"/>
<feOffset/>
<feGaussianBlur stdDeviation="3.5"/>
<feComposite in2="hardAlpha" operator="out"/>
<feColorMatrix type="matrix" values="0 0 0 0 0 0 0 0 0 0.82 0 0 0 0 1 0 0 0 1 0"/>
<feBlend mode="normal" in2="BackgroundImageFix" result="effect1_dropShadow_1802_23048"/>
<feBlend mode="normal" in="SourceGraphic" in2="effect1_dropShadow_1802_23048" result="shape"/>
</filter>
<linearGradient id="paint0_linear_1802_23048" x1="55445" y1="74339.2" x2="55445" y2="42393.3" gradientUnits="userSpaceOnUse">
<stop stop-color="#111111"/>
<stop offset="0.38" stop-color="#090909"/>
<stop offset="1"/>
</linearGradient>
</defs>
</svg>
