<svg width="114" height="46" viewBox="0 0 114 46" fill="none" xmlns="http://www.w3.org/2000/svg">
<g filter="url(#filter0_f_2529_2310)">
<path d="M63.6205 18.26L62.2063 16.8458L62.2063 16.8458L63.6205 18.26ZM52.5205 18.26L51.0914 19.6593L51.1062 19.6743L51.1212 19.689L52.5205 18.26ZM52.5205 5.76L51.1063 4.34578V4.34579L52.5205 5.76ZM63.6205 5.76L62.1914 7.15925L62.2062 7.17429L62.2212 7.18902L63.6205 5.76ZM62.9805 8.8C62.9805 8.09171 62.802 7.19314 62.0947 6.48579C61.3873 5.77843 60.4888 5.6 59.7805 5.6V9.6C59.8722 9.6 59.5736 9.62157 59.2663 9.31421C58.9589 9.00685 58.9805 8.70829 58.9805 8.8H62.9805ZM59.7805 5.6H56.3805V9.6H59.7805V5.6ZM56.3805 5.6C55.6722 5.6 54.7736 5.77843 54.0663 6.48579C53.3589 7.19315 53.1805 8.09171 53.1805 8.8H57.1805C57.1805 8.70829 57.202 9.00685 56.8947 9.31421C56.5873 9.62157 56.2888 9.6 56.3805 9.6V5.6ZM53.1805 8.8V15.2H57.1805V8.8H53.1805ZM53.1805 15.2C53.1805 15.9083 53.3589 16.8069 54.0663 17.5142C54.7736 18.2216 55.6722 18.4 56.3805 18.4V14.4C56.2888 14.4 56.5873 14.3784 56.8947 14.6858C57.202 14.9931 57.1805 15.2917 57.1805 15.2H53.1805ZM56.3805 18.4H59.7805V14.4H56.3805V18.4ZM59.7805 18.4C60.4888 18.4 61.3873 18.2216 62.0947 17.5142C62.802 16.8069 62.9805 15.9083 62.9805 15.2H58.9805C58.9805 15.2917 58.9589 14.9931 59.2663 14.6858C59.5736 14.3784 59.8722 14.4 59.7805 14.4V18.4ZM62.9805 15.2V8.8H58.9805V15.2H62.9805ZM62.5805 15.2C62.5805 16.3526 62.3098 16.7423 62.2063 16.8458L65.0347 19.6742C66.2112 18.4977 66.5805 16.8474 66.5805 15.2H62.5805ZM62.2063 16.8458C62.1226 16.9294 61.7475 17.2 60.5805 17.2V21.2C62.2134 21.2 63.865 20.8439 65.0347 19.6742L62.2063 16.8458ZM60.5805 17.2H55.5805V21.2H60.5805V17.2ZM55.5805 17.2C54.4183 17.2 54.0223 16.9315 53.9197 16.831L51.1212 19.689C52.2986 20.8419 53.9426 21.2 55.5805 21.2V17.2ZM53.9495 16.8608C53.849 16.7581 53.5805 16.3622 53.5805 15.2H49.5805C49.5805 16.8378 49.9386 18.4819 51.0914 19.6593L53.9495 16.8608ZM53.5805 15.2V8.8H49.5805V15.2H53.5805ZM53.5805 8.8C53.5805 7.63293 53.851 7.25786 53.9347 7.17421L51.1063 4.34579C49.9366 5.51548 49.5805 7.16707 49.5805 8.8H53.5805ZM53.9347 7.17421C54.0382 7.07071 54.4278 6.8 55.5805 6.8V2.8C53.9331 2.8 52.2828 3.16929 51.1063 4.34578L53.9347 7.17421ZM55.5805 6.8H60.5805V2.8H55.5805V6.8ZM60.5805 6.8C61.7379 6.8 62.1067 7.07269 62.1914 7.15925L65.0495 4.36075C63.8809 3.16731 62.2231 2.8 60.5805 2.8V6.8ZM62.2212 7.18902C62.3078 7.27378 62.5805 7.64258 62.5805 8.8H66.5805C66.5805 7.15741 66.2132 5.49956 65.0197 4.33098L62.2212 7.18902ZM62.5805 8.8V15.2H66.5805V8.8H62.5805ZM80.6898 19V21H82.6898V19H80.6898ZM76.8898 19L75.1534 19.9923L75.7292 21H76.8898V19ZM72.0898 10.6L73.8263 9.60772L70.0898 3.06887V10.6H72.0898ZM72.0898 19V21H74.0898V19H72.0898ZM68.4898 19H66.4898V21H68.4898V19ZM68.4898 5V3H66.4898V5H68.4898ZM72.2898 5L74.0263 4.00772L73.4505 3H72.2898V5ZM77.0898 13.4L75.3534 14.3923L79.0898 20.9311V13.4H77.0898ZM77.0898 5V3H75.0898V5H77.0898ZM80.6898 5H82.6898V3H80.6898V5ZM80.6898 17H76.8898V21H80.6898V17ZM78.6263 18.0077L73.8263 9.60772L70.3534 11.5923L75.1534 19.9923L78.6263 18.0077ZM70.0898 10.6V19H74.0898V10.6H70.0898ZM72.0898 17H68.4898V21H72.0898V17ZM70.4898 19V5H66.4898V19H70.4898ZM68.4898 7H72.2898V3H68.4898V7ZM70.5534 5.99228L75.3534 14.3923L78.8263 12.4077L74.0263 4.00772L70.5534 5.99228ZM79.0898 13.4V5H75.0898V13.4H79.0898ZM77.0898 7H80.6898V3H77.0898V7ZM78.6898 5V19H82.6898V5H78.6898ZM88.5992 16.2H86.5992V18.2H88.5992V16.2ZM95.8992 16.2H97.8992V14.2H95.8992V16.2ZM95.8992 19V21H97.8992V19H95.8992ZM84.9992 19H82.9992V21H84.9992V19ZM84.9992 5V3H82.9992V5H84.9992ZM88.5992 5H90.5992V3H88.5992V5ZM88.5992 18.2H95.8992V14.2H88.5992V18.2ZM93.8992 16.2V19H97.8992V16.2H93.8992ZM95.8992 17H84.9992V21H95.8992V17ZM86.9992 19V5H82.9992V19H86.9992ZM84.9992 7H88.5992V3H84.9992V7ZM86.5992 5V16.2H90.5992V5H86.5992ZM95.2016 5V3H91.9232L93.4232 5.91509L95.2016 5ZM99.0016 5L100.801 4.1268L100.254 3H99.0016V5ZM102.302 11.8L100.502 12.6732L102.302 16.3809L104.101 12.6732L102.302 11.8ZM105.602 5V3H104.349L103.802 4.1268L105.602 5ZM109.402 5L111.18 5.91509L112.68 3H109.402V5ZM104.102 15.3L102.323 14.3849L102.102 14.8156V15.3H104.102ZM104.102 19V21H106.102V19H104.102ZM100.502 19H98.5016V21H100.502V19ZM100.502 15.3H102.502V14.8156L102.28 14.3849L100.502 15.3ZM95.2016 7H99.0016V3H95.2016V7ZM97.2022 5.8732L100.502 12.6732L104.101 10.9268L100.801 4.1268L97.2022 5.8732ZM104.101 12.6732L107.401 5.8732L103.802 4.1268L100.502 10.9268L104.101 12.6732ZM105.602 7H109.402V3H105.602V7ZM107.623 4.08491L102.323 14.3849L105.88 16.2151L111.18 5.91509L107.623 4.08491ZM102.102 15.3V19H106.102V15.3H102.102ZM104.102 17H100.502V21H104.102V17ZM102.502 19V15.3H98.5016V19H102.502ZM102.28 14.3849L96.9799 4.08491L93.4232 5.91509L98.7232 16.2151L102.28 14.3849ZM4.47375 38.1L4.58307 36.103L2.47375 35.9875V38.1H4.47375ZM12.6137 38.14L11.1995 36.7258H11.1995L12.6137 38.14ZM12.8937 35.6H14.8937V33.6H12.8937V35.6ZM5.23375 34.66L3.80473 36.0592L3.81946 36.0743L3.8345 36.089L5.23375 34.66ZM5.23375 27.96L6.64796 29.3742L6.64796 29.3742L5.23375 27.96ZM15.3137 27H17.3137V25H15.3137V27ZM15.3137 29.8V31.8H17.3137V29.8H15.3137ZM15.5737 40.28L14.1595 38.8658L15.5737 40.28ZM10.5337 41.16L10.4469 43.1581L10.4552 43.1585L10.4636 43.1588L10.5337 41.16ZM8.69375 41.08L8.59583 43.0776L8.60687 43.0781L8.69375 41.08ZM4.47375 40.8H2.47375V42.6417L4.30917 42.7932L4.47375 40.8ZM4.36442 40.097C8.01106 40.2966 10.5374 40.4 11.8937 40.4V36.4C10.6634 36.4 8.24311 36.3034 4.58307 36.103L4.36442 40.097ZM11.8937 40.4C12.5902 40.4 13.3906 40.1916 14.028 39.5542L11.1995 36.7258C11.3291 36.5962 11.4798 36.5061 11.6245 36.4539C11.7613 36.4045 11.8609 36.4 11.8937 36.4V40.4ZM14.028 39.5542C14.6505 38.9316 14.8937 38.1444 14.8937 37.4H10.8937C10.8937 37.3502 10.9016 37.2436 10.9532 37.1072C11.0069 36.9651 11.0926 36.8327 11.1995 36.7258L14.028 39.5542ZM14.8937 37.4V35.6H10.8937V37.4H14.8937ZM12.8937 33.6H8.29375V37.6H12.8937V33.6ZM8.29375 33.6C7.13157 33.6 6.73562 33.3315 6.633 33.231L3.8345 36.089C5.01187 37.2419 6.65592 37.6 8.29375 37.6V33.6ZM6.66277 33.2607C6.56228 33.1581 6.29375 32.7622 6.29375 31.6H2.29375C2.29375 33.2378 2.65188 34.8819 3.80473 36.0592L6.66277 33.2607ZM6.29375 31.6V31H2.29375V31.6H6.29375ZM6.29375 31C6.29375 29.8329 6.56432 29.4579 6.64796 29.3742L3.81954 26.5458C2.64984 27.7155 2.29375 29.3671 2.29375 31H6.29375ZM6.64796 29.3742C6.75147 29.2707 7.14111 29 8.29375 29V25C6.64639 25 4.99603 25.3693 3.81953 26.5458L6.64796 29.3742ZM8.29375 29H15.3137V25H8.29375V29ZM13.3137 27V29.8H17.3137V27H13.3137ZM15.3137 27.8H9.09375V31.8H15.3137V27.8ZM9.09375 27.8C8.38546 27.8 7.48689 27.9784 6.77954 28.6858C6.07218 29.3931 5.89375 30.2917 5.89375 31H9.89375C9.89375 30.9083 9.91532 31.2069 9.60796 31.5142C9.3006 31.8216 9.00204 31.8 9.09375 31.8V27.8ZM5.89375 31V31.4H9.89375V31H5.89375ZM5.89375 31.4C5.89375 32.1083 6.07218 33.0069 6.77954 33.7142C7.48689 34.4216 8.38546 34.6 9.09375 34.6V30.6C9.00204 30.6 9.3006 30.5784 9.60796 30.8858C9.91532 31.1931 9.89375 31.4917 9.89375 31.4H5.89375ZM9.09375 34.6H12.6937V30.6H9.09375V34.6ZM12.6937 34.6C13.735 34.6 14.0743 34.849 14.1595 34.9342L16.988 32.1058C15.8465 30.9643 14.2658 30.6 12.6937 30.6V34.6ZM14.1595 34.9342C14.2447 35.0194 14.4937 35.3588 14.4937 36.4H18.4937C18.4937 34.8279 18.1294 33.2472 16.988 32.1058L14.1595 34.9342ZM14.4937 36.4V37.4H18.4937V36.4H14.4937ZM14.4937 37.4C14.4937 38.4412 14.2447 38.7806 14.1595 38.8658L16.988 41.6942C18.1294 40.5527 18.4937 38.9721 18.4937 37.4H14.4937ZM14.1595 38.8658C14.0743 38.951 13.735 39.2 12.6937 39.2V43.2C14.2658 43.2 15.8465 42.8357 16.988 41.6942L14.1595 38.8658ZM12.6937 39.2C12.0397 39.2 11.3432 39.1872 10.6039 39.1612L10.4636 43.1588C11.2443 43.1862 11.9878 43.2 12.6937 43.2V39.2ZM10.6206 39.1619L8.78062 39.0819L8.60687 43.0781L10.4469 43.1581L10.6206 39.1619ZM8.79167 39.0824C7.45541 39.0169 6.07101 38.9251 4.63833 38.8068L4.30917 42.7932C5.78315 42.9149 7.21209 43.0098 8.59583 43.0776L8.79167 39.0824ZM6.47375 40.8V38.1H2.47375V40.8H6.47375ZM25.9961 41V43H27.9961V41H25.9961ZM22.3961 41H20.3961V43H22.3961V41ZM22.3961 29.8H24.3961V27.8H22.3961V29.8ZM18.1961 29.8H16.1961V31.8H18.1961V29.8ZM18.1961 27V25H16.1961V27H18.1961ZM30.1961 27H32.1961V25H30.1961V27ZM30.1961 29.8V31.8H32.1961V29.8H30.1961ZM25.9961 29.8V27.8H23.9961V29.8H25.9961ZM25.9961 39H22.3961V43H25.9961V39ZM24.3961 41V29.8H20.3961V41H24.3961ZM22.3961 27.8H18.1961V31.8H22.3961V27.8ZM20.1961 29.8V27H16.1961V29.8H20.1961ZM18.1961 29H30.1961V25H18.1961V29ZM28.1961 27V29.8H32.1961V27H28.1961ZM30.1961 27.8H25.9961V31.8H30.1961V27.8ZM23.9961 29.8V41H27.9961V29.8H23.9961ZM42.4984 27V25H40.4984V27H42.4984ZM46.0984 27H48.0984V25H46.0984V27ZM45.1384 40.26L43.7242 38.8458H43.7242L45.1384 40.26ZM34.4384 40.26L33.0094 41.6592L33.0241 41.6743L33.0392 41.689L34.4384 40.26ZM33.4984 27V25H31.4984V27H33.4984ZM37.0984 27H39.0984V25H37.0984V27ZM42.4984 29H46.0984V25H42.4984V29ZM44.0984 27V37.2H48.0984V27H44.0984ZM44.0984 37.2C44.0984 38.3526 43.8277 38.7423 43.7242 38.8458L46.5527 41.6742C47.7291 40.4977 48.0984 38.8474 48.0984 37.2H44.0984ZM43.7242 38.8458C43.6406 38.9294 43.2655 39.2 42.0984 39.2V43.2C43.7314 43.2 45.383 42.8439 46.5527 41.6742L43.7242 38.8458ZM42.0984 39.2H37.4984V43.2H42.0984V39.2ZM37.4984 39.2C36.3363 39.2 35.9403 38.9315 35.8377 38.831L33.0392 41.689C34.2166 42.8419 35.8606 43.2 37.4984 43.2V39.2ZM35.8675 38.8608C35.767 38.7581 35.4984 38.3622 35.4984 37.2H31.4984C31.4984 38.8378 31.8566 40.4819 33.0094 41.6592L35.8675 38.8608ZM35.4984 37.2V27H31.4984V37.2H35.4984ZM33.4984 29H37.0984V25H33.4984V29ZM35.0984 27V37.2H39.0984V27H35.0984ZM35.0984 37.2C35.0984 37.9083 35.2769 38.8069 35.9842 39.5142C36.6916 40.2216 37.5901 40.4 38.2984 40.4V36.4C38.2067 36.4 38.5053 36.3784 38.8126 36.6858C39.12 36.9931 39.0984 37.2917 39.0984 37.2H35.0984ZM38.2984 40.4H41.2984V36.4H38.2984V40.4ZM41.2984 40.4C42.0067 40.4 42.9053 40.2216 43.6126 39.5142C44.32 38.8069 44.4984 37.9083 44.4984 37.2H40.4984C40.4984 37.2917 40.4769 36.9931 40.7842 36.6858C41.0916 36.3784 41.3901 36.4 41.2984 36.4V40.4ZM44.4984 37.2V27H40.4984V37.2H44.4984ZM61.6184 28.18L60.1922 29.5821L60.2042 29.5943L60.2164 29.6062L61.6184 28.18ZM61.6184 39.84L63.0326 41.2542L63.0327 41.2542L61.6184 39.84ZM50.3984 41H48.3984V43H50.3984V41ZM50.3984 27V25H48.3984V27H50.3984ZM53.9984 29.8V27.8H51.9984V29.8H53.9984ZM53.9984 38.2H51.9984V40.2H53.9984V38.2ZM58.1984 29C59.3702 29 59.9159 29.301 60.1922 29.5821L63.0447 26.7779C61.7743 25.4857 60.04 25 58.1984 25V29ZM60.2164 29.6062C60.4975 29.8826 60.7984 30.4282 60.7984 31.6H64.7984C64.7984 29.7585 64.3128 28.0241 63.0205 26.7538L60.2164 29.6062ZM60.7984 31.6V36.4H64.7984V31.6H60.7984ZM60.7984 36.4C60.7984 37.5693 60.4984 38.1316 60.2042 38.4258L63.0327 41.2542C64.3118 39.975 64.7984 38.244 64.7984 36.4H60.7984ZM60.2042 38.4258C59.9293 38.7007 59.3792 39 58.1984 39V43C60.031 43 61.7609 42.526 63.0326 41.2542L60.2042 38.4258ZM58.1984 39H50.3984V43H58.1984V39ZM52.3984 41V27H48.3984V41H52.3984ZM50.3984 29H58.1984V25H50.3984V29ZM61.1984 31.6C61.1984 30.6917 60.97 29.6431 60.1627 28.8358C59.3553 28.0284 58.3067 27.8 57.3984 27.8V31.8C57.5377 31.8 57.5782 31.8181 57.5535 31.8099C57.5191 31.7984 57.4286 31.7585 57.3342 31.6642C57.2399 31.5699 57.2 31.4794 57.1886 31.445C57.1803 31.4202 57.1984 31.4607 57.1984 31.6H61.1984ZM57.3984 27.8H53.9984V31.8H57.3984V27.8ZM51.9984 29.8V38.2H55.9984V29.8H51.9984ZM53.9984 40.2H57.3984V36.2H53.9984V40.2ZM57.3984 40.2C58.3067 40.2 59.3553 39.9716 60.1627 39.1642C60.97 38.3569 61.1984 37.3083 61.1984 36.4H57.1984C57.1984 36.5393 57.1803 36.5798 57.1886 36.555C57.2 36.5206 57.2399 36.4301 57.3342 36.3358C57.4285 36.2415 57.5191 36.2016 57.5535 36.1901C57.5782 36.1819 57.5377 36.2 57.3984 36.2V40.2ZM61.1984 36.4V31.6H57.1984V36.4H61.1984ZM77.793 41V43H79.793V41H77.793ZM66.693 41H64.693V43H66.693V41ZM66.693 27V25H64.693V27H66.693ZM77.793 27H79.793V25H77.793V27ZM77.793 29.8V31.8H79.793V29.8H77.793ZM70.293 29.8V27.8H68.293V29.8H70.293ZM70.293 32.5H68.293V34.5H70.293V32.5ZM76.193 32.5H78.193V30.5H76.193V32.5ZM76.193 35.3V37.3H78.193V35.3H76.193ZM70.293 35.3V33.3H68.293V35.3H70.293ZM70.293 38.2H68.293V40.2H70.293V38.2ZM77.793 38.2H79.793V36.2H77.793V38.2ZM77.793 39H66.693V43H77.793V39ZM68.693 41V27H64.693V41H68.693ZM66.693 29H77.793V25H66.693V29ZM75.793 27V29.8H79.793V27H75.793ZM77.793 27.8H70.293V31.8H77.793V27.8ZM68.293 29.8V32.5H72.293V29.8H68.293ZM70.293 34.5H76.193V30.5H70.293V34.5ZM74.193 32.5V35.3H78.193V32.5H74.193ZM76.193 33.3H70.293V37.3H76.193V33.3ZM68.293 35.3V38.2H72.293V35.3H68.293ZM70.293 40.2H77.793V36.2H70.293V40.2ZM75.793 38.2V41H79.793V38.2H75.793ZM93.4883 41V43H95.4883V41H93.4883ZM89.6883 41L87.9518 41.9923L88.5276 43H89.6883V41ZM84.8883 32.6L86.6248 31.6077L82.8883 25.0689V32.6H84.8883ZM84.8883 41V43H86.8883V41H84.8883ZM81.2883 41H79.2883V43H81.2883V41ZM81.2883 27V25H79.2883V27H81.2883ZM85.0883 27L86.8248 26.0077L86.2489 25H85.0883V27ZM89.8883 35.4L88.1518 36.3923L91.8883 42.9311V35.4H89.8883ZM89.8883 27V25H87.8883V27H89.8883ZM93.4883 27H95.4883V25H93.4883V27ZM93.4883 39H89.6883V43H93.4883V39ZM91.4248 40.0077L86.6248 31.6077L83.1518 33.5923L87.9518 41.9923L91.4248 40.0077ZM82.8883 32.6V41H86.8883V32.6H82.8883ZM84.8883 39H81.2883V43H84.8883V39ZM83.2883 41V27H79.2883V41H83.2883ZM81.2883 29H85.0883V25H81.2883V29ZM83.3518 27.9923L88.1518 36.3923L91.6248 34.4077L86.8248 26.0077L83.3518 27.9923ZM91.8883 35.4V27H87.8883V35.4H91.8883ZM89.8883 29H93.4883V25H89.8883V29ZM91.4883 27V41H95.4883V27H91.4883ZM104.598 41V43H106.598V41H104.598ZM100.998 41H98.9977V43H100.998V41ZM100.998 29.8H102.998V27.8H100.998V29.8ZM96.7977 29.8H94.7977V31.8H96.7977V29.8ZM96.7977 27V25H94.7977V27H96.7977ZM108.798 27H110.798V25H108.798V27ZM108.798 29.8V31.8H110.798V29.8H108.798ZM104.598 29.8V27.8H102.598V29.8H104.598ZM104.598 39H100.998V43H104.598V39ZM102.998 41V29.8H98.9977V41H102.998ZM100.998 27.8H96.7977V31.8H100.998V27.8ZM98.7977 29.8V27H94.7977V29.8H98.7977ZM96.7977 29H108.798V25H96.7977V29ZM106.798 27V29.8H110.798V27H106.798ZM108.798 27.8H104.598V31.8H108.798V27.8ZM102.598 29.8V41H106.598V29.8H102.598Z" fill="url(#paint0_linear_2529_2310)"/>
</g>
<path d="M63.6205 18.26L62.9134 17.5529V17.5529L63.6205 18.26ZM52.5205 18.26L51.806 18.9596L51.8133 18.9671L51.8208 18.9745L52.5205 18.26ZM52.5205 5.76L51.8134 5.05289V5.05289L52.5205 5.76ZM63.6205 5.76L62.906 6.45962L62.9133 6.46714L62.9208 6.47451L63.6205 5.76ZM61.9805 8.8C61.9805 8.24585 61.8413 7.64657 61.3876 7.19289C60.9339 6.73921 60.3346 6.6 59.7805 6.6V8.6C60.0263 8.6 60.027 8.66079 59.9734 8.60711C59.9197 8.55343 59.9805 8.55414 59.9805 8.8H61.9805ZM59.7805 6.6H56.3805V8.6H59.7805V6.6ZM56.3805 6.6C55.8263 6.6 55.227 6.73921 54.7734 7.19289C54.3197 7.64657 54.1805 8.24585 54.1805 8.8H56.1805C56.1805 8.55414 56.2413 8.55343 56.1876 8.60711C56.1339 8.66079 56.1346 8.6 56.3805 8.6V6.6ZM54.1805 8.8V15.2H56.1805V8.8H54.1805ZM54.1805 15.2C54.1805 15.7541 54.3197 16.3534 54.7734 16.8071C55.227 17.2608 55.8263 17.4 56.3805 17.4V15.4C56.1346 15.4 56.1339 15.3392 56.1876 15.3929C56.2413 15.4466 56.1805 15.4459 56.1805 15.2H54.1805ZM56.3805 17.4H59.7805V15.4H56.3805V17.4ZM59.7805 17.4C60.3346 17.4 60.9339 17.2608 61.3876 16.8071C61.8413 16.3534 61.9805 15.7541 61.9805 15.2H59.9805C59.9805 15.4459 59.9197 15.4466 59.9734 15.3929C60.027 15.3392 60.0263 15.4 59.7805 15.4V17.4ZM61.9805 15.2V8.8H59.9805V15.2H61.9805ZM63.5805 15.2C63.5805 16.4763 63.2851 17.1811 62.9134 17.5529L64.3276 18.9671C65.2358 18.0589 65.5805 16.7237 65.5805 15.2H63.5805ZM62.9134 17.5529C62.5582 17.908 61.864 18.2 60.5805 18.2V20.2C62.0969 20.2 63.4294 19.8653 64.3276 18.9671L62.9134 17.5529ZM60.5805 18.2H55.5805V20.2H60.5805V18.2ZM55.5805 18.2C54.2994 18.2 53.5914 17.9091 53.2201 17.5455L51.8208 18.9745C52.7295 19.8643 54.0616 20.2 55.5805 20.2V18.2ZM53.235 17.5604C52.8714 17.1891 52.5805 16.4811 52.5805 15.2H50.5805C50.5805 16.7189 50.9162 18.0509 51.806 18.9596L53.235 17.5604ZM52.5805 15.2V8.8H50.5805V15.2H52.5805ZM52.5805 8.8C52.5805 7.51646 52.8724 6.82226 53.2276 6.46711L51.8134 5.05289C50.9152 5.95107 50.5805 7.28353 50.5805 8.8H52.5805ZM53.2276 6.46711C53.5993 6.09535 54.3041 5.8 55.5805 5.8V3.8C54.0568 3.8 52.7216 4.14464 51.8134 5.05289L53.2276 6.46711ZM55.5805 5.8H60.5805V3.8H55.5805V5.8ZM60.5805 5.8C61.8592 5.8 62.5502 6.09634 62.906 6.45962L64.335 5.06037C63.4374 4.14365 62.1018 3.8 60.5805 3.8V5.8ZM62.9208 6.47451C63.2841 6.83022 63.5805 7.52129 63.5805 8.8H65.5805C65.5805 7.27871 65.2368 5.94311 64.3201 5.04549L62.9208 6.47451ZM63.5805 8.8V15.2H65.5805V8.8H63.5805ZM80.6898 19V20H81.6898V19H80.6898ZM76.8898 19L76.0216 19.4961L76.3095 20H76.8898V19ZM72.0898 10.6L72.9581 10.1039L71.0898 6.83444V10.6H72.0898ZM72.0898 19V20H73.0898V19H72.0898ZM68.4898 19H67.4898V20H68.4898V19ZM68.4898 5V4H67.4898V5H68.4898ZM72.2898 5L73.1581 4.50386L72.8702 4H72.2898V5ZM77.0898 13.4L76.2216 13.8961L78.0898 17.1656V13.4H77.0898ZM77.0898 5V4H76.0898V5H77.0898ZM80.6898 5H81.6898V4H80.6898V5ZM80.6898 18H76.8898V20H80.6898V18ZM77.7581 18.5039L72.9581 10.1039L71.2216 11.0961L76.0216 19.4961L77.7581 18.5039ZM71.0898 10.6V19H73.0898V10.6H71.0898ZM72.0898 18H68.4898V20H72.0898V18ZM69.4898 19V5H67.4898V19H69.4898ZM68.4898 6H72.2898V4H68.4898V6ZM71.4216 5.49614L76.2216 13.8961L77.9581 12.9039L73.1581 4.50386L71.4216 5.49614ZM78.0898 13.4V5H76.0898V13.4H78.0898ZM77.0898 6H80.6898V4H77.0898V6ZM79.6898 5V19H81.6898V5H79.6898ZM88.5992 16.2H87.5992V17.2H88.5992V16.2ZM95.8992 16.2H96.8992V15.2H95.8992V16.2ZM95.8992 19V20H96.8992V19H95.8992ZM84.9992 19H83.9992V20H84.9992V19ZM84.9992 5V4H83.9992V5H84.9992ZM88.5992 5H89.5992V4H88.5992V5ZM88.5992 17.2H95.8992V15.2H88.5992V17.2ZM94.8992 16.2V19H96.8992V16.2H94.8992ZM95.8992 18H84.9992V20H95.8992V18ZM85.9992 19V5H83.9992V19H85.9992ZM84.9992 6H88.5992V4H84.9992V6ZM87.5992 5V16.2H89.5992V5H87.5992ZM95.2016 5V4H93.5624L94.3124 5.45754L95.2016 5ZM99.0016 5L99.9012 4.5634L99.6278 4H99.0016V5ZM102.302 11.8L101.402 12.2366L102.302 14.0904L103.201 12.2366L102.302 11.8ZM105.602 5V4H104.975L104.702 4.5634L105.602 5ZM109.402 5L110.291 5.45754L111.041 4H109.402V5ZM104.102 15.3L103.212 14.8425L103.102 15.0578V15.3H104.102ZM104.102 19V20H105.102V19H104.102ZM100.502 19H99.5016V20H100.502V19ZM100.502 15.3H101.502V15.0578L101.391 14.8425L100.502 15.3ZM95.2016 6H99.0016V4H95.2016V6ZM98.1019 5.4366L101.402 12.2366L103.201 11.3634L99.9012 4.5634L98.1019 5.4366ZM103.201 12.2366L106.501 5.4366L104.702 4.5634L101.402 11.3634L103.201 12.2366ZM105.602 6H109.402V4H105.602V6ZM108.512 4.54246L103.212 14.8425L104.991 15.7575L110.291 5.45754L108.512 4.54246ZM103.102 15.3V19H105.102V15.3H103.102ZM104.102 18H100.502V20H104.102V18ZM101.502 19V15.3H99.5016V19H101.502ZM101.391 14.8425L96.0908 4.54246L94.3124 5.45754L99.6124 15.7575L101.391 14.8425ZM4.47375 38.1L4.52841 37.1015L3.47375 37.0438V38.1H4.47375ZM12.6137 38.14L11.9066 37.4329H11.9066L12.6137 38.14ZM12.8937 35.6H13.8937V34.6H12.8937V35.6ZM5.23375 34.66L4.51924 35.3596L4.5266 35.3671L4.53412 35.3745L5.23375 34.66ZM5.23375 27.96L5.94086 28.6671H5.94086L5.23375 27.96ZM15.3137 27H16.3137V26H15.3137V27ZM15.3137 29.8V30.8H16.3137V29.8H15.3137ZM15.5737 40.28L14.8666 39.5729L15.5737 40.28ZM10.5337 41.16L10.4903 42.1591L10.4987 42.1594L10.5337 41.16ZM8.69375 41.08L8.64479 42.0788L8.65031 42.0791L8.69375 41.08ZM4.47375 40.8H3.47375V41.7208L4.39146 41.7966L4.47375 40.8ZM4.41909 39.0985C8.06907 39.2983 10.5689 39.4 11.8937 39.4V37.4C10.6319 37.4 8.1851 37.3017 4.52841 37.1015L4.41909 39.0985ZM11.8937 39.4C12.3953 39.4 12.9155 39.2524 13.3209 38.8471L11.9066 37.4329C11.9159 37.4236 11.927 37.4147 11.9388 37.4073C11.9505 37.3999 11.9597 37.396 11.9641 37.3944C11.9725 37.3914 11.954 37.4 11.8937 37.4V39.4ZM13.3209 38.8471C13.7255 38.4425 13.8937 37.9255 13.8937 37.4H11.8937C11.8937 37.4518 11.886 37.4676 11.8885 37.4611C11.8896 37.4581 11.8921 37.4526 11.8963 37.446C11.9006 37.4395 11.9045 37.435 11.9066 37.4329L13.3209 38.8471ZM13.8937 37.4V35.6H11.8937V37.4H13.8937ZM12.8937 34.6H8.29375V36.6H12.8937V34.6ZM8.29375 34.6C7.01266 34.6 6.30469 34.3091 5.93337 33.9455L4.53412 35.3745C5.44281 36.2643 6.77484 36.6 8.29375 36.6V34.6ZM5.94826 33.9604C5.58468 33.5891 5.29375 32.8811 5.29375 31.6H3.29375C3.29375 33.1189 3.62948 34.4509 4.51924 35.3596L5.94826 33.9604ZM5.29375 31.6V31H3.29375V31.6H5.29375ZM5.29375 31C5.29375 29.7165 5.5857 29.0223 5.94086 28.6671L4.52664 27.2529C3.62846 28.1511 3.29375 29.4835 3.29375 31H5.29375ZM5.94086 28.6671C6.31261 28.2954 7.01743 28 8.29375 28V26C6.77007 26 5.43489 26.3446 4.52664 27.2529L5.94086 28.6671ZM8.29375 28H15.3137V26H8.29375V28ZM14.3137 27V29.8H16.3137V27H14.3137ZM15.3137 28.8H9.09375V30.8H15.3137V28.8ZM9.09375 28.8C8.5396 28.8 7.94032 28.9392 7.48664 29.3929C7.03296 29.8466 6.89375 30.4459 6.89375 31H8.89375C8.89375 30.7541 8.95454 30.7534 8.90086 30.8071C8.84718 30.8608 8.84789 30.8 9.09375 30.8V28.8ZM6.89375 31V31.4H8.89375V31H6.89375ZM6.89375 31.4C6.89375 31.9541 7.03296 32.5534 7.48664 33.0071C7.94032 33.4608 8.5396 33.6 9.09375 33.6V31.6C8.84789 31.6 8.84718 31.5392 8.90086 31.5929C8.95454 31.6466 8.89375 31.6459 8.89375 31.4H6.89375ZM9.09375 33.6H12.6937V31.6H9.09375V33.6ZM12.6937 33.6C13.8677 33.6 14.5174 33.8778 14.8666 34.2271L16.2809 32.8129C15.4035 31.9355 14.1331 31.6 12.6937 31.6V33.6ZM14.8666 34.2271C15.2159 34.5764 15.4937 35.226 15.4937 36.4H17.4937C17.4937 34.9606 17.1583 33.6903 16.2809 32.8129L14.8666 34.2271ZM15.4937 36.4V37.4H17.4937V36.4H15.4937ZM15.4937 37.4C15.4937 38.574 15.2159 39.2236 14.8666 39.5729L16.2809 40.9871C17.1583 40.1097 17.4937 38.8394 17.4937 37.4H15.4937ZM14.8666 39.5729C14.5174 39.9222 13.8677 40.2 12.6937 40.2V42.2C14.1331 42.2 15.4035 41.8645 16.2809 40.9871L14.8666 39.5729ZM12.6937 40.2C12.0267 40.2 11.3185 40.1869 10.5688 40.1606L10.4987 42.1594C11.269 42.1864 12.0008 42.2 12.6937 42.2V40.2ZM10.5772 40.1609L8.73719 40.0809L8.65031 42.0791L10.4903 42.1591L10.5772 40.1609ZM8.74271 40.0812C7.39458 40.0151 5.99905 39.9225 4.55604 39.8034L4.39146 41.7966C5.85512 41.9175 7.27292 42.0116 8.64479 42.0788L8.74271 40.0812ZM5.47375 40.8V38.1H3.47375V40.8H5.47375ZM25.9961 41V42H26.9961V41H25.9961ZM22.3961 41H21.3961V42H22.3961V41ZM22.3961 29.8H23.3961V28.8H22.3961V29.8ZM18.1961 29.8H17.1961V30.8H18.1961V29.8ZM18.1961 27V26H17.1961V27H18.1961ZM30.1961 27H31.1961V26H30.1961V27ZM30.1961 29.8V30.8H31.1961V29.8H30.1961ZM25.9961 29.8V28.8H24.9961V29.8H25.9961ZM25.9961 40H22.3961V42H25.9961V40ZM23.3961 41V29.8H21.3961V41H23.3961ZM22.3961 28.8H18.1961V30.8H22.3961V28.8ZM19.1961 29.8V27H17.1961V29.8H19.1961ZM18.1961 28H30.1961V26H18.1961V28ZM29.1961 27V29.8H31.1961V27H29.1961ZM30.1961 28.8H25.9961V30.8H30.1961V28.8ZM24.9961 29.8V41H26.9961V29.8H24.9961ZM42.4984 27V26H41.4984V27H42.4984ZM46.0984 27H47.0984V26H46.0984V27ZM45.1384 40.26L44.4313 39.5529L45.1384 40.26ZM34.4384 40.26L33.7239 40.9596L33.7313 40.9671L33.7388 40.9745L34.4384 40.26ZM33.4984 27V26H32.4984V27H33.4984ZM37.0984 27H38.0984V26H37.0984V27ZM42.4984 28H46.0984V26H42.4984V28ZM45.0984 27V37.2H47.0984V27H45.0984ZM45.0984 37.2C45.0984 38.4763 44.8031 39.1811 44.4313 39.5529L45.8455 40.9671C46.7538 40.0589 47.0984 38.7237 47.0984 37.2H45.0984ZM44.4313 39.5529C44.0762 39.908 43.382 40.2 42.0984 40.2V42.2C43.6149 42.2 44.9474 41.8653 45.8455 40.9671L44.4313 39.5529ZM42.0984 40.2H37.4984V42.2H42.0984V40.2ZM37.4984 40.2C36.2173 40.2 35.5094 39.9091 35.1381 39.5455L33.7388 40.9745C34.6475 41.8643 35.9795 42.2 37.4984 42.2V40.2ZM35.1529 39.5604C34.7894 39.1891 34.4984 38.4811 34.4984 37.2H32.4984C32.4984 38.7189 32.8342 40.0509 33.7239 40.9596L35.1529 39.5604ZM34.4984 37.2V27H32.4984V37.2H34.4984ZM33.4984 28H37.0984V26H33.4984V28ZM36.0984 27V37.2H38.0984V27H36.0984ZM36.0984 37.2C36.0984 37.7541 36.2376 38.3534 36.6913 38.8071C37.145 39.2608 37.7443 39.4 38.2984 39.4V37.4C38.0526 37.4 38.0519 37.3392 38.1055 37.3929C38.1592 37.4466 38.0984 37.4459 38.0984 37.2H36.0984ZM38.2984 39.4H41.2984V37.4H38.2984V39.4ZM41.2984 39.4C41.8526 39.4 42.4519 39.2608 42.9055 38.8071C43.3592 38.3534 43.4984 37.7541 43.4984 37.2H41.4984C41.4984 37.4459 41.4376 37.4466 41.4913 37.3929C41.545 37.3392 41.5443 37.4 41.2984 37.4V39.4ZM43.4984 37.2V27H41.4984V37.2H43.4984ZM61.6184 28.18L60.9053 28.881L60.9113 28.8871L60.9174 28.8931L61.6184 28.18ZM61.6184 39.84L62.3255 40.5471L61.6184 39.84ZM50.3984 41H49.3984V42H50.3984V41ZM50.3984 27V26H49.3984V27H50.3984ZM53.9984 29.8V28.8H52.9984V29.8H53.9984ZM53.9984 38.2H52.9984V39.2H53.9984V38.2ZM58.1984 28C59.5377 28 60.3805 28.3472 60.9053 28.881L62.3316 27.479C61.3097 26.4395 59.8725 26 58.1984 26V28ZM60.9174 28.8931C61.4513 29.418 61.7984 30.2608 61.7984 31.6H63.7984C63.7984 29.9259 63.3589 28.4887 62.3195 27.4669L60.9174 28.8931ZM61.7984 31.6V36.4H63.7984V31.6H61.7984ZM61.7984 36.4C61.7984 37.738 61.4517 38.5925 60.9113 39.1329L62.3255 40.5471C63.3585 39.5142 63.7984 38.0753 63.7984 36.4H61.7984ZM60.9113 39.1329C60.3872 39.657 59.5421 40 58.1984 40V42C59.8681 42 61.303 41.5697 62.3255 40.5471L60.9113 39.1329ZM58.1984 40H50.3984V42H58.1984V40ZM51.3984 41V27H49.3984V41H51.3984ZM50.3984 28H58.1984V26H50.3984V28ZM60.1984 31.6C60.1984 30.8459 60.0092 30.0966 59.4555 29.5429C58.9019 28.9892 58.1526 28.8 57.3984 28.8V30.8C57.8443 30.8 57.995 30.9108 58.0413 30.9571C58.0877 31.0034 58.1984 31.1541 58.1984 31.6H60.1984ZM57.3984 28.8H53.9984V30.8H57.3984V28.8ZM52.9984 29.8V38.2H54.9984V29.8H52.9984ZM53.9984 39.2H57.3984V37.2H53.9984V39.2ZM57.3984 39.2C58.1526 39.2 58.9019 39.0108 59.4555 38.4571C60.0092 37.9034 60.1984 37.1541 60.1984 36.4H58.1984C58.1984 36.8459 58.0877 36.9966 58.0413 37.0429C57.995 37.0892 57.8443 37.2 57.3984 37.2V39.2ZM60.1984 36.4V31.6H58.1984V36.4H60.1984ZM77.793 41V42H78.793V41H77.793ZM66.693 41H65.693V42H66.693V41ZM66.693 27V26H65.693V27H66.693ZM77.793 27H78.793V26H77.793V27ZM77.793 29.8V30.8H78.793V29.8H77.793ZM70.293 29.8V28.8H69.293V29.8H70.293ZM70.293 32.5H69.293V33.5H70.293V32.5ZM76.193 32.5H77.193V31.5H76.193V32.5ZM76.193 35.3V36.3H77.193V35.3H76.193ZM70.293 35.3V34.3H69.293V35.3H70.293ZM70.293 38.2H69.293V39.2H70.293V38.2ZM77.793 38.2H78.793V37.2H77.793V38.2ZM77.793 40H66.693V42H77.793V40ZM67.693 41V27H65.693V41H67.693ZM66.693 28H77.793V26H66.693V28ZM76.793 27V29.8H78.793V27H76.793ZM77.793 28.8H70.293V30.8H77.793V28.8ZM69.293 29.8V32.5H71.293V29.8H69.293ZM70.293 33.5H76.193V31.5H70.293V33.5ZM75.193 32.5V35.3H77.193V32.5H75.193ZM76.193 34.3H70.293V36.3H76.193V34.3ZM69.293 35.3V38.2H71.293V35.3H69.293ZM70.293 39.2H77.793V37.2H70.293V39.2ZM76.793 38.2V41H78.793V38.2H76.793ZM93.4883 41V42H94.4883V41H93.4883ZM89.6883 41L88.82 41.4961L89.108 42H89.6883V41ZM84.8883 32.6L85.7565 32.1039L83.8883 28.8344V32.6H84.8883ZM84.8883 41V42H85.8883V41H84.8883ZM81.2883 41H80.2883V42H81.2883V41ZM81.2883 27V26H80.2883V27H81.2883ZM85.0883 27L85.9565 26.5039L85.6686 26H85.0883V27ZM89.8883 35.4L89.02 35.8961L90.8883 39.1656V35.4H89.8883ZM89.8883 27V26H88.8883V27H89.8883ZM93.4883 27H94.4883V26H93.4883V27ZM93.4883 40H89.6883V42H93.4883V40ZM90.5565 40.5039L85.7565 32.1039L84.02 33.0961L88.82 41.4961L90.5565 40.5039ZM83.8883 32.6V41H85.8883V32.6H83.8883ZM84.8883 40H81.2883V42H84.8883V40ZM82.2883 41V27H80.2883V41H82.2883ZM81.2883 28H85.0883V26H81.2883V28ZM84.22 27.4961L89.02 35.8961L90.7565 34.9039L85.9565 26.5039L84.22 27.4961ZM90.8883 35.4V27H88.8883V35.4H90.8883ZM89.8883 28H93.4883V26H89.8883V28ZM92.4883 27V41H94.4883V27H92.4883ZM104.598 41V42H105.598V41H104.598ZM100.998 41H99.9977V42H100.998V41ZM100.998 29.8H101.998V28.8H100.998V29.8ZM96.7977 29.8H95.7977V30.8H96.7977V29.8ZM96.7977 27V26H95.7977V27H96.7977ZM108.798 27H109.798V26H108.798V27ZM108.798 29.8V30.8H109.798V29.8H108.798ZM104.598 29.8V28.8H103.598V29.8H104.598ZM104.598 40H100.998V42H104.598V40ZM101.998 41V29.8H99.9977V41H101.998ZM100.998 28.8H96.7977V30.8H100.998V28.8ZM97.7977 29.8V27H95.7977V29.8H97.7977ZM96.7977 28H108.798V26H96.7977V28ZM107.798 27V29.8H109.798V27H107.798ZM108.798 28.8H104.598V30.8H108.798V28.8ZM103.598 29.8V41H105.598V29.8H103.598Z" fill="white"/>
<defs>
<filter id="filter0_f_2529_2310" x="0.293945" y="0.799805" width="113.107" height="44.4004" filterUnits="userSpaceOnUse" color-interpolation-filters="sRGB">
<feFlood flood-opacity="0" result="BackgroundImageFix"/>
<feBlend mode="normal" in="SourceGraphic" in2="BackgroundImageFix" result="shape"/>
<feGaussianBlur stdDeviation="2" result="effect1_foregroundBlur_2529_2310"/>
</filter>
<linearGradient id="paint0_linear_2529_2310" x1="100.5" y1="2.00001" x2="23" y2="35" gradientUnits="userSpaceOnUse">
<stop stop-color="#10C410"/>
<stop offset="0.454536" stop-color="#00D1FF"/>
<stop offset="0.623785" stop-color="#15BCFB"/>
<stop offset="1" stop-color="#B31ADB"/>
</linearGradient>
</defs>
</svg>
